<svg width="1920" height="1080" viewBox="0 0 1920 1080" fill="none" xmlns="http://www.w3.org/2000/svg">
<rect width="1920" height="1080" fill="white"/>
<rect width="1920" height="482" fill="url(#paint0_linear_35_414)"/>
<path d="M905.264 84V66.3242H911.562C915.676 66.3242 917.69 68.79 917.69 72.0615C917.69 75.3208 915.664 77.7988 911.562 77.7988H907.949V84H905.264ZM907.949 75.5039H911.294C913.894 75.5161 914.98 74.0513 914.98 72.0615C914.98 70.0596 913.894 68.6313 911.294 68.6191H907.949V75.5039ZM919.57 80.2646C919.558 77.2373 922.134 76.4561 924.526 76.2852C925.405 76.2363 927.395 76.1265 928.005 76.1021L927.993 75.04C928.005 73.5386 927.078 72.6719 925.308 72.6719C923.77 72.6719 922.842 73.3799 922.573 74.3564H919.985C920.217 72.1592 922.268 70.5723 925.405 70.5723C927.517 70.5723 930.593 71.3413 930.605 75.1865V84H928.066V82.1934H927.969C927.456 83.1821 926.235 84.293 924.038 84.293C921.523 84.293 919.558 82.8525 919.57 80.2646ZM922.109 80.2891C922.109 81.5586 923.159 82.2056 924.624 82.2178C926.748 82.2056 928.018 80.7896 928.018 79.2148L928.005 78.0063C927.407 78.043 925.515 78.1772 924.893 78.2139C923.184 78.3359 922.109 78.9829 922.109 80.2891ZM933.755 84V70.7432H936.367V84H933.755ZM933.413 67.1543C933.425 66.2998 934.17 65.6162 935.073 65.6162C935.964 65.6162 936.709 66.2998 936.709 67.1543C936.709 68.0088 935.964 68.7046 935.073 68.6924C934.17 68.7046 933.425 68.0088 933.413 67.1543ZM942.153 76.1387V84H939.541V70.7432H942.056V72.916H942.202C942.825 71.4878 944.131 70.5723 946.108 70.5723C948.831 70.5723 950.637 72.2935 950.625 75.5771V84H948.037V75.8945C948.025 73.9658 946.987 72.8184 945.229 72.8184C943.435 72.8184 942.153 74.0269 942.153 76.1387ZM960.122 84V66.3242H966.421C970.535 66.3242 972.549 68.79 972.549 72.0615C972.549 75.3208 970.522 77.7988 966.421 77.7988H962.808V84H960.122ZM962.808 75.5039H966.152C968.752 75.5161 969.839 74.0513 969.839 72.0615C969.839 70.0596 968.752 68.6313 966.152 68.6191H962.808V75.5039ZM980.605 84.2686C976.846 84.2686 974.392 81.5342 974.404 77.4326C974.392 73.3066 976.846 70.5723 980.605 70.5723C984.341 70.5723 986.782 73.3066 986.782 77.4326C986.782 81.5342 984.341 84.2686 980.605 84.2686ZM977.017 77.4326C977.017 79.9595 978.176 82.0957 980.605 82.0957C982.998 82.0957 984.146 79.9595 984.146 77.4326C984.146 74.8936 982.998 72.7329 980.605 72.7207C978.176 72.7329 977.017 74.8936 977.017 77.4326ZM989.346 84V70.7432H991.958V84H989.346ZM989.004 67.1543C989.016 66.2998 989.761 65.6162 990.664 65.6162C991.555 65.6162 992.3 66.2998 992.3 67.1543C992.3 68.0088 991.555 68.7046 990.664 68.6924C989.761 68.7046 989.016 68.0088 989.004 67.1543ZM997.744 76.1387V84H995.132V70.7432H997.646V72.916H997.793C998.416 71.4878 999.722 70.5723 1001.7 70.5723C1004.42 70.5723 1006.23 72.2935 1006.22 75.5771V84H1003.63V75.8945C1003.62 73.9658 1002.58 72.8184 1000.82 72.8184C999.026 72.8184 997.744 74.0269 997.744 76.1387ZM1015.59 70.7432V72.8184H1012.88V80.0938C1012.89 81.5952 1013.63 81.8638 1014.47 81.876C1014.85 81.876 1015.42 81.8394 1015.79 81.8027V84.0732C1015.43 84.1221 1014.87 84.1709 1014.15 84.1709C1012.11 84.1709 1010.27 83.0479 1010.29 80.6309V72.8184H1008.34V70.7432H1010.29V67.5693H1012.88V70.7432H1015.59Z" fill="white"/>
<path d="M538.23 151.031H540.34V162.258C540.34 165.75 537.727 168.293 533.73 168.305C529.723 168.293 527.121 165.75 527.121 162.258V151.031H529.23V162.094C529.219 164.555 530.93 166.324 533.73 166.336C536.531 166.324 538.219 164.555 538.23 162.094V151.031ZM550.91 158.578C550.629 157.523 549.82 156.832 548.332 156.82C546.762 156.832 545.648 157.676 545.637 158.742C545.648 159.586 546.328 160.16 547.816 160.523L549.715 160.992C551.988 161.531 553.102 162.668 553.113 164.438C553.102 166.641 551.309 168.27 548.121 168.258C545.262 168.27 543.562 166.992 543.223 164.672H545.332C545.566 165.914 546.469 166.512 548.074 166.5C549.891 166.512 551.027 165.75 551.027 164.555C551.027 163.652 550.383 163.066 548.941 162.727L547.02 162.281C544.805 161.766 543.621 160.559 543.621 158.859C543.621 156.68 545.531 155.109 548.332 155.109C550.969 155.109 552.621 156.516 552.879 158.578H550.91ZM561.082 168.258C557.402 168.27 555.129 165.645 555.129 161.742C555.129 157.828 557.438 155.109 560.895 155.109C563.566 155.109 566.391 156.75 566.379 161.461V162.305H557.145C557.25 165 558.82 166.477 561.082 166.477C562.605 166.477 563.566 165.809 564.035 165.023H566.191C565.594 166.957 563.707 168.27 561.082 168.258ZM557.156 160.594H564.34C564.328 158.473 562.992 156.891 560.895 156.891C558.691 156.891 557.297 158.625 557.156 160.594ZM569.004 168V155.273H570.949V157.219H571.09C571.547 155.93 572.871 155.074 574.371 155.062C574.676 155.074 575.191 155.086 575.426 155.109V157.148C575.273 157.113 574.734 157.008 574.207 157.008C572.379 157.008 571.02 158.273 571.02 159.984V168H569.004ZM583.676 168V151.031H589.629C593.191 151.031 594.867 153.035 594.855 155.531C594.867 157.711 593.566 158.684 592.09 159.094V159.258C593.672 159.352 595.523 160.805 595.535 163.5C595.523 166.043 593.848 168 589.84 168H583.676ZM585.785 166.125H589.816C592.477 166.125 593.508 164.953 593.496 163.477C593.508 161.754 592.113 160.289 589.934 160.289H585.785V166.125ZM585.785 158.461H589.559C591.398 158.473 592.84 157.324 592.84 155.555C592.84 154.078 591.844 152.906 589.629 152.906H585.785V158.461ZM597.668 164.391C597.668 161.473 600.246 160.805 602.449 160.641C603.27 160.582 605.32 160.465 605.895 160.453V159.422C605.895 157.805 604.934 156.867 603.012 156.867C601.406 156.867 600.434 157.605 600.152 158.578H598.043C598.301 156.527 600.293 155.109 603.105 155.109C604.77 155.109 607.898 155.602 607.887 159.609V168H605.895V166.266H605.801C605.379 167.121 604.219 168.293 602.004 168.305C599.59 168.293 597.668 166.875 597.668 164.391ZM599.684 164.484C599.695 165.832 600.809 166.512 602.355 166.5C604.629 166.512 605.895 164.988 605.895 163.383V162.105C605.297 162.141 603.293 162.293 602.684 162.328C600.855 162.445 599.695 163.09 599.684 164.484ZM616.324 168.258C612.715 168.27 610.512 165.516 610.512 161.695C610.512 157.828 612.82 155.109 616.277 155.109C618.984 155.109 621.023 156.715 621.34 159.117H619.324C619.031 157.957 618.023 156.891 616.324 156.891C614.051 156.891 612.539 158.766 612.527 161.625C612.539 164.566 614.016 166.453 616.324 166.453C617.824 166.453 618.973 165.645 619.324 164.25H621.34C621.023 166.523 619.148 168.27 616.324 168.258ZM623.824 168V151.031H625.84V160.898H626.074L631.582 155.273H634.066L628.699 160.723L634.465 168H631.91L627.188 162L625.84 163.254V168H623.824ZM640.84 173.039C637.758 173.039 635.672 171.691 635.449 169.336H637.559C637.828 170.637 639.035 171.281 640.84 171.281C643.02 171.281 644.355 170.332 644.355 168.234V165.656H644.191C643.758 166.359 642.949 167.801 640.488 167.812C637.395 167.801 635.074 165.469 635.074 161.461C635.074 157.547 637.312 155.109 640.512 155.109C642.984 155.109 643.781 156.609 644.238 157.289H644.402V155.273H646.371V168.352C646.359 171.633 643.945 173.039 640.84 173.039ZM637.113 161.531C637.113 164.168 638.355 166.008 640.77 166.008C643.102 166.008 644.391 164.332 644.402 161.531C644.391 158.801 643.137 156.914 640.77 156.914C638.32 156.914 637.113 158.965 637.113 161.531ZM649.582 168V155.273H651.527V157.219H651.668C652.125 155.93 653.449 155.074 654.949 155.062C655.254 155.074 655.77 155.086 656.004 155.109V157.148C655.852 157.113 655.312 157.008 654.785 157.008C652.957 157.008 651.598 158.273 651.598 159.984V168H649.582ZM662.754 168.258C659.285 168.27 656.941 165.645 656.941 161.695C656.941 157.723 659.285 155.109 662.754 155.109C666.211 155.109 668.531 157.723 668.52 161.695C668.531 165.645 666.211 168.27 662.754 168.258ZM658.957 161.695C658.969 164.238 660.164 166.477 662.754 166.477C665.32 166.477 666.504 164.238 666.504 161.695C666.504 159.164 665.32 156.891 662.754 156.891C660.164 156.891 658.969 159.164 658.957 161.695ZM679.207 162.773V155.273H681.199V168H679.207V165.844H679.066C678.469 167.133 677.203 168.164 675.293 168.164C672.879 168.164 671.156 166.594 671.168 163.359V155.273H673.184V163.219C673.184 165.047 674.32 166.23 675.949 166.219C677.391 166.23 679.195 165.152 679.207 162.773ZM686.449 160.359V168H684.434V155.273H686.379V157.266H686.543C687.141 155.965 688.336 155.109 690.27 155.109C692.848 155.109 694.57 156.68 694.559 159.914V168H692.543V160.055C692.543 158.086 691.465 156.914 689.66 156.914C687.809 156.914 686.449 158.156 686.449 160.359ZM702.598 168.258C699.422 168.27 697.184 165.715 697.184 161.672C697.184 157.641 699.422 155.109 702.621 155.109C705.094 155.109 705.867 156.609 706.301 157.289H706.441V151.031H708.48V168H706.512V166.055H706.301C705.855 166.758 705.023 168.27 702.598 168.258ZM699.223 161.625C699.223 164.332 700.465 166.453 702.879 166.453C705.211 166.453 706.5 164.484 706.512 161.625C706.5 158.801 705.246 156.914 702.879 156.914C700.43 156.914 699.223 158.965 699.223 161.625ZM717.48 150.422C720.68 150.445 723.023 152.414 723.035 155.32C723.023 157.934 721.125 159.785 718.418 160.137V163.676C720.363 163.594 722.32 163.453 724.137 163.219L724.254 164.602C719.836 165.352 714.914 165.398 711.246 165.375L710.941 163.828C712.617 163.816 714.551 163.805 716.566 163.746V160.137C713.801 159.809 711.914 157.945 711.926 155.32C711.914 152.414 714.223 150.445 717.48 150.422ZM713.73 155.32C713.707 157.277 715.289 158.637 717.48 158.625C719.637 158.637 721.207 157.277 721.23 155.32C721.207 153.363 719.637 152.027 717.48 152.016C715.289 152.027 713.707 153.363 713.73 155.32ZM725.473 169.898V149.062H727.301V157.664H730.699V159.258H727.301V169.898H725.473ZM754.09 149.062V157.312H757.582V158.859H754.09V169.945H752.262V149.062H754.09ZM738.879 164.719V151.102H748.605V152.625H740.707V163.172C744.48 163.16 747.141 162.996 750.246 162.422L750.48 164.016C747.211 164.602 744.48 164.719 740.52 164.719H738.879ZM778.09 152.227V153.75H774.996V156.656H778.09V158.203H774.996V161.438H773.168V149.062H774.996V152.227H778.09ZM759.105 155.227C759.094 152.32 761.414 150.316 764.566 150.328C767.742 150.316 770.027 152.32 770.051 155.227C770.027 158.121 767.742 160.113 764.566 160.125C761.414 160.113 759.094 158.121 759.105 155.227ZM760.91 155.227C760.898 157.195 762.457 158.555 764.566 158.578C766.699 158.555 768.234 157.195 768.246 155.227C768.234 153.27 766.699 151.875 764.566 151.898C762.457 151.875 760.898 153.27 760.91 155.227ZM761.402 165.984C761.414 163.512 764.062 162.082 768.316 162.07C772.57 162.082 775.184 163.512 775.184 165.984C775.184 168.41 772.57 169.852 768.316 169.852C764.062 169.852 761.414 168.41 761.402 165.984ZM763.254 165.984C763.23 167.484 765.176 168.363 768.316 168.375C771.469 168.363 773.391 167.484 773.402 165.984C773.391 164.473 771.469 163.57 768.316 163.57C765.176 163.57 763.23 164.473 763.254 165.984ZM795.738 149.086V155.953H798.879V157.5H795.738V164.695H793.91V149.086H795.738ZM779.496 153.141V151.641H784.793V149.086H786.621V151.641H791.918V153.141H779.496ZM780.691 158.18C780.68 155.812 782.695 154.289 785.707 154.289C788.684 154.289 790.699 155.812 790.723 158.18C790.699 160.523 788.684 162.035 785.707 162.023C782.695 162.035 780.68 160.523 780.691 158.18ZM782.449 158.18C782.438 159.645 783.738 160.594 785.707 160.57C787.652 160.594 788.965 159.645 788.988 158.18C788.965 156.691 787.652 155.73 785.707 155.742C783.738 155.73 782.438 156.691 782.449 158.18ZM782.707 169.453V163.453H784.512V167.906H796.699V169.453H782.707ZM807.246 168V151.031H813.012C816.984 151.031 818.801 153.234 818.801 156.258C818.801 158.508 817.793 160.266 815.637 161.016L819.457 168H816.996L813.445 161.402C813.316 161.414 813.176 161.414 813.035 161.414H809.355V168H807.246ZM809.355 159.492H812.941C815.648 159.492 816.703 158.273 816.715 156.258C816.703 154.23 815.648 152.906 812.918 152.906H809.355V159.492ZM826.793 168.258C823.113 168.27 820.84 165.645 820.84 161.742C820.84 157.828 823.148 155.109 826.605 155.109C829.277 155.109 832.102 156.75 832.09 161.461V162.305H822.855C822.961 165 824.531 166.477 826.793 166.477C828.316 166.477 829.277 165.809 829.746 165.023H831.902C831.305 166.957 829.418 168.27 826.793 168.258ZM822.867 160.594H830.051C830.039 158.473 828.703 156.891 826.605 156.891C824.402 156.891 823.008 158.625 822.867 160.594ZM841.793 158.578C841.512 157.523 840.703 156.832 839.215 156.82C837.645 156.832 836.531 157.676 836.52 158.742C836.531 159.586 837.211 160.16 838.699 160.523L840.598 160.992C842.871 161.531 843.984 162.668 843.996 164.438C843.984 166.641 842.191 168.27 839.004 168.258C836.145 168.27 834.445 166.992 834.105 164.672H836.215C836.449 165.914 837.352 166.512 838.957 166.5C840.773 166.512 841.91 165.75 841.91 164.555C841.91 163.652 841.266 163.066 839.824 162.727L837.902 162.281C835.688 161.766 834.504 160.559 834.504 158.859C834.504 156.68 836.414 155.109 839.215 155.109C841.852 155.109 843.504 156.516 843.762 158.578H841.793ZM851.965 168.258C848.285 168.27 846.012 165.645 846.012 161.742C846.012 157.828 848.32 155.109 851.777 155.109C854.449 155.109 857.273 156.75 857.262 161.461V162.305H848.027C848.133 165 849.703 166.477 851.965 166.477C853.488 166.477 854.449 165.809 854.918 165.023H857.074C856.477 166.957 854.59 168.27 851.965 168.258ZM848.039 160.594H855.223C855.211 158.473 853.875 156.891 851.777 156.891C849.574 156.891 848.18 158.625 848.039 160.594ZM859.277 164.391C859.277 161.473 861.855 160.805 864.059 160.641C864.879 160.582 866.93 160.465 867.504 160.453V159.422C867.504 157.805 866.543 156.867 864.621 156.867C863.016 156.867 862.043 157.605 861.762 158.578H859.652C859.91 156.527 861.902 155.109 864.715 155.109C866.379 155.109 869.508 155.602 869.496 159.609V168H867.504V166.266H867.41C866.988 167.121 865.828 168.293 863.613 168.305C861.199 168.293 859.277 166.875 859.277 164.391ZM861.293 164.484C861.305 165.832 862.418 166.512 863.965 166.5C866.238 166.512 867.504 164.988 867.504 163.383V162.105C866.906 162.141 864.902 162.293 864.293 162.328C862.465 162.445 861.305 163.09 861.293 164.484ZM872.73 168V155.273H874.676V157.219H874.816C875.273 155.93 876.598 155.074 878.098 155.062C878.402 155.074 878.918 155.086 879.152 155.109V157.148C879 157.113 878.461 157.008 877.934 157.008C876.105 157.008 874.746 158.273 874.746 159.984V168H872.73ZM885.902 168.258C882.293 168.27 880.09 165.516 880.09 161.695C880.09 157.828 882.398 155.109 885.855 155.109C888.562 155.109 890.602 156.715 890.918 159.117H888.902C888.609 157.957 887.602 156.891 885.902 156.891C883.629 156.891 882.117 158.766 882.105 161.625C882.117 164.566 883.594 166.453 885.902 166.453C887.402 166.453 888.551 165.645 888.902 164.25H890.918C890.602 166.523 888.727 168.27 885.902 168.258ZM895.418 160.359V168H893.402V151.031H895.418V157.266H895.582C896.18 155.953 897.316 155.109 899.332 155.109C901.934 155.109 903.668 156.645 903.668 159.914V168H901.652V160.055C901.652 158.051 900.551 156.914 898.723 156.914C896.824 156.914 895.418 158.156 895.418 160.359ZM925.184 158.742V160.195H906.105V158.742H925.184ZM908.402 163.242V161.859H922.793V166.289H910.277V168.281H923.473V169.617H908.426V165.023H920.965V163.242H908.402ZM908.52 151.031V149.695H922.723V154.008H910.418V155.836H923.098V157.172H908.59V152.742H920.871V151.031H908.52ZM949.02 149.062V157.266H952.512V158.859H949.02V169.898H947.191V149.062H949.02ZM933.762 164.906V150.844H935.59V156.352H941.684V150.844H943.512V164.906H933.762ZM935.59 163.359H941.684V157.828H935.59V163.359ZM969.926 149.062V154.5H973.066V156.023H969.926V161.883H968.098V149.062H969.926ZM954.621 160.453V150.539H964.207V152.039H956.449V154.711H963.809V156.188H956.449V158.953C960.516 158.965 962.824 158.859 965.566 158.391L965.777 159.867C962.906 160.395 960.504 160.477 956.191 160.453H954.621ZM956.379 166.148C956.355 163.77 958.992 162.41 963.293 162.422C967.559 162.41 970.16 163.77 970.16 166.148C970.16 168.516 967.559 169.852 963.293 169.852C958.992 169.852 956.355 168.516 956.379 166.148ZM958.207 166.148C958.195 167.566 960.105 168.434 963.293 168.422C966.422 168.434 968.344 167.566 968.332 166.148C968.344 164.719 966.422 163.875 963.293 163.875C960.105 163.875 958.195 164.719 958.207 166.148ZM983.871 150.422C988.219 150.434 991.488 152.707 991.488 156.141C991.488 159.609 988.219 161.883 983.871 161.859C979.523 161.883 976.254 159.609 976.254 156.141C976.254 152.707 979.523 150.434 983.871 150.422ZM974.379 167.133V165.586H993.457V167.133H974.379ZM978.012 156.141C977.988 158.672 980.508 160.359 983.871 160.359C987.211 160.359 989.707 158.672 989.707 156.141C989.707 153.645 987.211 151.91 983.871 151.922C980.508 151.91 977.988 153.645 978.012 156.141ZM1014.2 165.773V167.32H995.121V165.773H1003.7V161.836H997.512V155.414H1009.98V152.133H997.465V150.609H1011.79V156.914H999.34V160.312H1012.28V161.836H1005.5V165.773H1014.2ZM1028.87 154.664C1028.87 158.332 1031.3 162.117 1034.26 163.57L1033.14 165.047C1030.84 163.852 1028.92 161.379 1027.99 158.484C1027.07 161.555 1025.1 164.191 1022.75 165.445L1021.58 163.969C1024.63 162.469 1027.04 158.473 1027.07 154.664V150.867H1028.87V154.664ZM1036.18 169.898V149.062H1038.01V157.523H1041.5V159.117H1038.01V169.898H1036.18ZM1061.61 159.375V160.898H1042.63V159.375H1047.34V156.434C1045.68 155.789 1044.74 154.734 1044.74 153.328C1044.74 150.879 1047.55 149.473 1052.12 149.461C1056.66 149.473 1059.47 150.879 1059.48 153.328C1059.47 154.723 1058.54 155.777 1056.9 156.434V159.375H1061.61ZM1044.93 166.172C1044.91 163.793 1047.6 162.48 1052.12 162.492C1056.59 162.48 1059.27 163.793 1059.29 166.172C1059.27 168.551 1056.59 169.852 1052.12 169.852C1047.6 169.852 1044.91 168.551 1044.93 166.172ZM1046.64 153.328C1046.62 154.852 1048.71 155.73 1052.12 155.742C1055.5 155.73 1057.59 154.852 1057.61 153.328C1057.59 151.828 1055.5 150.914 1052.12 150.914C1048.71 150.914 1046.62 151.828 1046.64 153.328ZM1046.8 166.172C1046.78 167.59 1048.78 168.434 1052.12 168.422C1055.43 168.434 1057.43 167.59 1057.44 166.172C1057.43 164.754 1055.43 163.922 1052.12 163.898C1048.78 163.922 1046.78 164.754 1046.8 166.172ZM1049.17 159.375H1055.07V156.926C1054.2 157.09 1053.21 157.172 1052.12 157.172C1051.03 157.172 1050.05 157.09 1049.17 156.938V159.375ZM1070.43 155.461C1070.4 158.801 1072.82 162.48 1075.84 163.922L1074.79 165.375C1072.44 164.227 1070.46 161.766 1069.52 158.941C1068.56 162 1066.48 164.695 1064.14 165.891L1063.02 164.438C1066.02 162.973 1068.6 159.012 1068.62 155.461V152.742H1063.77V151.219H1075.11V152.742H1070.43V155.461ZM1077.67 169.898V149.062H1079.5V157.5H1082.99V159.07H1079.5V169.898H1077.67ZM1103.12 157.828V159.305H1084.11V157.828H1103.12ZM1086.41 162.609V161.18H1100.66V166.008H1088.29V168.164H1101.29V169.664H1086.46V164.625H1098.86V162.609H1086.41ZM1086.64 156.117V149.789H1100.64V151.266H1088.5V154.617H1100.85V156.117H1086.64ZM1111.68 150.586C1114.95 150.598 1117.27 152.59 1117.28 155.484C1117.27 158.391 1114.95 160.371 1111.68 160.383C1108.38 160.371 1106.04 158.391 1106.05 155.484C1106.04 152.59 1108.38 150.598 1111.68 150.586ZM1104.97 163.781C1108.82 163.793 1114.12 163.758 1118.73 163.078L1118.87 164.438C1114.1 165.328 1108.98 165.352 1105.23 165.352L1104.97 163.781ZM1107.86 155.484C1107.84 157.43 1109.45 158.766 1111.68 158.766C1113.88 158.766 1115.48 157.43 1115.47 155.484C1115.48 153.551 1113.88 152.203 1111.68 152.203C1109.45 152.203 1107.84 153.551 1107.86 155.484ZM1120.11 169.945V149.062H1121.94V169.945H1120.11ZM1132.65 168V151.031H1138.42C1142.39 151.031 1144.21 153.398 1144.21 156.422C1144.21 159.434 1142.39 161.836 1138.44 161.836H1134.76V168H1132.65ZM1134.76 159.961H1138.35C1141.05 159.961 1142.11 158.438 1142.12 156.422C1142.11 154.395 1141.05 152.906 1138.32 152.906H1134.76V159.961ZM1146.27 164.391C1146.27 161.473 1148.85 160.805 1151.05 160.641C1151.87 160.582 1153.92 160.465 1154.5 160.453V159.422C1154.5 157.805 1153.54 156.867 1151.61 156.867C1150.01 156.867 1149.04 157.605 1148.75 158.578H1146.64C1146.9 156.527 1148.89 155.109 1151.71 155.109C1153.37 155.109 1156.5 155.602 1156.49 159.609V168H1154.5V166.266H1154.4C1153.98 167.121 1152.82 168.293 1150.61 168.305C1148.19 168.293 1146.27 166.875 1146.27 164.391ZM1148.29 164.484C1148.3 165.832 1149.41 166.512 1150.96 166.5C1153.23 166.512 1154.5 164.988 1154.5 163.383V162.105C1153.9 162.141 1151.89 162.293 1151.29 162.328C1149.46 162.445 1148.3 163.09 1148.29 164.484ZM1159.72 168V155.273H1161.74V168H1159.72ZM1159.32 151.828C1159.31 151.078 1159.96 150.48 1160.73 150.492C1161.5 150.48 1162.15 151.078 1162.16 151.828C1162.15 152.566 1161.5 153.164 1160.73 153.164C1159.96 153.164 1159.31 152.566 1159.32 151.828ZM1166.96 160.359V168H1164.95V155.273H1166.89V157.266H1167.06C1167.66 155.965 1168.85 155.109 1170.79 155.109C1173.36 155.109 1175.09 156.68 1175.07 159.914V168H1173.06V160.055C1173.06 158.086 1171.98 156.914 1170.18 156.914C1168.32 156.914 1166.96 158.156 1166.96 160.359ZM1184.59 168V151.031H1190.36C1194.33 151.031 1196.14 153.398 1196.14 156.422C1196.14 159.434 1194.33 161.836 1190.38 161.836H1186.7V168H1184.59ZM1186.7 159.961H1190.29C1192.99 159.961 1194.05 158.438 1194.06 156.422C1194.05 154.395 1192.99 152.906 1190.26 152.906H1186.7V159.961ZM1203.9 168.258C1200.43 168.27 1198.09 165.645 1198.09 161.695C1198.09 157.723 1200.43 155.109 1203.9 155.109C1207.36 155.109 1209.68 157.723 1209.67 161.695C1209.68 165.645 1207.36 168.27 1203.9 168.258ZM1200.11 161.695C1200.12 164.238 1201.31 166.477 1203.9 166.477C1206.47 166.477 1207.65 164.238 1207.65 161.695C1207.65 159.164 1206.47 156.891 1203.9 156.891C1201.31 156.891 1200.12 159.164 1200.11 161.695ZM1212.32 168V155.273H1214.33V168H1212.32ZM1211.92 151.828C1211.91 151.078 1212.55 150.48 1213.32 150.492C1214.1 150.48 1214.74 151.078 1214.75 151.828C1214.74 152.566 1214.1 153.164 1213.32 153.164C1212.55 153.164 1211.91 152.566 1211.92 151.828ZM1219.56 160.359V168H1217.54V155.273H1219.49V157.266H1219.65C1220.25 155.965 1221.45 155.109 1223.38 155.109C1225.96 155.109 1227.68 156.68 1227.67 159.914V168H1225.65V160.055C1225.65 158.086 1224.57 156.914 1222.77 156.914C1220.92 156.914 1219.56 158.156 1219.56 160.359ZM1236.46 155.273V156.961H1233.79V164.344C1233.77 165.973 1234.59 166.242 1235.45 166.242C1235.81 166.242 1236.35 166.207 1236.64 166.195V168.07C1236.33 168.117 1235.84 168.164 1235.24 168.164C1233.54 168.164 1231.76 167.109 1231.75 164.859V156.961H1229.82V155.273H1231.75V152.227H1233.79V155.273H1236.46ZM1257.34 158.742V160.195H1238.26V158.742H1257.34ZM1240.56 163.242V161.859H1254.95V166.289H1242.43V168.281H1255.63V169.617H1240.58V165.023H1253.12V163.242H1240.56ZM1240.68 151.031V149.695H1254.88V154.008H1242.57V155.836H1255.25V157.172H1240.75V152.742H1253.03V151.031H1240.68ZM1281.88 158.836V160.336H1275.43V165.727H1284.13V167.273H1265.05V165.727H1273.63V160.336H1267.49V150.773H1281.67V152.273H1269.34V158.836H1281.88ZM1304.78 158.344V159.773H1296.18V161.719H1302.34V166.219H1289.96V168.258H1302.97V169.664H1288.14V164.906H1300.54V163.102H1288.09V161.719H1294.37V159.773H1285.82V158.344H1304.78ZM1286.82 155.977C1290.64 155.73 1293.9 154.43 1294.24 152.344H1287.76V150.891H1294.37V148.945H1296.18V150.891H1302.86V152.344H1296.32C1296.64 154.43 1299.9 155.73 1303.75 155.977L1303.18 157.383C1299.7 157.09 1296.56 156.012 1295.29 154.031C1294 156.012 1290.86 157.09 1287.36 157.383L1286.82 155.977ZM1324.23 149.086V162H1322.47V156.352H1319.75V161.672H1318V149.414H1319.75V154.828H1322.47V149.086H1324.23ZM1306.42 152.977V151.453H1310.87V149.156H1312.7V151.453H1317.11V152.977H1306.42ZM1307.33 157.594C1307.32 155.402 1309.16 154.031 1311.79 154.031C1314.42 154.031 1316.25 155.402 1316.26 157.594C1316.25 159.727 1314.42 161.156 1311.79 161.156C1309.16 161.156 1307.32 159.727 1307.33 157.594ZM1307.87 168.258C1310.48 167.367 1312.1 165.234 1312.11 163.336V162.586H1313.92V163.336C1313.89 165.117 1314.87 166.98 1316.84 168.047C1318.82 166.875 1319.82 164.859 1319.85 163.336V162.586H1321.65V163.336C1321.64 165.363 1323.22 167.438 1325.89 168.258L1325.03 169.664C1322.93 168.938 1321.45 167.52 1320.73 165.82C1320.09 167.461 1318.83 169.043 1316.87 169.828C1314.87 169.078 1313.59 167.602 1312.96 165.914C1312.2 167.531 1310.75 168.938 1308.76 169.664L1307.87 168.258ZM1308.97 157.594C1308.97 158.906 1310.12 159.762 1311.79 159.773C1313.45 159.762 1314.6 158.906 1314.6 157.594C1314.6 156.246 1313.45 155.402 1311.79 155.414C1310.12 155.402 1308.97 156.246 1308.97 157.594ZM1331.52 161.578V164.016H1341.93V161.578H1343.78V169.617H1329.69V161.578H1331.52ZM1327.28 160.102V158.578H1346.26V160.102H1327.28ZM1328.36 155.625C1332.07 155.121 1335.83 152.93 1335.83 150.281V149.297H1337.73V150.281C1337.72 152.848 1341.52 155.156 1345.18 155.625L1344.5 157.102C1341.28 156.621 1338.11 154.98 1336.78 152.648C1335.46 154.992 1332.27 156.621 1329.06 157.102L1328.36 155.625ZM1331.52 168.141H1341.93V165.469H1331.52V168.141ZM1365.2 149.062V169.898H1363.37V149.062H1365.2ZM1349.38 164.531V151.125H1351.18V162.938C1354.37 162.914 1357.65 162.668 1361.14 161.93L1361.4 163.5C1357.7 164.273 1354.41 164.531 1351.07 164.531H1349.38ZM1384.89 149.062V157.312H1388.38V158.859H1384.89V169.945H1383.06V149.062H1384.89ZM1369.68 164.719V151.102H1379.4V152.625H1371.5V163.172C1375.28 163.16 1377.94 162.996 1381.04 162.422L1381.28 164.016C1378.01 164.602 1375.28 164.719 1371.32 164.719H1369.68ZM1391.71 168.141C1390.89 168.129 1390.18 167.449 1390.21 166.617C1390.18 165.797 1390.89 165.117 1391.71 165.117C1392.54 165.117 1393.22 165.797 1393.21 166.617C1393.22 167.449 1392.54 168.129 1391.71 168.141Z" fill="white"/>
<circle cx="959" cy="210" r="6" fill="white" fill-opacity="0.9"/>
<circle cx="959" cy="254" r="6" fill="white" fill-opacity="0.6"/>
<circle cx="959" cy="298" r="6" fill="white" fill-opacity="0.3"/>
<rect x="200" y="400" width="450" height="160" rx="80" fill="#4ECB69"/>
<rect x="785" y="400" width="350" height="160" rx="80" fill="#4ECB69"/>
<g filter="url(#filter0_d_35_414)">
<rect x="519" y="818" width="883" height="208" rx="104" fill="white"/>
</g>
<rect x="851" y="736" width="218" height="60" rx="30" fill="#4ECB69"/>
<rect x="1320" y="400" width="350" height="160" rx="80" fill="#4ECB69"/>
<circle cx="427" cy="354" r="20" fill="#29AE45"/>
<path d="M430.531 342.375V365H425.812V346.844H425.688L420.5 350.094V345.938L426.094 342.375H430.531Z" fill="white"/>
<circle cx="959" cy="354" r="20" fill="#29AE45"/>
<path d="M951.016 365L950.984 361.594L959.109 354.125C961.219 352.109 962.359 350.859 962.359 349.062C962.359 347.047 960.844 345.797 958.766 345.812C956.641 345.797 955.25 347.141 955.266 349.312H950.797C950.781 344.891 954.062 342.062 958.828 342.062C963.672 342.062 966.891 344.828 966.891 348.75C966.891 351.328 965.641 353.438 960.984 357.656L957.547 361V361.125H967.203V365H951.016Z" fill="white"/>
<circle cx="1493" cy="354" r="20" fill="#29AE45"/>
<path d="M1492.44 365.312C1487.47 365.312 1483.91 362.578 1483.81 358.625H1488.56C1488.64 360.312 1490.28 361.422 1492.47 361.438C1494.72 361.422 1496.33 360.172 1496.31 358.344C1496.33 356.5 1494.69 355.203 1492.03 355.188H1489.94V351.719H1492.03C1494.27 351.719 1495.83 350.5 1495.81 348.719C1495.83 346.984 1494.5 345.797 1492.5 345.812C1490.5 345.797 1488.86 346.922 1488.78 348.656H1484.28C1484.36 344.766 1487.86 342.062 1492.5 342.062C1497.22 342.062 1500.36 344.859 1500.34 348.438C1500.36 350.969 1498.59 352.766 1496.06 353.219V353.406C1499.39 353.812 1501.22 355.828 1501.19 358.656C1501.22 362.531 1497.55 365.312 1492.44 365.312Z" fill="white"/>
<path d="M953.747 578V723M953.747 723L1503 578M953.747 723L418 578" stroke="url(#paint1_linear_35_414)" stroke-width="2" stroke-linejoin="round" stroke-dasharray="9 9"/>
<path d="M261.266 444.656V455.812H265.609V458.281H261.266V472.625H258.297V444.656H261.266ZM239.484 465.156C246.5 461.656 250.312 456.594 250.922 450.062H240.891V447.594H253.953C253.922 455.688 250.359 462.922 241.141 467.469L239.484 465.156ZM289.391 446.406V448.875C289.391 451.531 289.391 454.422 288.609 458.406H292.641V460.844H281.297V472.688H278.297V460.844H267.109V458.406H285.609C286.438 454.406 286.438 451.484 286.453 448.875V448.844H270.234V446.406H289.391ZM303.891 446.656C308.312 446.641 311.5 449.375 311.516 453.312C311.5 457.25 308.312 459.984 303.891 460C299.484 459.984 296.25 457.25 296.266 453.312C296.25 449.375 299.484 446.641 303.891 446.656ZM294.922 464.219C300.016 464.219 307.078 464.172 313.203 463.281L313.422 465.438C307.094 466.656 300.297 466.688 295.297 466.688L294.922 464.219ZM299.203 453.312C299.172 455.797 301.172 457.406 303.891 457.406C306.609 457.406 308.609 455.797 308.609 453.312C308.609 450.859 306.609 449.219 303.891 449.219C301.172 449.219 299.172 450.859 299.203 453.312ZM314.953 472.719V444.656H317.922V472.719H314.953ZM352.047 444.656V455.812H356.391V458.281H352.047V472.625H349.078V444.656H352.047ZM330.266 465.156C337.281 461.656 341.094 456.594 341.703 450.062H331.672V447.594H344.734C344.703 455.688 341.141 462.922 331.922 467.469L330.266 465.156ZM372.734 446.5C372.734 447.562 372.625 448.562 372.422 449.531H378.266V444.688H381.234V461.344H378.266V457.844H371.203V455.438H378.266V451.906H371.672C369.781 456.297 365.469 459.438 359.422 461.062L358.297 458.719C364.953 456.922 369 453.359 369.547 448.906H359.766V446.5H372.734ZM362.266 464.906V462.562H381.234V472.594H378.266V464.906H362.266ZM398.297 445.125C404.609 445.109 408.281 446.812 408.297 449.938C408.281 453.078 404.609 454.781 398.297 454.781C391.984 454.781 388.281 453.078 388.297 449.938C388.281 446.812 391.984 445.109 398.297 445.125ZM385.547 458.875V456.5H411.078V458.875H385.547ZM388.609 463.25V461.031H407.859V467.594H391.547V470.094H408.641V472.375H388.641V465.438H404.922V463.25H388.609ZM391.391 449.938C391.375 451.672 393.844 452.562 398.297 452.562C402.781 452.562 405.25 451.672 405.234 449.938C405.25 448.281 402.781 447.312 398.297 447.312C393.844 447.312 391.375 448.281 391.391 449.938ZM446.609 461.125V463.469H435.172V472.656H432.266V463.469H420.984V461.125H446.609ZM424.172 457.938V445.781H427.109V449.438H440.422V445.781H443.391V457.938H424.172ZM427.109 455.562H440.422V451.812H427.109V455.562ZM470.672 444.656V451.312H474.734V453.781H470.672V460.469H467.703V444.656H470.672ZM449.922 459.031V446.5H462.359V448.906H452.859V456.625C458.312 456.625 461.375 456.406 464.891 455.719L465.234 458.094C461.453 458.891 458.141 459.031 452.141 459.031H449.922ZM452.797 472.281V461.844H470.672V472.281H452.797ZM455.703 469.906H467.734V464.219H455.703V469.906ZM490.547 448.625C490.547 453.188 495.406 457.5 500.797 458.469L499.422 460.938C494.938 459.969 490.828 457.031 489.016 453.094C487.172 457.016 483.062 459.938 478.578 460.938L477.266 458.469C482.578 457.469 487.406 453.188 487.422 448.625V446.5H490.547V448.625ZM476.328 468.969V466.5H501.953V468.969H476.328ZM527.297 444.656V472.719H524.359V457.656H519.234V455.188H524.359V444.656H527.297ZM504.953 449.594V447.188H517.578V457.188H507.984V463.562C512.453 463.531 515.891 463.391 519.797 462.688L520.047 465.125C515.859 465.859 512.172 466.031 507.234 466.062H505.016V454.781H514.703V449.594H504.953ZM555.047 444.688V472.656H552.047V465.969H545.859V463.719H552.047V444.688H555.047ZM531.516 459.25C536.828 459.219 543.875 459.203 550.016 458.344L550.172 460.531C547.5 461 544.734 461.281 542.047 461.453V471.781H539.078V461.594C536.516 461.688 534.078 461.719 531.922 461.719L531.516 459.25ZM533.578 451.562C533.594 448.25 536.531 445.969 540.734 445.969C544.875 445.969 547.828 448.25 547.828 451.562C547.828 454.938 544.875 457.109 540.734 457.125C536.531 457.109 533.594 454.938 533.578 451.562ZM536.391 451.562C536.375 453.562 538.156 454.859 540.734 454.844C543.219 454.859 545 453.562 545.016 451.562C545 449.594 543.234 448.266 540.734 448.25C538.156 448.266 536.375 449.594 536.391 451.562ZM581.109 444.656V456H585.609V458.469H581.109V472.656H578.172V444.656H581.109ZM559.141 451.469V449.031H566.047V445.031H569.016V449.031H575.734V451.469H559.141ZM560.578 460.031C560.578 456.219 563.516 453.531 567.547 453.531C571.562 453.531 574.5 456.219 574.516 460.031C574.5 463.875 571.562 466.547 567.547 466.562C563.516 466.547 560.578 463.875 560.578 460.031ZM563.422 460.031C563.406 462.469 565.156 464.094 567.547 464.062C569.922 464.094 571.656 462.469 571.672 460.031C571.656 457.641 569.922 455.984 567.547 455.969C565.156 455.984 563.406 457.641 563.422 460.031ZM609.609 452.844V455.219H590.328V445.656H593.266V452.844H609.609ZM586.922 461.125V458.75H612.547V461.125H586.922ZM590.109 472V463.781H593.078V469.562H609.797V472H590.109ZM384.031 492.375V515H380.562V495.812H380.438L375.031 499.344V496.062L380.656 492.375H384.031ZM412.031 489.688V510.031H409.062V489.688H412.031ZM389.375 498.5C389.391 494.453 392.609 491.578 396.844 491.562C401.062 491.578 404.281 494.453 404.281 498.5C404.281 502.609 401.062 505.469 396.844 505.469C392.609 505.469 389.391 502.609 389.375 498.5ZM392.281 498.5C392.266 501.141 394.234 502.875 396.844 502.875C399.406 502.875 401.375 501.141 401.375 498.5C401.375 495.922 399.406 494.156 396.844 494.156C394.234 494.156 392.266 495.922 392.281 498.5ZM393.719 517.062V507.969H396.719V514.656H412.875V517.062H393.719ZM446.094 489.656V500.812H450.438V503.281H446.094V517.625H443.125V489.656H446.094ZM424.312 510.156C431.328 506.656 435.141 501.594 435.75 495.062H425.719V492.594H438.781C438.75 500.688 435.188 507.922 425.969 512.469L424.312 510.156ZM474.219 491.406V493.875C474.219 496.531 474.219 499.422 473.438 503.406H477.469V505.844H466.125V517.688H463.125V505.844H451.938V503.406H470.438C471.266 499.406 471.266 496.484 471.281 493.875V493.844H455.062V491.406H474.219Z" fill="white"/>
<path d="M902.203 430.375V453H898.734V433.812H898.609L893.203 437.344V434.062L898.828 430.375H902.203ZM930.203 427.688V448.031H927.234V427.688H930.203ZM907.547 436.5C907.562 432.453 910.781 429.578 915.016 429.562C919.234 429.578 922.453 432.453 922.453 436.5C922.453 440.609 919.234 443.469 915.016 443.469C910.781 443.469 907.562 440.609 907.547 436.5ZM910.453 436.5C910.438 439.141 912.406 440.875 915.016 440.875C917.578 440.875 919.547 439.141 919.547 436.5C919.547 433.922 917.578 432.156 915.016 432.156C912.406 432.156 910.438 433.922 910.453 436.5ZM911.891 455.062V445.969H914.891V452.656H931.047V455.062H911.891ZM964.266 427.656V438.812H968.609V441.281H964.266V455.625H961.297V427.656H964.266ZM942.484 448.156C949.5 444.656 953.312 439.594 953.922 433.062H943.891V430.594H956.953C956.922 438.688 953.359 445.922 944.141 450.469L942.484 448.156ZM992.391 429.406V431.875C992.391 434.531 992.391 437.422 991.609 441.406H995.641V443.844H984.297V455.688H981.297V443.844H970.109V441.406H988.609C989.438 437.406 989.438 434.484 989.453 431.875V431.844H973.234V429.406H992.391ZM1006.89 429.656C1011.31 429.641 1014.5 432.375 1014.52 436.312C1014.5 440.25 1011.31 442.984 1006.89 443C1002.48 442.984 999.25 440.25 999.266 436.312C999.25 432.375 1002.48 429.641 1006.89 429.656ZM997.922 447.219C1003.02 447.219 1010.08 447.172 1016.2 446.281L1016.42 448.438C1010.09 449.656 1003.3 449.688 998.297 449.688L997.922 447.219ZM1002.2 436.312C1002.17 438.797 1004.17 440.406 1006.89 440.406C1009.61 440.406 1011.61 438.797 1011.61 436.312C1011.61 433.859 1009.61 432.219 1006.89 432.219C1004.17 432.219 1002.17 433.859 1002.2 436.312ZM1017.95 455.719V427.656H1020.92V455.719H1017.95ZM893.875 494.656V497.094H868.25V494.656H879.469V488H882.406V494.656H893.875ZM869.125 486.062C874.516 485.156 879.328 481 879.344 476.562V474.438H882.469V476.562C882.469 481 887.344 485.156 892.75 486.062L891.469 488.5C886.922 487.609 882.766 484.797 880.922 480.969C879.078 484.781 874.953 487.609 870.438 488.5L869.125 486.062ZM919.094 472.656V500.719H916.125V472.656H919.094ZM897.469 494V475H900.438V482.188H907.969V475H910.906V494H897.469ZM900.438 491.562H907.969V484.531H900.438V491.562ZM955.469 472.656V500.656H952.625V486.219H949.312V499.219H946.5V473.219H949.312V483.781H952.625V472.656H955.469ZM931.062 491.406C931.891 491.406 932.844 491.406 933.875 491.391V478.5H931.656V476.062H944.656V478.5H942.438V491.047C943.375 490.953 944.281 490.859 945.125 490.75L945.281 492.938C940.875 493.781 935.016 493.906 931.406 493.906L931.062 491.406ZM936.594 491.344C937.625 491.312 938.672 491.281 939.719 491.219V478.5H936.594V491.344ZM982.375 472.688V493.406H979.406V482.844H974.156V480.438H979.406V472.688H982.375ZM960.438 489.219V474.844H973.125V477.25H963.375V480.719H972.312V483.062H963.375V486.75C968.172 486.75 971.031 486.641 974.438 486.031L974.719 488.438C971.047 489.094 967.922 489.219 962.531 489.219H960.438ZM964.125 500.062V491.625H967.125V497.656H983.094V500.062H964.125ZM1017.84 472.688V493.375H1014.88V486.094H1008.75V488.719H995.844V474.531H998.812V479.281H1005.81V474.531H1008.75V477.656H1014.88V472.688H1017.84ZM998.812 486.312H1005.81V481.562H998.812V486.312ZM999.562 500.062V491.344H1002.56V497.656H1018.47V500.062H999.562ZM1008.75 483.688H1014.88V480.094H1008.75V483.688ZM1044.09 472.656V484.375H1048.31V486.875H1044.09V500.656H1041.12V472.656H1044.09ZM1021.81 493.031C1024.02 493.031 1026.58 493.031 1029.25 492.953V490.109C1026.09 489.641 1024.03 487.734 1024.06 485.031C1024.03 481.875 1026.77 479.797 1030.75 479.781C1034.72 479.797 1037.48 481.875 1037.5 485.031C1037.48 487.734 1035.39 489.656 1032.22 490.109V492.844C1034.7 492.719 1037.2 492.516 1039.53 492.188L1039.72 494.375C1033.66 495.453 1027.11 495.516 1022.28 495.5L1021.81 493.031ZM1022.34 478.344V475.969H1029.25V472.719H1032.22V475.969H1039.12V478.344H1022.34ZM1026.84 485.031C1026.84 486.812 1028.41 487.922 1030.75 487.906C1033.09 487.922 1034.64 486.812 1034.66 485.031C1034.64 483.234 1033.09 482.094 1030.75 482.094C1028.41 482.094 1026.84 483.234 1026.84 485.031Z" fill="white"/>
<path d="M879.252 531.609C879.271 527.928 880.268 524.861 882.064 522.254H883.549C882.23 524.178 881 528.133 880.99 531.609C881 535.096 882.23 539.041 883.549 540.984H882.064C880.268 538.367 879.271 535.301 879.252 531.609ZM898.432 521.219V528.289H901.244V529.578H898.432V538.582H896.908V521.219H898.432ZM885.111 534.07C889.594 531.844 892.035 528.494 892.387 524.383H885.912V523.094H893.939C893.93 528.006 891.625 532.488 885.971 535.281L885.111 534.07ZM916.596 521.219V538.582H915.053V521.219H916.596ZM902.631 534.031C905.209 532.859 907.182 529.93 907.182 526.883V525.496H903.1V524.246H907.162V521.551H908.686V524.246H912.729V525.496H908.686V526.883C908.686 529.793 910.717 532.605 913.334 533.719L912.475 534.91C910.463 534.021 908.773 532.146 907.963 529.852C907.182 532.273 905.502 534.275 903.49 535.223L902.631 534.031ZM935.463 535.047V536.316H919.564V535.047H926.674V530.789H928.178V535.047H935.463ZM920.189 529.715C923.227 529.197 926.605 526.658 926.615 523.738V522.41H928.217V523.738C928.227 526.639 931.654 529.197 934.682 529.715L933.998 530.984C931.352 530.438 928.559 528.65 927.436 526.15C926.293 528.641 923.529 530.438 920.873 530.984L920.189 529.715ZM951.166 521.219V538.621H949.623V521.219H951.166ZM937.865 534.422V522.703H939.389V527.293H944.564V522.703H946.068V534.422H937.865ZM939.389 533.133H944.564V528.523H939.389V533.133ZM956.986 535.691L955.463 541.004H954.018L955.092 535.691H956.986ZM972.182 521.668C975.893 521.678 978.295 523.006 978.295 525.145C978.295 527.273 975.893 528.592 972.182 528.582C968.471 528.592 966.039 527.273 966.049 525.145C966.039 523.006 968.471 521.678 972.182 521.668ZM964.271 531.199V529.93H980.111V531.199H976.049V534.812H974.525V531.199H971.322V534.812H969.799V531.199H964.271ZM966.225 538.211V533.348H967.768V536.922H978.471V538.211H966.225ZM967.689 525.145C967.67 526.502 969.477 527.342 972.182 527.352C974.877 527.342 976.674 526.502 976.674 525.145C976.674 523.777 974.877 522.928 972.182 522.918C969.477 522.928 967.67 523.777 967.689 525.145ZM995.893 521.219V538.621H994.369V521.219H995.893ZM982.533 524.109V522.84H990.619V529.012H984.135V533.113C987.016 533.123 989.584 532.986 992.689 532.488L992.846 533.777C989.652 534.275 987.016 534.402 984.018 534.402H982.572V527.762H989.076V524.109H982.533ZM1014.74 535.047V536.316H998.842V535.047H1005.95V530.789H1007.46V535.047H1014.74ZM999.467 529.715C1002.5 529.197 1005.88 526.658 1005.89 523.738V522.41H1007.49V523.738C1007.5 526.639 1010.93 529.197 1013.96 529.715L1013.28 530.984C1010.63 530.438 1007.84 528.65 1006.71 526.15C1005.57 528.641 1002.81 530.438 1000.15 530.984L999.467 529.715ZM1030.44 521.219V538.621H1028.9V521.219H1030.44ZM1017.14 534.422V522.703H1018.67V527.293H1023.84V522.703H1025.35V534.422H1017.14ZM1018.67 533.133H1023.84V528.523H1018.67V533.133ZM1037.75 531.609C1037.73 535.301 1036.73 538.367 1034.94 540.984H1033.45C1034.77 539.041 1036 535.096 1036.01 531.609C1036 528.133 1034.77 524.178 1033.45 522.254H1034.94C1036.73 524.861 1037.73 527.928 1037.75 531.609Z" fill="white"/>
<path d="M1374.89 488.25C1380.95 488.25 1384.78 490.172 1384.8 493.438C1384.78 496.688 1380.95 498.609 1374.89 498.594C1368.89 498.609 1365.05 496.688 1365.05 493.438C1365.05 490.172 1368.89 488.25 1374.89 488.25ZM1362.3 485.938V483.531H1372.52V478.281H1375.42V483.531H1387.77V485.938H1362.3ZM1365.27 474.406V472.031H1384.58V474.375C1384.59 476.609 1384.59 478.922 1383.8 481.812L1380.89 481.5C1381.64 478.641 1381.64 476.578 1381.64 474.406H1365.27ZM1368.02 493.438C1367.98 495.25 1370.66 496.297 1374.89 496.312C1379.17 496.297 1381.83 495.25 1381.86 493.438C1381.83 491.594 1379.17 490.516 1374.89 490.5C1370.66 490.516 1367.98 491.594 1368.02 493.438ZM1415.52 486.469V488.906H1409.02V498.656H1406.02V488.906H1399.33V498.656H1396.27V488.906H1389.89V486.469H1415.52ZM1392.67 477.906C1392.69 474.125 1396.72 471.719 1402.64 471.719C1408.56 471.719 1412.62 474.125 1412.61 477.906C1412.62 481.641 1408.56 484 1402.64 483.969C1396.72 484 1392.69 481.641 1392.67 477.906ZM1395.73 477.906C1395.72 480.203 1398.48 481.625 1402.64 481.625C1406.81 481.625 1409.56 480.203 1409.58 477.906C1409.56 475.547 1406.81 474.109 1402.64 474.094C1398.48 474.109 1395.72 475.547 1395.73 477.906ZM1440.92 470.688V487.25H1437.95V483.844H1430.89V481.406H1437.95V478H1431.19C1429.38 482.5 1425.17 485.672 1419.11 487.406L1417.92 485.094C1424.55 483.203 1428.42 479.641 1428.95 475.125H1419.36V472.688H1432.17C1432.17 473.719 1432.06 474.719 1431.88 475.656H1437.95V470.688H1440.92ZM1422.27 493.031C1422.27 489.641 1425.95 487.578 1431.7 487.562C1437.38 487.578 1441.09 489.641 1441.11 493.031C1441.09 496.438 1437.38 498.531 1431.7 498.531C1425.95 498.531 1422.27 496.438 1422.27 493.031ZM1425.2 493.031C1425.2 495 1427.7 496.141 1431.7 496.156C1435.62 496.141 1438.12 495 1438.14 493.031C1438.12 491.031 1435.62 489.891 1431.7 489.906C1427.7 489.891 1425.2 491.031 1425.2 493.031ZM1469.27 470.656V498.656H1466.42V470.656H1469.27ZM1444.83 490.938C1448.8 488.547 1450.81 483.453 1450.83 478.469V476.219H1445.67V473.812H1458.48V476.219H1453.67V478.469C1453.67 483.25 1455.61 488.047 1459.55 490.312L1457.77 492.5C1455.09 490.906 1453.27 488.047 1452.28 484.672C1451.28 488.328 1449.38 491.453 1446.64 493.156L1444.83 490.938ZM1456.42 483V480.562H1460.77V471.25H1463.58V497.25H1460.77V483H1456.42ZM1503.92 470.688V491.031H1500.95V470.688H1503.92ZM1481.27 479.5C1481.28 475.453 1484.5 472.578 1488.73 472.562C1492.95 472.578 1496.17 475.453 1496.17 479.5C1496.17 483.609 1492.95 486.469 1488.73 486.469C1484.5 486.469 1481.28 483.609 1481.27 479.5ZM1484.17 479.5C1484.16 482.141 1486.12 483.875 1488.73 483.875C1491.3 483.875 1493.27 482.141 1493.27 479.5C1493.27 476.922 1491.3 475.156 1488.73 475.156C1486.12 475.156 1484.16 476.922 1484.17 479.5ZM1485.61 498.062V488.969H1488.61V495.656H1504.77V498.062H1485.61ZM1518.55 474.688C1518.53 478.562 1521.16 482.109 1525.48 483.531L1523.98 485.875C1520.73 484.75 1518.31 482.469 1517.05 479.547C1515.8 482.672 1513.33 485.156 1510.02 486.344L1508.52 484.031C1512.88 482.484 1515.5 478.688 1515.52 474.688V472H1518.55V474.688ZM1512.61 491.219V488.812H1531.58V498.656H1528.61V491.219H1512.61ZM1528.61 487.469V470.656H1531.58V487.469H1528.61ZM1545.14 472.656C1549.56 472.641 1552.75 475.375 1552.77 479.312C1552.75 483.25 1549.56 485.984 1545.14 486C1540.73 485.984 1537.5 483.25 1537.52 479.312C1537.5 475.375 1540.73 472.641 1545.14 472.656ZM1536.17 490.219C1541.27 490.219 1548.33 490.172 1554.45 489.281L1554.67 491.438C1548.34 492.656 1541.55 492.688 1536.55 492.688L1536.17 490.219ZM1540.45 479.312C1540.42 481.797 1542.42 483.406 1545.14 483.406C1547.86 483.406 1549.86 481.797 1549.86 479.312C1549.86 476.859 1547.86 475.219 1545.14 475.219C1542.42 475.219 1540.42 476.859 1540.45 479.312ZM1556.2 498.719V470.656H1559.17V498.719H1556.2ZM1593.52 470.688V479H1597.52V481.438H1593.52V489.531H1590.55V470.688H1593.52ZM1571.3 486.406C1573.47 486.406 1575.98 486.406 1578.61 486.344V484.453C1575.42 484.094 1573.39 482.594 1573.42 480.344C1573.39 477.781 1576.06 476.188 1580.08 476.219C1584.09 476.188 1586.72 477.781 1586.73 480.344C1586.72 482.578 1584.73 484.078 1581.58 484.453V486.234C1584.08 486.109 1586.61 485.906 1588.95 485.562L1589.2 487.688C1583.19 488.734 1576.55 488.781 1571.61 488.781L1571.3 486.406ZM1572.02 475.281V473.062H1578.61V470.438H1581.58V473.062H1588.17V475.281H1572.02ZM1574.8 493.156V490.844H1593.52V498.656H1590.55V493.156H1574.8ZM1576.23 480.344C1576.23 481.656 1577.69 482.516 1580.08 482.5C1582.44 482.516 1583.91 481.656 1583.89 480.344C1583.91 479 1582.44 478.219 1580.08 478.25C1577.69 478.219 1576.23 479 1576.23 480.344ZM1608.86 475.781C1608.86 479.531 1611.47 483.062 1615.73 484.5L1614.2 486.844C1611.06 485.75 1608.72 483.516 1607.48 480.688C1606.27 483.844 1603.86 486.281 1600.58 487.5L1598.92 485.156C1603.36 483.641 1605.91 479.859 1605.92 475.688V472.375H1608.86V475.781ZM1603.42 498.062V489.281H1606.45V495.656H1622.36V498.062H1603.42ZM1618.17 491.281V470.625H1621.14V479.062H1625.2V481.594H1621.14V491.281H1618.17Z" fill="white"/>
<path d="M873.531 757.781V754.375H891.562V757.781H884.594V777H880.531V757.781H873.531ZM899.5 777.344C894.547 777.344 891.375 773.828 891.375 768.594C891.375 763.312 894.547 759.812 899.5 759.812C904.469 759.812 907.641 763.312 907.625 768.594C907.641 773.828 904.469 777.344 899.5 777.344ZM895.406 768.562C895.406 771.672 896.766 774.156 899.531 774.156C902.25 774.156 903.609 771.672 903.594 768.562C903.609 765.453 902.25 762.953 899.531 762.969C896.766 762.953 895.406 765.453 895.406 768.562ZM919.188 760.031V763.094H915.844V771.906C915.844 773.531 916.656 773.859 917.656 773.875C918.125 773.891 918.906 773.844 919.406 773.812V777.062C918.938 777.141 918.172 777.234 917.156 777.219C914.156 777.234 911.844 775.75 911.875 772.562V763.094H909.438V760.031H911.875V755.969H915.844V760.031H919.188ZM921.469 772.219C921.469 768.406 924.641 767.297 927.781 767.094C928.969 767 931.391 766.891 932.141 766.859L932.125 765.5C932.125 763.812 931.047 762.844 929.062 762.844C927.281 762.844 926.188 763.656 925.875 764.875H922.031C922.312 761.984 924.906 759.812 929.156 759.812C932.375 759.812 936.094 761.141 936.094 765.656V777H932.281V774.656H932.156C931.406 776.094 929.828 777.344 927.156 777.344C923.922 777.344 921.469 775.578 921.469 772.219ZM925.312 772.188C925.312 773.656 926.516 774.406 928.188 774.406C930.609 774.406 932.156 772.812 932.156 770.906L932.141 769.516C931.422 769.547 929.203 769.688 928.406 769.75C926.516 769.906 925.312 770.703 925.312 772.188ZM943.844 754.375V777H939.844V754.375H943.844ZM974.031 754.375V777H970.406L959.688 761.531H959.5V777H955.438V754.375H959.125L969.781 769.844H970V754.375H974.031ZM985.562 777.344C980.453 777.344 977.312 773.938 977.312 768.625C977.312 763.375 980.5 759.812 985.344 759.812C989.5 759.812 993.094 762.422 993.094 768.375V769.625H981.25C981.312 772.516 983.016 774.234 985.594 774.219C987.344 774.234 988.516 773.484 989.031 772.469H992.938C992.219 775.406 989.5 777.344 985.562 777.344ZM981.266 766.906H989.281C989.266 764.594 987.703 762.906 985.406 762.906C983.016 762.906 981.406 764.75 981.266 766.906ZM1003.72 777.344C998.609 777.344 995.469 773.938 995.469 768.625C995.469 763.375 998.656 759.812 1003.5 759.812C1007.66 759.812 1011.25 762.422 1011.25 768.375V769.625H999.406C999.469 772.516 1001.17 774.234 1003.75 774.219C1005.5 774.234 1006.67 773.484 1007.19 772.469H1011.09C1010.38 775.406 1007.66 777.344 1003.72 777.344ZM999.422 766.906H1007.44C1007.42 764.594 1005.86 762.906 1003.56 762.906C1001.17 762.906 999.562 764.75 999.422 766.906ZM1020.66 777.312C1016.67 777.297 1013.66 774.109 1013.66 768.531C1013.66 762.875 1016.75 759.812 1020.69 759.812C1023.67 759.812 1024.92 761.609 1025.53 762.812H1025.69V754.375H1029.66V777H1025.75V774.312H1025.53C1024.89 775.562 1023.59 777.297 1020.66 777.312ZM1017.72 768.5C1017.72 771.703 1019.12 774.031 1021.75 774.031C1024.33 774.031 1025.78 771.812 1025.78 768.5C1025.78 765.203 1024.34 763.078 1021.75 763.062C1019.09 763.078 1017.72 765.344 1017.72 768.5ZM1043.31 764.875C1043.06 763.594 1042 762.766 1040.31 762.781C1038.61 762.766 1037.36 763.625 1037.38 764.781C1037.36 765.656 1038.06 766.312 1039.78 766.719L1042.66 767.312C1045.86 768.016 1047.42 769.5 1047.44 771.938C1047.42 775.125 1044.62 777.344 1040.19 777.344C1035.88 777.344 1033.33 775.406 1032.91 772.156H1036.97C1037.2 773.609 1038.33 774.328 1040.19 774.312C1042.11 774.328 1043.36 773.547 1043.38 772.281C1043.36 771.297 1042.59 770.672 1040.91 770.312L1038.19 769.719C1035.03 769.078 1033.39 767.422 1033.41 765C1033.39 761.859 1036.11 759.812 1040.25 759.812C1044.3 759.812 1046.8 761.797 1047.09 764.875H1043.31Z" fill="white"/>
<path d="M632.891 881.914C631.359 881.914 630.102 880.656 630.102 879.098C630.102 877.566 631.359 876.309 632.891 876.309C634.449 876.309 635.707 877.566 635.707 879.098C635.707 880.656 634.449 881.914 632.891 881.914ZM673.988 864.906V870.512H677.652V872.344H673.988V878.113H671.855V864.906H673.988ZM655.039 876.609C661.055 875.174 664.637 872.098 665.02 868.16H656.133V866.383H667.371C667.357 872.48 663.037 876.609 655.859 878.387L655.039 876.609ZM657.691 888.887V879.371H659.688V882.324H664.062V879.371H666.059V888.887H657.691ZM659.688 887.164H664.062V883.992H659.688V887.164ZM666.195 887.465C669.066 886.207 670.488 883.5 670.516 881.176V879.125H672.566V881.094C672.566 883.5 673.975 886.221 676.805 887.465L675.656 889.105C673.619 888.189 672.266 886.508 671.541 884.607C670.803 886.508 669.422 888.189 667.371 889.105L666.195 887.465ZM699.227 864.906V889.27H697.066V864.906H699.227ZM680.605 883.391V866.984H682.738V873.41H689.984V866.984H692.09V883.391H680.605ZM682.738 881.586H689.984V875.133H682.738V881.586ZM722.879 864.906V872.262H725.996V874.094H722.879V882.762H720.746V864.906H722.879ZM703.191 877.402C705.98 875.707 707.006 872.262 707.02 869.91V866.656H709.043V869.91C709.057 871.797 709.535 874.709 711.422 876.664C713.281 874.75 713.746 871.906 713.746 869.91V866.656H715.77V869.91C715.783 872.59 716.822 875.803 719.652 877.402L718.422 878.934C716.549 877.867 715.414 876.09 714.799 874.107C714.266 876.104 713.24 878.031 711.422 879.18C709.549 878.004 708.523 875.994 707.99 873.957C707.361 875.939 706.227 877.826 704.395 878.934L703.191 877.402ZM707.129 888.695V881.012H709.262V886.891H723.836V888.695H707.129ZM753.996 864.633V874.176H757.523V877.047H753.996V889.461H750.496V864.633H753.996ZM734.09 882.488C739.982 879.535 743.154 875.57 743.811 870.02H735.512V867.176H747.352C747.324 874.613 744.426 881.053 736.059 885.168L734.09 882.488ZM778.605 866.082V868.324C778.592 870.648 778.592 873.178 777.963 876.664H781.258V879.48H771.551V889.543H768.051V879.48H758.562V876.664H774.422C775.064 873.465 775.119 871.018 775.133 868.871H761.16V866.082H778.605ZM808.848 864.633V874.176H812.375V877.047H808.848V889.461H805.348V864.633H808.848ZM788.941 882.488C794.834 879.535 798.006 875.57 798.662 870.02H790.363V867.176H802.203C802.176 874.613 799.277 881.053 790.91 885.168L788.941 882.488ZM826.73 866.191C826.73 867.053 826.662 867.887 826.512 868.68H830.914V864.66H834.387V879.426H830.914V876.719H825.254V873.93H830.914V871.414H825.705C824.037 875.27 820.359 877.977 815 879.398L813.688 876.609C819.293 875.174 822.438 872.371 822.984 869.008H815.109V866.191H826.73ZM817.297 883.172V880.438H834.387V889.461H830.914V883.172H817.297ZM859.188 864.633V889.516H855.852V864.633H859.188ZM837.832 875.406C837.832 869.842 839.951 866.396 843.246 866.41C846.24 866.396 848.291 869.199 848.674 873.848H850.711V864.988H853.992V888.367H850.711V876.609H848.701C848.4 881.49 846.309 884.457 843.246 884.457C839.951 884.457 837.832 880.998 837.832 875.406ZM841.059 875.406C841.031 879.234 841.852 881.121 843.246 881.094C844.682 881.121 845.529 879.234 845.516 875.406C845.529 871.592 844.682 869.691 843.246 869.691C841.852 869.691 841.031 871.592 841.059 875.406ZM889.785 864.633V889.516H886.477V877.02H884.07V888.312H880.871V865.043H884.07V874.23H886.477V864.633H889.785ZM868.977 883.883V867.504H878.246V870.32H872.477V880.957C874.883 880.916 877.016 880.779 879.422 880.355L879.668 883.199C876.633 883.773 873.98 883.869 870.699 883.883H868.977ZM912.207 864.66V872.289H915.57V875.133H912.207V883.227H908.707V864.66H912.207ZM892.465 870.02V867.258H898.125V864.605H901.598V867.258H907.23V870.02H892.465ZM893.668 875.707C893.668 872.822 896.225 870.895 899.848 870.895C903.457 870.895 905.973 872.822 905.973 875.707C905.973 878.578 903.457 880.465 899.848 880.465C896.225 880.465 893.668 878.578 893.668 875.707ZM896.074 889.078V881.805H899.547V886.289H913.109V889.078H896.074ZM897.086 875.707C897.072 877.074 898.18 877.812 899.848 877.812C901.529 877.812 902.664 877.074 902.664 875.707C902.664 874.326 901.529 873.561 899.848 873.547C898.18 873.561 897.072 874.326 897.086 875.707ZM945.867 878.988V881.723H936.133V889.516H932.688V881.723H923.09V878.988H945.867ZM925.77 876.582V865.59H929.215V868.461H939.66V865.59H943.16V876.582H925.77ZM929.215 873.793H939.66V871.195H929.215V873.793ZM967.059 864.633V870.238H970.422V873.109H967.059V878.605H963.559V864.633H967.059ZM948.273 877.676V866.191H959.375V868.953H951.773V874.887C956.285 874.859 958.76 874.682 961.535 874.121L961.891 876.855C958.76 877.58 955.889 877.676 950.379 877.676H948.273ZM950.789 889.215V879.645H967.059V889.215H950.789ZM954.234 886.48H963.613V882.406H954.234V886.48ZM982.863 864.988C988.592 864.988 991.9 866.492 991.914 869.227C991.9 872.002 988.592 873.492 982.863 873.492C977.121 873.492 973.785 872.002 973.785 869.227C973.785 866.492 977.121 864.988 982.863 864.988ZM971.516 877.43V874.668H994.211V877.43H971.516ZM974.141 881.422V878.879H991.449V885.223H977.586V886.727H992.105V889.352H974.168V882.789H988.004V881.422H974.141ZM977.449 869.227C977.436 870.443 979.213 870.922 982.863 870.922C986.541 870.922 988.305 870.443 988.305 869.227C988.305 868.119 986.541 867.531 982.863 867.531C979.213 867.531 977.436 868.119 977.449 869.227ZM1024.86 874.531V877.266H1015.24V878.879H1022.1V885.25H1008.24V886.727H1022.76V889.352H1004.82V882.816H1018.66V881.477H1004.79V878.879H1011.77V877.266H1002.17V874.531H1024.86ZM1003.18 871.223C1007.76 870.922 1010.36 869.541 1011.16 868.023H1004.25V865.344H1022.81V868.023H1015.84C1016.65 869.527 1019.27 870.922 1023.88 871.223L1022.79 873.848C1018.18 873.506 1014.98 872.057 1013.49 869.965C1012 872.043 1008.84 873.506 1004.27 873.848L1003.18 871.223ZM1047.2 864.633V889.57H1043.68V864.633H1047.2ZM1027.11 875.242C1027.09 869.814 1029.87 866.383 1033.7 866.383C1037.44 866.383 1040.23 869.814 1040.23 875.242C1040.23 880.711 1037.44 884.129 1033.7 884.129C1029.87 884.129 1027.09 880.711 1027.11 875.242ZM1030.47 875.242C1030.46 878.947 1031.75 880.971 1033.7 880.957C1035.58 880.971 1036.85 878.947 1036.87 875.242C1036.85 871.551 1035.58 869.527 1033.7 869.527C1031.75 869.527 1030.46 871.551 1030.47 875.242ZM1071.07 866.793V869.145C1071.06 872.262 1071.06 875.762 1070.06 881.039L1066.56 880.684C1067.52 875.98 1067.56 872.48 1067.57 869.555H1052.92V866.793H1071.07ZM1050.57 886.48V883.637H1058.69V875.078H1062.16V883.637H1073.26V886.48H1050.57ZM632.891 929.914C631.359 929.914 630.102 928.656 630.102 927.098C630.102 925.566 631.359 924.309 632.891 924.309C634.449 924.309 635.707 925.566 635.707 927.098C635.707 928.656 634.449 929.914 632.891 929.914ZM674.207 914.492V916.625C674.207 918.922 674.207 921.451 673.51 924.938H677.133V926.715H667.098V937.27H664.938V926.715H654.984V924.938H671.336C672.074 921.438 672.074 918.895 672.074 916.625V916.27H657.773V914.492H674.207ZM701.332 925.047V926.797H679.184V925.047H689.191V922.094H682V913.891H698.598V915.668H684.133V920.316H698.816V922.094H691.324V925.047H701.332ZM681.645 930.926V929.176H698.625V937.406H696.492V930.926H681.645ZM711.941 919.441C711.928 923.844 714.758 928.273 718.285 929.887L717 931.637C714.238 930.215 711.955 927.316 710.875 923.857C709.795 927.494 707.512 930.611 704.75 932.074L703.355 930.352C706.924 928.602 709.74 923.926 709.754 919.441V915.012H711.941V919.441ZM715.633 922.969V921.219H721.402V912.906H723.535V937.27H721.402V922.969H715.633ZM747.625 912.906V937.27H745.465V912.906H747.625ZM729.004 931.391V914.984H731.137V921.41H738.383V914.984H740.488V931.391H729.004ZM731.137 929.586H738.383V923.133H731.137V929.586ZM763.895 916.488C763.908 920.658 768.666 924.363 772.891 925.156L771.906 926.961C768.229 926.113 764.373 923.502 762.801 919.934C761.215 923.502 757.373 926.1 753.695 926.961L752.711 925.156C756.922 924.35 761.639 920.672 761.652 916.488V914.629H763.895V916.488ZM751.781 933.906V932.129H774.039V933.906H751.781ZM798.211 924.199V925.895H775.953V924.199H798.211ZM778.633 929.449V927.836H795.422V933.004H780.82V935.328H796.215V936.887H778.66V931.527H793.289V929.449H778.633ZM778.77 915.203V913.645H795.34V918.676H780.984V920.809H795.777V922.367H778.852V917.199H793.18V915.203H778.77ZM829.355 925.812V927.562H807.18V925.812H817.188V923.406H810.133V913.617H826.594V915.367H812.293V917.637H825.938V919.277H812.293V921.684H826.73V923.406H819.32V925.812H829.355ZM809.887 933.277C809.873 930.748 812.895 929.367 818.281 929.395C823.613 929.367 826.621 930.748 826.648 933.277C826.621 935.834 823.613 937.16 818.281 937.16C812.895 937.16 809.873 935.834 809.887 933.277ZM812.047 933.277C812.02 934.754 814.262 935.52 818.281 935.492C822.26 935.52 824.475 934.754 824.488 933.277C824.475 931.828 822.26 931.021 818.281 931.008C814.262 931.021 812.02 931.828 812.047 933.277ZM843.547 917.117V918.867H831.352V917.117H836.41V913.645H838.543V917.117H843.547ZM832.227 926.031C832.227 922.805 834.428 920.521 837.449 920.508C840.512 920.521 842.699 922.805 842.727 926.031C842.699 929.299 840.512 931.596 837.449 931.609C834.428 931.596 832.227 929.299 832.227 926.031ZM834.141 926.031C834.141 928.191 835.521 929.736 837.449 929.723C839.391 929.736 840.812 928.191 840.812 926.031C840.812 923.898 839.391 922.34 837.449 922.312C835.521 922.34 834.141 923.898 834.141 926.031ZM844.805 936.012V913.508H846.828V923.16H850.055V912.906H852.105V937.215H850.055V924.938H846.828V936.012H844.805ZM883.359 912.633V927.398H879.887V921.52H876.004V918.703H879.887V912.633H883.359ZM862.223 924.664C866.297 923.297 868.156 920.043 868.238 916.926H863.234V914.137H876.742V916.926H871.793C871.861 919.824 873.639 922.75 877.508 924.035L875.785 926.77C873.051 925.881 871.15 924.076 870.07 921.848C868.977 924.377 866.98 926.414 864.027 927.426L862.223 924.664ZM866.297 932.758C866.297 929.736 869.551 927.959 874.855 927.945C880.174 927.959 883.428 929.736 883.441 932.758C883.428 935.779 880.174 937.543 874.855 937.543C869.551 937.543 866.297 935.779 866.297 932.758ZM869.77 932.758C869.77 934.18 871.561 934.891 874.855 934.891C878.164 934.891 879.955 934.18 879.969 932.758C879.955 931.322 878.164 930.611 874.855 930.625C871.561 930.611 869.77 931.322 869.77 932.758ZM907.504 912.633V937.516H903.977V912.633H907.504ZM886.668 930.461C893.094 927.426 895.924 923.488 896.484 917.965H888.008V915.23H900.039C900.025 922.777 897.387 929.053 888.5 933.25L886.668 930.461ZM925.141 914.027V916.789H920.191C920.205 919.715 921.982 922.736 925.906 924.035L924.184 926.715C921.436 925.854 919.535 924.049 918.455 921.82C917.348 924.295 915.365 926.291 912.426 927.234L910.648 924.473C914.75 923.174 916.609 919.879 916.637 916.789H911.633V914.027H925.141ZM914.668 931.336V928.547H931.758V937.516H928.285V931.336H914.668ZM924.43 921.465V918.621H928.285V912.633H931.758V927.453H928.285V921.465H924.43ZM946.332 913.891C951.582 913.904 955.697 916.748 955.711 921.055C955.697 925.402 951.582 928.232 946.332 928.219C941.068 928.232 936.98 925.402 936.98 921.055C936.98 916.748 941.068 913.904 946.332 913.891ZM934.984 934.48V931.664H957.762V934.48H934.984ZM940.371 921.055C940.357 923.762 942.873 925.375 946.332 925.375C949.764 925.375 952.252 923.762 952.266 921.055C952.252 918.389 949.764 916.707 946.332 916.734C942.873 916.707 940.357 918.389 940.371 921.055ZM981.961 931.883V934.754H959.184V931.883H968.781V928.137H961.809V919.77H975.891V917.035H961.781V914.246H979.336V922.504H965.309V925.293H979.91V928.137H972.254V931.883H981.961ZM1010.67 912.66V930.543H1007.17V912.66H1010.67ZM990.219 920.508C990.219 916.857 993.199 914.232 997.027 914.246C1000.84 914.232 1003.82 916.857 1003.84 920.508C1003.82 924.213 1000.84 926.824 997.027 926.824C993.199 926.824 990.219 924.213 990.219 920.508ZM993.637 920.508C993.609 922.586 995.072 923.789 997.027 923.789C998.914 923.789 1000.38 922.586 1000.39 920.508C1000.38 918.484 998.914 917.268 997.027 917.281C995.072 917.268 993.609 918.484 993.637 920.508ZM993.992 937.078V928.738H997.52V934.289H1011.33V937.078H993.992ZM1024.1 915.395V918.129H1018.11V922.094H1023.11V924.746H1018.11V929.217C1020.78 929.176 1022.73 929.039 1025.05 928.656L1025.36 931.473C1022.5 931.992 1020.12 932.02 1016.47 932.02H1014.8V915.395H1024.1ZM1024.29 924.5V921.711H1027.08V913.07H1030.33V936.395H1027.08V924.5H1024.29ZM1032.25 937.516V912.633H1035.61V937.516H1032.25ZM1059.1 912.633V937.57H1055.62V912.633H1059.1ZM1039.55 917.527V914.711H1051.39V924.309H1043.18V928.875C1046.98 928.848 1050.2 928.656 1053.85 928.055L1054.15 930.871C1050.06 931.596 1046.36 931.746 1041.82 931.746H1039.57V921.547H1047.83V917.527H1039.55ZM1069.3 914.383C1072.66 914.383 1075.18 917.145 1075.67 921.629H1079.99V912.633H1083.43V937.57H1079.99V924.418H1075.71C1075.34 929.203 1072.77 932.129 1069.3 932.129C1065.52 932.129 1062.82 928.711 1062.84 923.242C1062.82 917.814 1065.52 914.383 1069.3 914.383ZM1066.18 923.242C1066.17 926.947 1067.44 928.971 1069.3 928.957C1071.17 928.971 1072.41 926.947 1072.41 923.242C1072.41 919.551 1071.17 917.527 1069.3 917.527C1067.44 917.527 1066.17 919.551 1066.18 923.242ZM1108.21 912.633V937.516H1104.87V912.633H1108.21ZM1086.85 923.406C1086.85 917.842 1088.97 914.396 1092.27 914.41C1095.26 914.396 1097.31 917.199 1097.69 921.848H1099.73V912.988H1103.01V936.367H1099.73V924.609H1097.72C1097.42 929.49 1095.33 932.457 1092.27 932.457C1088.97 932.457 1086.85 928.998 1086.85 923.406ZM1090.08 923.406C1090.05 927.234 1090.87 929.121 1092.27 929.094C1093.7 929.121 1094.55 927.234 1094.54 923.406C1094.55 919.592 1093.7 917.691 1092.27 917.691C1090.87 917.691 1090.05 919.592 1090.08 923.406ZM1138.26 912.66V931.008H1134.79V924.938H1130.19V927.07H1118.35V914.273H1121.85V918.102H1126.75V914.273H1130.19V916.816H1134.79V912.66H1138.26ZM1121.69 937.078V929.176H1125.21V934.289H1138.78V937.078H1121.69ZM1121.85 924.336H1126.75V920.754H1121.85V924.336ZM1130.19 922.148H1134.79V919.633H1130.19V922.148ZM1161.39 912.633V922.75H1164.64V925.648H1161.39V937.516H1157.86V912.633H1161.39ZM1141.18 930.488C1143 930.488 1145.12 930.488 1147.34 930.434V928.301C1144.7 927.781 1142.97 926.1 1142.99 923.789C1142.97 921.014 1145.49 919.113 1149.11 919.113C1152.67 919.113 1155.21 921.014 1155.24 923.789C1155.21 926.1 1153.46 927.795 1150.84 928.301V930.311C1152.8 930.201 1154.79 930.037 1156.63 929.777L1156.85 932.32C1151.56 933.305 1145.85 933.346 1141.65 933.332L1141.18 930.488ZM1141.68 918.129V915.395H1147.34V912.77H1150.84V915.395H1156.44V918.129H1141.68ZM1146.3 923.789C1146.28 925.102 1147.4 925.812 1149.11 925.812C1150.77 925.812 1151.88 925.102 1151.88 923.789C1151.88 922.504 1150.77 921.779 1149.11 921.766C1147.4 921.779 1146.28 922.504 1146.3 923.789ZM1188.16 924.199V925.895H1165.9V924.199H1188.16ZM1168.58 929.449V927.836H1185.37V933.004H1170.77V935.328H1186.16V936.887H1168.61V931.527H1183.24V929.449H1168.58ZM1168.72 915.203V913.645H1185.29V918.676H1170.93V920.809H1185.73V922.367H1168.8V917.199H1183.13V915.203H1168.72ZM1219.3 923.078V924.828H1209.27V927.289H1216.46V932.812H1202.02V935.246H1217.2V936.941H1199.89V931.227H1214.36V928.93H1199.84V927.289H1207.16V924.828H1197.16V923.078H1219.3ZM1198.36 920.234C1202.61 919.852 1206.66 918.006 1207 915.477H1199.18V913.781H1217.34V915.477H1209.47C1209.79 917.992 1213.85 919.852 1218.13 920.234L1217.42 921.875C1213.44 921.465 1209.69 919.92 1208.23 917.459C1206.78 919.92 1203.05 921.465 1199.07 921.875L1198.36 920.234ZM1240.58 915.176C1240.59 918.607 1245.05 921.561 1249.44 922.176L1248.56 923.926C1244.79 923.297 1241.04 921.205 1239.48 918.225C1237.93 921.232 1234.19 923.297 1230.41 923.926L1229.53 922.176C1233.92 921.561 1238.36 918.662 1238.36 915.176V913.781H1240.58V915.176ZM1228.38 928.41V926.605H1250.53V928.41H1240.47V937.215H1238.36V928.41H1228.38ZM1267.84 929.23C1267.83 931.377 1268.99 933.66 1271.3 934.973C1273.62 933.537 1274.85 931.104 1274.84 929.23V927.891H1276.95V929.23C1276.93 931.732 1278.78 934.221 1281.89 935.301L1280.83 936.887C1278.39 936.025 1276.7 934.33 1275.85 932.293C1275.1 934.262 1273.61 936.135 1271.37 937.078C1269 936.176 1267.5 934.398 1266.77 932.361C1265.9 934.316 1264.23 936.012 1261.91 936.887L1260.81 935.301C1263.89 934.152 1265.73 931.555 1265.76 929.23V927.891H1267.84V929.23ZM1260.18 920.043C1260.17 916.652 1262.86 914.342 1266.55 914.355C1270.25 914.342 1272.91 916.652 1272.93 920.043C1272.91 923.379 1270.25 925.676 1266.55 925.676C1262.86 925.676 1260.17 923.379 1260.18 920.043ZM1262.29 920.043C1262.26 922.299 1264.05 923.885 1266.55 923.898C1269.03 923.885 1270.82 922.299 1270.82 920.043C1270.82 917.773 1269.03 916.16 1266.55 916.188C1264.05 916.16 1262.26 917.773 1262.29 920.043ZM1277.55 926.824V912.934H1279.68V926.824H1277.55ZM1303.3 915.367V917.801C1303.28 920.781 1303.28 924.117 1302.4 929.012L1300.21 928.766C1301.13 924.117 1301.13 920.713 1301.14 917.801V917.145H1286.16V915.367H1303.3ZM1283.81 933.77V931.992H1292.5V923.297H1294.61V931.992H1305.96V933.77H1283.81ZM632.891 977.914C631.359 977.914 630.102 976.656 630.102 975.098C630.102 973.566 631.359 972.309 632.891 972.309C634.449 972.309 635.707 973.566 635.707 975.098C635.707 976.656 634.449 977.914 632.891 977.914ZM665.949 976.137C671.391 976.137 674.809 977.859 674.836 980.84C674.809 983.779 671.391 985.529 665.949 985.516C660.549 985.529 657.076 983.779 657.09 980.84C657.076 977.859 660.549 976.137 665.949 976.137ZM654.793 974.551V971.734H663.27V967.387H666.715V971.734H677.379V974.551H654.793ZM657.336 964.488V961.754H674.699V963.777C674.713 965.76 674.713 967.893 673.988 970.449L670.57 970.121C671.131 967.865 671.199 966.184 671.227 964.488H657.336ZM660.562 980.84C660.549 982.18 662.518 982.863 665.949 982.863C669.381 982.863 671.363 982.18 671.363 980.84C671.363 979.459 669.381 978.721 665.949 978.734C662.518 978.721 660.549 979.459 660.562 980.84ZM701.688 974.469V977.285H696.355V985.516H692.801V977.285H687.715V985.516H684.133V977.285H678.91V974.469H701.688ZM681.207 967.086C681.193 963.654 684.885 961.467 690.23 961.453C695.576 961.467 699.309 963.654 699.309 967.086C699.309 970.436 695.576 972.568 690.23 972.555C684.885 972.568 681.193 970.436 681.207 967.086ZM684.789 967.086C684.775 968.836 686.895 969.807 690.23 969.82C693.594 969.807 695.699 968.836 695.699 967.086C695.699 965.254 693.594 964.256 690.23 964.242C686.895 964.256 684.775 965.254 684.789 967.086ZM724.109 960.66V974.988H720.637V972.555H715.031V969.766H720.637V967.387H715.291C713.732 971.324 710.191 974.045 704.723 975.535L703.355 972.773C709.07 971.283 711.887 968.535 712.379 965.117H704.695V962.328H716.18C716.18 963.135 716.125 963.914 716.002 964.652H720.637V960.66H724.109ZM707.32 980.32C707.307 977.244 710.711 975.303 715.824 975.289C720.869 975.303 724.287 977.244 724.301 980.32C724.287 983.438 720.869 985.406 715.824 985.406C710.711 985.406 707.307 983.438 707.32 980.32ZM710.793 980.32C710.793 981.865 712.666 982.645 715.824 982.645C718.914 982.645 720.787 981.865 720.801 980.32C720.787 978.789 718.914 977.996 715.824 978.023C712.666 977.996 710.793 978.789 710.793 980.32ZM748.855 960.633V985.516H745.547V960.633H748.855ZM726.816 978.242C730.48 975.986 731.848 971.529 731.848 967.305V965.965H727.773V963.176H738.984V965.965H735.211V967.305C735.197 971.434 736.496 975.617 740.133 977.695L738.082 980.266C735.854 978.953 734.404 976.738 733.557 974.059C732.709 976.957 731.205 979.418 728.922 980.812L726.816 978.242ZM737.207 971.98V969.164H740.488V961.043H743.77V984.367H740.488V971.98H737.207ZM774.285 971.789V974.387H751.508V971.789H774.285ZM754.105 978.023V975.617H771.551V981.496H757.605V982.918H772.289V985.297H754.133V979.281H768.105V978.023H754.105ZM754.297 963.449V961.07H771.523V966.922H757.824V968.262H771.961V970.613H754.352V964.707H768.023V963.449H754.297ZM804.883 973.457V976.191H782.133V973.457H791.758V971.926H784.977V961.234H802.23V963.914H788.477V965.309H801.656V967.824H788.477V969.246H802.449V971.926H795.258V973.457H804.883ZM784.785 981.414C784.785 978.789 787.93 977.312 793.508 977.34C798.99 977.312 802.148 978.789 802.176 981.414C802.148 984.094 798.99 985.529 793.508 985.516C787.93 985.529 784.785 984.094 784.785 981.414ZM788.285 981.414C788.258 982.48 789.926 982.945 793.508 982.945C797.008 982.945 798.662 982.48 798.676 981.414C798.662 980.375 797.008 979.896 793.508 979.91C789.926 979.896 788.258 980.375 788.285 981.414ZM818.391 964.434V967.195H806.359V964.434H810.68V961.316H814.125V964.434H818.391ZM806.934 974.223C806.934 970.764 809.258 968.33 812.43 968.316C815.615 968.33 817.885 970.764 817.898 974.223C817.885 977.695 815.615 980.156 812.43 980.156C809.258 980.156 806.934 977.695 806.934 974.223ZM809.996 974.223C809.996 976.123 810.98 977.203 812.43 977.203C813.824 977.203 814.822 976.123 814.836 974.223C814.822 972.35 813.824 971.215 812.43 971.215C810.98 971.215 809.996 972.35 809.996 974.223ZM819.32 984.449V961.125H822.574V970.75H824.598V960.633H827.906V985.516H824.598V973.539H822.574V984.449H819.32ZM856.672 960.633V970.176H860.199V973.047H856.672V985.461H853.172V960.633H856.672ZM836.766 978.488C842.658 975.535 845.83 971.57 846.486 966.02H838.188V963.176H850.027C850 970.613 847.102 977.053 838.734 981.168L836.766 978.488ZM882.047 960.633V985.516H878.547V960.633H882.047ZM861.375 978.188C865.463 976.396 867.486 972.213 867.5 968.426V967.469H862.195V964.68H867.473V961.18H870.945V964.68H876.141V967.469H870.973V968.426C870.973 972.035 873.01 976.096 877.152 977.805L875.266 980.484C872.436 979.322 870.412 976.943 869.277 974.086C868.17 977.107 866.133 979.65 863.234 980.867L861.375 978.188ZM908.215 979.746V982.535H885.438V979.746H894.953V974.113H898.426V979.746H908.215ZM885.984 972.008C891.617 971.133 894.789 967.346 894.816 963.832V962.055H898.535V963.832C898.521 967.387 901.734 971.133 907.422 972.008L905.945 974.906C901.57 974.113 898.316 971.775 896.676 968.672C895.049 971.762 891.809 974.127 887.461 974.906L885.984 972.008ZM930.473 960.633V985.57H926.945V960.633H930.473ZM910.867 979.746V962.602H914.367V968.672H919.727V962.602H923.172V979.746H910.867ZM914.367 976.93H919.727V971.379H914.367V976.93ZM939.086 980.977L936.734 988.77H933.836L935.203 980.977H939.086ZM958.773 961.098C964.16 961.125 967.756 963.107 967.77 966.266C967.756 969.396 964.16 971.365 958.773 971.352C953.359 971.365 949.75 969.396 949.75 966.266C949.75 963.107 953.359 961.125 958.773 961.098ZM947.426 975.48V972.691H970.176V975.48H964.844V979.91H961.344V975.48H958.719V979.91H955.191V975.48H947.426ZM950.023 985.078V977.75H953.523V982.289H967.934V985.078H950.023ZM953.523 966.266C953.51 967.797 955.561 968.617 958.773 968.645C961.986 968.617 964.023 967.797 964.023 966.266C964.023 964.68 961.986 963.859 958.773 963.859C955.561 963.859 953.51 964.68 953.523 966.266ZM992.488 960.633V985.57H989.016V960.633H992.488ZM972.938 965.527V962.711H984.777V972.309H976.574V976.875C980.375 976.848 983.588 976.656 987.238 976.055L987.539 978.871C983.451 979.596 979.746 979.746 975.207 979.746H972.965V969.547H981.223V965.527H972.938ZM1018.6 979.746V982.535H995.824V979.746H1005.34V974.113H1008.81V979.746H1018.6ZM996.371 972.008C1002 971.133 1005.18 967.346 1005.2 963.832V962.055H1008.92V963.832C1008.91 967.387 1012.12 971.133 1017.81 972.008L1016.33 974.906C1011.96 974.113 1008.7 971.775 1007.06 968.672C1005.44 971.762 1002.2 974.127 997.848 974.906L996.371 972.008ZM1040.86 960.633V985.57H1037.33V960.633H1040.86ZM1021.25 979.746V962.602H1024.75V968.672H1030.11V962.602H1033.56V979.746H1021.25ZM1024.75 976.93H1030.11V971.379H1024.75V976.93ZM1066.7 972.199V973.895H1044.44V972.199H1066.7ZM1047.12 977.449V975.836H1063.91V981.004H1049.31V983.328H1064.7V984.887H1047.15V979.527H1061.78V977.449H1047.12ZM1047.26 963.203V961.645H1063.83V966.676H1049.47V968.809H1064.27V970.367H1047.34V965.199H1061.67V963.203H1047.26ZM1094.7 960.824V966.73H1098.39V968.508H1094.7V974.277H1092.57V960.824H1094.7ZM1075.75 964.844V963.121H1081.93V960.66H1084.06V963.121H1090.24V964.844H1075.75ZM1077.14 969.93C1077.13 967.469 1079.46 965.951 1083 965.938C1086.52 965.951 1088.82 967.469 1088.85 969.93C1088.82 972.404 1086.52 973.908 1083 973.922C1079.46 973.908 1077.13 972.404 1077.14 969.93ZM1079.2 977.148V975.535H1094.7V980.922H1081.36V983.301H1095.6V984.941H1079.25V979.336H1092.57V977.148H1079.2ZM1079.2 969.93C1079.18 971.393 1080.69 972.309 1083 972.309C1085.29 972.309 1086.8 971.393 1086.82 969.93C1086.8 968.48 1085.29 967.537 1083 967.523C1080.69 967.537 1079.18 968.48 1079.2 969.93ZM1119.12 963.176C1119.13 966.607 1123.59 969.561 1127.98 970.176L1127.1 971.926C1123.33 971.297 1119.58 969.205 1118.02 966.225C1116.46 969.232 1112.73 971.297 1108.95 971.926L1108.07 970.176C1112.46 969.561 1116.9 966.662 1116.9 963.176V961.781H1119.12V963.176ZM1106.92 976.41V974.605H1129.07V976.41H1119.01V985.215H1116.9V976.41H1106.92ZM1146.38 977.23C1146.37 979.377 1147.53 981.66 1149.84 982.973C1152.16 981.537 1153.39 979.104 1153.38 977.23V975.891H1155.48V977.23C1155.47 979.732 1157.32 982.221 1160.43 983.301L1159.37 984.887C1156.93 984.025 1155.24 982.33 1154.39 980.293C1153.64 982.262 1152.15 984.135 1149.91 985.078C1147.54 984.176 1146.04 982.398 1145.31 980.361C1144.44 982.316 1142.77 984.012 1140.45 984.887L1139.35 983.301C1142.43 982.152 1144.27 979.555 1144.3 977.23V975.891H1146.38V977.23ZM1138.72 968.043C1138.71 964.652 1141.4 962.342 1145.09 962.355C1148.79 962.342 1151.45 964.652 1151.46 968.043C1151.45 971.379 1148.79 973.676 1145.09 973.676C1141.4 973.676 1138.71 971.379 1138.72 968.043ZM1140.83 968.043C1140.8 970.299 1142.59 971.885 1145.09 971.898C1147.57 971.885 1149.36 970.299 1149.36 968.043C1149.36 965.773 1147.57 964.16 1145.09 964.188C1142.59 964.16 1140.8 965.773 1140.83 968.043ZM1156.09 974.824V960.934H1158.22V974.824H1156.09ZM1182.01 968.289V970.012H1165.36V961.809H1167.49V968.289H1182.01ZM1162.32 975.07V973.32H1184.58V975.07H1162.32ZM1165.22 984.613V977.559H1167.35V982.836H1182.14V984.613H1165.22Z" fill="#4D4D4D"/>
<defs>
<filter id="filter0_d_35_414" x="501" y="800" width="927" height="252" filterUnits="userSpaceOnUse" color-interpolation-filters="sRGB">
<feFlood flood-opacity="0" result="BackgroundImageFix"/>
<feColorMatrix in="SourceAlpha" type="matrix" values="0 0 0 0 0 0 0 0 0 0 0 0 0 0 0 0 0 0 127 0" result="hardAlpha"/>
<feMorphology radius="2" operator="dilate" in="SourceAlpha" result="effect1_dropShadow_35_414"/>
<feOffset dx="4" dy="4"/>
<feGaussianBlur stdDeviation="10"/>
<feComposite in2="hardAlpha" operator="out"/>
<feColorMatrix type="matrix" values="0 0 0 0 0 0 0 0 0 0 0 0 0 0 0 0 0 0 0.2 0"/>
<feBlend mode="normal" in2="BackgroundImageFix" result="effect1_dropShadow_35_414"/>
<feBlend mode="normal" in="SourceGraphic" in2="effect1_dropShadow_35_414" result="shape"/>
</filter>
<linearGradient id="paint0_linear_35_414" x1="960" y1="0" x2="960" y2="482" gradientUnits="userSpaceOnUse">
<stop stop-color="#303030" stop-opacity="0.9"/>
<stop offset="1" stop-color="#303030" stop-opacity="0"/>
</linearGradient>
<linearGradient id="paint1_linear_35_414" x1="960.25" y1="723.374" x2="960.25" y2="578.374" gradientUnits="userSpaceOnUse">
<stop stop-color="#4ECB69"/>
<stop offset="1" stop-color="#4ECB69" stop-opacity="0.35"/>
</linearGradient>
</defs>
</svg>
