<svg width="1920" height="1080" viewBox="0 0 1920 1080" fill="none" xmlns="http://www.w3.org/2000/svg">
<rect width="1920" height="1080" fill="white"/>
<rect x="734" y="211" width="459" height="69" rx="10" fill="#4ECB69"/>
<g filter="url(#filter0_d_35_171)">
<rect x="176" y="300" width="459" height="690" rx="10" fill="white"/>
</g>
<g filter="url(#filter1_d_35_171)">
<rect x="734" y="300" width="459" height="690" rx="10" fill="white"/>
</g>
<g filter="url(#filter2_d_35_171)">
<rect x="1292" y="300" width="459" height="690" rx="10" fill="white"/>
</g>
<path d="M47.8066 58H50.4922V51.335H54.1055H54.2764L57.8652 58H60.917L57.0107 50.8589C59.1592 50.041 60.2334 48.2466 60.2334 45.8662C60.2334 42.6069 58.2192 40.3242 54.1055 40.3242H47.8066V58ZM50.4922 49.0156V42.6191H53.8369C56.437 42.6313 57.5234 43.8765 57.5234 45.8662C57.5234 47.856 56.437 49.0034 53.8369 49.0156H50.4922ZM68.5342 58.2686C71.4517 58.2686 73.4902 56.8281 74.0762 54.6797H71.4395C71 55.4854 70.0356 56.1201 68.5586 56.1201C66.3857 56.1201 64.8965 54.6919 64.8232 52.165H74.2471V51.2373C74.2471 46.4399 71.3784 44.5723 68.3633 44.5723C64.6646 44.5723 62.2231 47.3799 62.2354 51.457C62.2231 55.5708 64.6279 58.2686 68.5342 58.2686ZM64.8354 50.2119C64.9453 48.3442 66.3003 46.7085 68.3877 46.7207C70.3774 46.7085 71.6836 48.1978 71.6836 50.2119H64.8354ZM76.2246 54.2646C76.2124 56.8525 78.1777 58.293 80.6924 58.293C82.8896 58.293 84.1104 57.1821 84.623 56.1934H84.7207V58H87.2598V49.1865C87.2476 45.3413 84.1714 44.5723 82.0596 44.5723C78.9224 44.5723 76.8716 46.1592 76.6396 48.3564H79.2275C79.4961 47.3799 80.4238 46.6719 81.9619 46.6719C83.7319 46.6719 84.6597 47.5386 84.6475 49.04L84.6597 50.1021C84.0493 50.1265 82.0596 50.2363 81.1807 50.2852C78.7881 50.4561 76.2124 51.2373 76.2246 54.2646ZM78.7637 54.2891C78.7637 52.9829 79.8379 52.3359 81.5469 52.2139C82.1694 52.1772 84.0615 52.043 84.6597 52.0063L84.6719 53.2148C84.6719 54.7896 83.4023 56.2056 81.2783 56.2178C79.8135 56.2056 78.7637 55.5586 78.7637 54.2891ZM97.8555 48.3564H100.37C100.114 46.0737 98.2705 44.5723 95.3164 44.5723C92.2402 44.5723 90.1895 46.1958 90.1895 48.5518C90.1895 50.3828 91.4346 51.6646 93.8271 52.1895L95.9023 52.6289C97.3062 52.9585 97.9409 53.5078 97.9531 54.3623C97.9409 55.4731 96.8545 56.1812 95.1699 56.1689C93.5952 56.1812 92.6919 55.583 92.46 54.3867H89.7988C90.1284 56.8525 92.0083 58.2686 95.1943 58.2686C98.5757 58.2686 100.602 56.5596 100.614 54.167C100.602 52.2871 99.418 51.1274 96.9766 50.5781L94.877 50.0898C93.4121 49.748 92.7896 49.1865 92.8018 48.4053C92.7896 47.3921 93.8516 46.623 95.3408 46.623C96.7812 46.623 97.6113 47.3066 97.8555 48.3564ZM108.866 58.2686C111.784 58.2686 113.822 56.8281 114.408 54.6797H111.771C111.332 55.4854 110.368 56.1201 108.891 56.1201C106.718 56.1201 105.229 54.6919 105.155 52.165H114.579V51.2373C114.579 46.4399 111.71 44.5723 108.695 44.5723C104.997 44.5723 102.555 47.3799 102.567 51.457C102.555 55.5708 104.96 58.2686 108.866 58.2686ZM105.167 50.2119C105.277 48.3442 106.632 46.7085 108.72 46.7207C110.709 46.7085 112.016 48.1978 112.016 50.2119H105.167ZM116.557 54.2646C116.544 56.8525 118.51 58.293 121.024 58.293C123.222 58.293 124.442 57.1821 124.955 56.1934H125.053V58H127.592V49.1865C127.58 45.3413 124.503 44.5723 122.392 44.5723C119.254 44.5723 117.204 46.1592 116.972 48.3564H119.56C119.828 47.3799 120.756 46.6719 122.294 46.6719C124.064 46.6719 124.992 47.5386 124.979 49.04L124.992 50.1021C124.381 50.1265 122.392 50.2363 121.513 50.2852C119.12 50.4561 116.544 51.2373 116.557 54.2646ZM119.096 54.2891C119.096 52.9829 120.17 52.3359 121.879 52.2139C122.501 52.1772 124.394 52.043 124.992 52.0063L125.004 53.2148C125.004 54.7896 123.734 56.2056 121.61 56.2178C120.146 56.2056 119.096 55.5586 119.096 54.2891ZM130.741 58H133.354V49.9189C133.354 48.1855 134.696 46.9282 136.503 46.9404C137.04 46.9282 137.65 47.0381 137.87 47.0869V44.5967C137.602 44.5723 137.089 44.5356 136.771 44.5479C135.221 44.5356 133.891 45.4268 133.402 46.8428H133.256V44.7432H130.741V58ZM144.999 58.2686C148.124 58.2686 150.163 56.3765 150.443 53.8008H147.904C147.575 55.229 146.476 56.0591 144.999 56.0469C142.814 56.0591 141.41 54.2646 141.41 51.3594C141.41 48.5396 142.851 46.7573 144.999 46.7451C146.647 46.7573 147.636 47.7949 147.904 49.04H150.443C150.163 46.3545 147.978 44.5723 144.95 44.5723C141.215 44.5723 138.786 47.3921 138.798 51.4326C138.786 55.4243 141.129 58.2686 144.999 58.2686ZM155.521 50.1387C155.521 48.0269 156.852 46.8184 158.695 46.8184C160.453 46.8184 161.503 47.9414 161.503 49.8945V58H164.115V49.5771C164.115 46.2568 162.296 44.5723 159.574 44.5723C157.511 44.5723 156.266 45.4756 155.644 46.916H155.473V40.3242H152.909V58H155.521V50.1387ZM170.414 56.3154H167.68L166.386 63.0537H168.461L170.414 56.3154ZM196.195 38.2002H193.876V55.29H196.195V47.624H199.32V45.6953H196.195V38.2002ZM178.837 51.042L179.081 52.8975C182.902 52.8608 188.163 52.7998 192.826 51.9209L192.631 50.2852C190.8 50.5659 188.822 50.749 186.869 50.8589V49.4307C189.335 49.1499 190.885 47.9536 190.897 46.1592C190.885 44.0352 188.834 42.7656 185.697 42.79C182.56 42.7656 180.473 44.0352 180.497 46.1592C180.473 47.9536 182.06 49.1499 184.55 49.4429V50.9688C182.487 51.042 180.521 51.042 178.837 51.042ZM179.398 41.9355H192.021V40.2266H186.869V38.127H184.55V40.2266H179.398V41.9355ZM182.06 59.6113H196.977V57.7314H184.379V54.1426H182.06V59.6113ZM182.694 46.1592C182.694 45.0239 183.83 44.3647 185.697 44.377C187.541 44.3647 188.688 45.0239 188.676 46.1592C188.688 47.2212 187.541 47.8926 185.697 47.8926C183.83 47.8926 182.694 47.2212 182.694 46.1592ZM218.827 38.2246H216.508V42.1064H211.759C211.906 41.374 211.991 40.5928 211.991 39.7871H201.981V41.6914H209.477C209.062 45.2192 206.034 48.0024 200.858 49.4795L201.786 51.2861C206.522 49.9312 209.806 47.4531 211.222 43.9375H216.508V46.5986H210.99V48.5029H216.508V51.1641H218.827V38.2246ZM204.252 55.6807C204.252 58.3418 207.133 59.9775 211.625 59.9775C216.056 59.9775 218.961 58.3418 218.974 55.6807C218.961 53.0317 216.056 51.4204 211.625 51.4082C207.133 51.4204 204.252 53.0317 204.252 55.6807ZM206.547 55.6807C206.547 54.1182 208.5 53.2271 211.625 53.2393C214.689 53.2271 216.642 54.1182 216.654 55.6807C216.642 57.2188 214.689 58.1099 211.625 58.1221C208.5 58.1099 206.547 57.2188 206.547 55.6807ZM248.295 49.6504H228.275V51.5059H237.309V55.5342H239.604V51.5059H248.295V49.6504ZM230.766 59.6113H246.073V57.7314H233.061V53.6299H230.766V59.6113ZM230.912 47.7217H245.658V38.8838H243.339V41.5449H233.207V38.8838H230.912V47.7217ZM233.207 45.8662V43.2783H243.339V45.8662H233.207ZM257.621 41.6914V39.3232H255.302V41.5693C255.29 44.8042 253.312 47.6851 249.882 48.8691L251.127 50.749C253.678 49.7725 255.534 47.8682 256.498 45.439C257.438 47.6484 259.22 49.4062 261.625 50.2852L262.895 48.4297C259.599 47.3311 257.609 44.5967 257.621 41.6914ZM253.324 54.1426H265.824V60.0752H268.144V52.3115H253.324V54.1426ZM261.21 44.5234H265.824V51.1641H268.144V38.2002H265.824V42.6191H261.21V44.5234Z" fill="#888888"/>
<path d="M136.293 121.123C136.108 118.97 134.509 117.678 131.658 117.678C128.828 117.678 127.372 118.908 127.352 120.59C127.311 122.436 129.115 123.338 131.781 123.912L134.365 124.527C140.087 125.778 143.409 128.629 143.43 133.387C143.409 139.006 139.041 142.39 131.658 142.41C124.255 142.39 119.477 139.067 119.354 132.238H126.08C126.244 135.109 128.397 136.586 131.576 136.586C134.529 136.586 136.293 135.294 136.334 133.387C136.293 131.664 134.775 130.762 131.494 130.023L128.377 129.285C123.271 128.096 120.133 125.553 120.133 121.082C120.112 115.565 124.973 111.895 131.699 111.895C138.549 111.895 142.958 115.627 143.02 121.123H136.293ZM146.014 118.006V112.305H170.992V118.006H161.969V142H155.037V118.006H146.014ZM174.479 142V112.305H186.619C193.305 112.305 197.427 116.468 197.406 122.518C197.427 128.649 193.223 132.689 186.414 132.689H181.451V142H174.479ZM181.451 127.152H185.143C188.444 127.173 190.188 125.327 190.188 122.518C190.188 119.749 188.444 117.965 185.143 117.965H181.451V127.152Z" fill="#4ECB69"/>
<rect x="93" y="109" width="5" height="37" fill="#4ECB69"/>
<path d="M348.14 440.56V455.294H344.906V440.56H348.14ZM331.092 447.073C331.081 444.041 333.608 441.829 336.797 441.84C339.987 441.829 342.502 444.041 342.502 447.073C342.502 450.162 339.987 452.352 336.797 452.352C333.608 452.352 331.081 450.162 331.092 447.073ZM334.169 460.819V453.812H337.449V458.236H348.657V460.819H334.169ZM334.237 447.073C334.237 448.679 335.337 449.544 336.797 449.544C338.201 449.544 339.302 448.679 339.291 447.073C339.302 445.512 338.201 444.636 336.797 444.647C335.337 444.636 334.237 445.512 334.237 447.073ZM367.389 441.705V443.569C367.378 445.49 367.378 447.579 366.873 450.442H369.5V453.048H361.617V461.179H358.36V453.048H350.701V450.442H363.616C364.087 447.916 364.144 445.973 364.155 444.266H352.79V441.705H367.389ZM394.522 451.049V453.587H375.677V451.049H383.449V450.038H377.991V441.009H392.366V443.479H381.203V444.378H391.917V446.691H381.203V447.59H392.568V450.038H386.706V451.049H394.522ZM377.833 457.72C377.833 455.563 380.461 454.317 385.088 454.328C389.637 454.317 392.276 455.563 392.276 457.72C392.276 459.977 389.637 461.179 385.088 461.156C380.461 461.179 377.833 459.977 377.833 457.72ZM381.068 457.72C381.057 458.495 382.27 458.798 385.088 458.798C387.829 458.798 389.03 458.495 389.042 457.72C389.03 456.99 387.829 456.698 385.088 456.709C382.27 456.698 381.057 456.99 381.068 457.72ZM413.524 440.537V461.156H410.492V440.537H413.524ZM395.196 454.643C399.261 452.239 400.991 449.454 401.373 445.523H396.476V442.94H404.584C404.584 443.962 404.528 444.939 404.416 445.883H406.134V440.986H409.189V460.28H406.134V453.609H403.506V451.004H406.134V448.488H403.911C402.967 451.857 400.912 454.654 397.083 456.911L395.196 454.643ZM427.382 441.615V444.176H423.463C423.586 446.422 424.9 448.735 428.079 449.769L426.506 452.262C424.249 451.577 422.744 450.162 421.846 448.398C420.947 450.353 419.364 451.925 416.96 452.666L415.298 450.128C418.656 449.072 420.015 446.557 420.139 444.176H416.197V441.615H427.382ZM418.69 456.215V453.654H432.93V461.156H429.718V456.215H418.69ZM426.821 447.994V445.366H429.718V440.537H432.93V452.801H429.718V447.994H426.821ZM457.188 441.705V443.569C457.177 445.49 457.177 447.579 456.671 450.442H459.299V453.048H451.416V461.179H448.159V453.048H440.5V450.442H453.415C453.886 447.916 453.942 445.973 453.954 444.266H442.588V441.705H457.188ZM479.2 451.004V453.52H471.653V456.619H468.463V453.52H460.355V451.004H479.2ZM462.489 460.819V455.092H465.701V458.236H477.133V460.819H462.489ZM462.758 449.746V441.188H465.925V443.188H473.584V441.188H476.774V449.746H462.758ZM465.925 447.208H473.584V445.568H465.925V447.208ZM370.59 578.56V590.172H367.355V578.56H370.59ZM353.115 587.319C356.687 586.286 357.989 583.703 357.989 581.277V579.301H361.358V581.277C361.336 583.658 362.639 585.994 366.053 587.005L364.503 589.476C362.167 588.813 360.606 587.477 359.685 585.758C358.753 587.634 357.125 589.127 354.688 589.857L353.115 587.319ZM356.664 598.932V591.048H370.59V598.932H356.664ZM359.831 596.349H367.423V593.586H359.831V596.349ZM390.49 578.537V599.201H387.278V578.537H390.49ZM374.229 594.439V585.814H380.765V582.805H374.229V580.222H384.066V588.353H377.575V591.789C380.63 591.755 383.168 591.587 385.976 591.115L386.245 593.721C382.988 594.316 379.956 594.428 376.115 594.439H374.229ZM404.933 579.615V582.176H401.013C401.137 584.422 402.451 586.735 405.629 587.769L404.057 590.262C401.799 589.577 400.294 588.162 399.396 586.398C398.498 588.353 396.914 589.925 394.511 590.666L392.849 588.128C396.207 587.072 397.565 584.557 397.689 582.176H393.747V579.615H404.933ZM396.24 594.215V591.654H410.48V599.156H407.269V594.215H396.24ZM404.371 585.994V583.366H407.269V578.537H410.48V590.801H407.269V585.994H404.371ZM434.738 579.705V581.569C434.727 583.49 434.727 585.579 434.222 588.442H436.85V591.048H428.966V599.179H425.709V591.048H418.05V588.442H430.965C431.437 585.916 431.493 583.973 431.504 582.266H420.139V579.705H434.738ZM456.75 589.004V591.52H449.203V594.619H446.014V591.52H437.905V589.004H456.75ZM440.039 598.819V593.092H443.251V596.236H454.684V598.819H440.039ZM440.309 587.746V579.188H443.476V581.188H451.135V579.188H454.324V587.746H440.309ZM443.476 585.208H451.135V583.568H443.476V585.208Z" fill="#4ECB69"/>
<path d="M346.283 496.92V498.295H328.881V496.92H336.744V495.384C333.317 495.266 331.373 494.245 331.373 492.494C331.373 490.604 333.64 489.604 337.582 489.594C341.492 489.604 343.77 490.604 343.77 492.494C343.77 494.245 341.814 495.255 338.42 495.384V496.92H346.283ZM329.783 488.756V487.424H336.744V485.426H338.42V487.424H345.273V488.756H329.783ZM331.137 504.332V499.52H332.834V502.936H344.35V504.332H331.137ZM333.092 492.494C333.07 493.568 334.682 494.159 337.582 494.148C340.439 494.159 342.072 493.568 342.072 492.494C342.072 491.42 340.439 490.829 337.582 490.84C334.682 490.829 333.07 491.42 333.092 492.494ZM354.361 491.506C354.34 494.567 356.553 497.94 359.324 499.262L358.357 500.594C356.209 499.541 354.394 497.285 353.534 494.696C352.653 497.5 350.741 499.971 348.604 501.066L347.572 499.734C350.322 498.392 352.686 494.761 352.707 491.506V489.014H348.26V487.617H358.658V489.014H354.361V491.506ZM361 504.74V485.641H362.676V493.375H365.877V494.814H362.676V504.74H361ZM378.832 490.775C378.832 494.138 381.056 497.607 383.773 498.939L382.742 500.293C380.637 499.197 378.875 496.931 378.026 494.277C377.178 497.092 375.373 499.509 373.225 500.658L372.15 499.305C374.943 497.93 377.156 494.267 377.178 490.775V487.295H378.832V490.775ZM385.535 504.74V485.641H387.211V493.396H390.412V494.857H387.211V504.74H385.535ZM406.891 491.441V492.795H393.807V486.35H395.482V491.441H406.891ZM391.422 496.77V495.395H408.91V496.77H391.422ZM393.699 504.268V498.725H395.375V502.871H406.998V504.268H393.699ZM422.166 487.445V503H420.211V489.465H420.125L416.344 491.979V490.023L420.211 487.445H422.166ZM441.395 485.662V499.627H439.719V485.662H441.395ZM426.076 491.678C426.065 488.928 428.225 487.005 431.082 486.994C433.939 487.005 436.077 488.928 436.088 491.678C436.077 494.46 433.939 496.394 431.082 496.383C428.225 496.394 426.065 494.46 426.076 491.678ZM427.73 491.678C427.709 493.579 429.148 494.9 431.082 494.9C432.983 494.9 434.434 493.579 434.434 491.678C434.434 489.809 432.983 488.477 431.082 488.477C429.148 488.477 427.709 489.809 427.73 491.678ZM429.062 504.332V498.209H430.738V502.914H441.996V504.332H429.062ZM459.42 485.641V493.418H462.514V494.836H459.42V504.74H457.744V485.641H459.42ZM444.768 499.777C449.698 497.328 452.384 493.644 452.771 489.121H445.648V487.703H454.479C454.468 493.106 451.933 498.037 445.713 501.109L444.768 499.777ZM478.756 486.887V488.562C478.756 490.367 478.756 492.354 478.208 495.094H481.055V496.49H473.17V504.783H471.473V496.49H463.652V495.094H476.5C477.08 492.344 477.08 490.346 477.08 488.562V488.283H465.844V486.887H478.756ZM320.953 627.662V641.627H319.277V627.662H320.953ZM305.635 633.678C305.624 630.928 307.783 629.005 310.641 628.994C313.498 629.005 315.636 630.928 315.646 633.678C315.636 636.46 313.498 638.394 310.641 638.383C307.783 638.394 305.624 636.46 305.635 633.678ZM307.289 633.678C307.268 635.579 308.707 636.9 310.641 636.9C312.542 636.9 313.992 635.579 313.992 633.678C313.992 631.809 312.542 630.477 310.641 630.477C308.707 630.477 307.268 631.809 307.289 633.678ZM308.621 646.332V640.209H310.297V644.914H321.555V646.332H308.621ZM332.061 629.982V631.336H326.561V635.117H331.18V636.471H326.561V640.768C329.3 640.735 330.976 640.628 333.049 640.252L333.199 641.627C330.986 642.078 329.182 642.132 326.152 642.143H324.949V629.982H332.061ZM332.211 636.299V634.902H335.025V628.113H336.637V645.752H335.025V636.299H332.211ZM338.914 646.74V627.641H340.547V646.74H338.914ZM358.98 627.641V646.783H357.305V627.641H358.98ZM344.285 630.82V629.424H353.18V636.213H346.047V640.725C349.216 640.735 352.041 640.585 355.457 640.037L355.629 641.455C352.116 642.003 349.216 642.143 345.918 642.143H344.328V634.838H351.482V630.82H344.285ZM367.359 629.123C369.959 629.134 371.839 631.368 372.097 634.945H376.383V627.641H378.059V646.783H376.383V636.342H372.118C371.936 640.091 370.023 642.433 367.359 642.422C364.534 642.433 362.558 639.854 362.568 635.783C362.558 631.723 364.534 629.134 367.359 629.123ZM364.18 635.783C364.19 638.888 365.479 640.929 367.359 640.918C369.229 640.929 370.539 638.888 370.539 635.783C370.539 632.679 369.229 630.638 367.359 630.627C365.479 630.638 364.19 632.679 364.18 635.783ZM397.609 627.641V646.74H395.977V627.641H397.609ZM381.475 635.891C381.485 631.83 383.097 629.263 385.578 629.252C387.898 629.263 389.467 631.497 389.682 635.096H392.152V628.049H393.764V645.773H392.152V636.492H389.692C389.531 640.209 387.931 642.54 385.578 642.529C383.097 642.54 381.485 639.951 381.475 635.891ZM383.064 635.891C383.043 638.984 384.031 640.939 385.578 640.918C387.136 640.939 388.124 638.984 388.113 635.891C388.124 632.786 387.136 630.842 385.578 630.842C384.031 630.842 383.043 632.786 383.064 635.891ZM416.365 629.123V630.133C416.354 631.39 416.354 633.291 415.871 635.783L414.174 635.654C414.636 633.377 414.679 631.755 414.7 630.541H406.848V629.123H416.365ZM405.666 637.566C406.901 637.566 408.298 637.556 409.77 637.513V633.355H411.445V637.459C413.562 637.373 415.753 637.223 417.74 636.943L417.848 638.189C413.841 638.877 409.243 638.952 405.838 638.963L405.666 637.566ZM408.609 646.332V640.725H410.307V644.914H421.371V646.332H408.609ZM419.029 642.014V627.641H420.748V633.871H423.541V635.311H420.748V642.014H419.029ZM440.557 627.662V638.512H438.881V627.662H440.557ZM424.938 636.686C427.827 635.676 429.836 633.087 429.836 630.283V628.414H431.555V630.283C431.533 632.979 433.596 635.364 436.41 636.363L435.551 637.652C433.338 636.89 431.565 635.278 430.706 633.194C429.857 635.407 428.074 637.169 425.797 638.018L424.938 636.686ZM428.139 646.482V639.607H440.557V646.482H428.139ZM429.793 645.107H438.902V640.982H429.793V645.107ZM459.549 627.641V646.783H457.852V627.641H459.549ZM444.51 635.783C444.521 631.723 446.54 629.134 449.387 629.123C452.223 629.134 454.274 631.723 454.264 635.783C454.274 639.854 452.223 642.433 449.387 642.422C446.54 642.433 444.521 639.854 444.51 635.783ZM446.143 635.783C446.143 638.888 447.475 640.929 449.387 640.918C451.31 640.929 452.631 638.888 452.631 635.783C452.631 632.679 451.31 630.638 449.387 630.627C447.475 630.638 446.143 632.679 446.143 635.783ZM474.803 640.467C474.792 642.153 475.705 643.947 477.521 644.979C479.347 643.851 480.313 641.938 480.303 640.467V639.414H481.957V640.467C481.946 642.433 483.396 644.388 485.846 645.236L485.008 646.482C483.096 645.806 481.764 644.474 481.098 642.873C480.507 644.42 479.336 645.892 477.574 646.633C475.716 645.924 474.534 644.527 473.965 642.927C473.277 644.463 471.967 645.795 470.141 646.482L469.281 645.236C471.698 644.334 473.148 642.293 473.17 640.467V639.414H474.803V640.467ZM468.787 633.248C468.776 630.584 470.893 628.769 473.793 628.779C476.693 628.769 478.788 630.584 478.799 633.248C478.788 635.869 476.693 637.674 473.793 637.674C470.893 637.674 468.776 635.869 468.787 633.248ZM470.441 633.248C470.42 635.021 471.827 636.267 473.793 636.277C475.737 636.267 477.145 635.021 477.145 633.248C477.145 631.465 475.737 630.197 473.793 630.219C471.827 630.197 470.42 631.465 470.441 633.248ZM482.43 638.576V627.662H484.105V638.576H482.43ZM502.797 633.441V634.795H489.713V628.35H491.389V633.441H502.797ZM487.328 638.77V637.395H504.816V638.77H487.328ZM489.605 646.268V640.725H491.281V644.871H502.904V646.268H489.605ZM289.672 675.662V689.627H287.996V675.662H289.672ZM274.354 681.678C274.343 678.928 276.502 677.005 279.359 676.994C282.217 677.005 284.354 678.928 284.365 681.678C284.354 684.46 282.217 686.394 279.359 686.383C276.502 686.394 274.343 684.46 274.354 681.678ZM276.008 681.678C275.986 683.579 277.426 684.9 279.359 684.9C281.261 684.9 282.711 683.579 282.711 681.678C282.711 679.809 281.261 678.477 279.359 678.477C277.426 678.477 275.986 679.809 276.008 681.678ZM277.34 694.332V688.209H279.016V692.914H290.273V694.332H277.34ZM300.779 677.982V679.336H295.279V683.117H299.898V684.471H295.279V688.768C298.019 688.735 299.694 688.628 301.768 688.252L301.918 689.627C299.705 690.078 297.9 690.132 294.871 690.143H293.668V677.982H300.779ZM300.93 684.299V682.902H303.744V676.113H305.355V693.752H303.744V684.299H300.93ZM307.633 694.74V675.641H309.266V694.74H307.633ZM327.699 675.641V694.783H326.023V675.641H327.699ZM313.004 678.82V677.424H321.898V684.213H314.766V688.725C317.935 688.735 320.76 688.585 324.176 688.037L324.348 689.455C320.835 690.003 317.935 690.143 314.637 690.143H313.047V682.838H320.201V678.82H313.004ZM336.078 677.123C338.678 677.134 340.558 679.368 340.815 682.945H345.102V675.641H346.777V694.783H345.102V684.342H340.837C340.654 688.091 338.742 690.433 336.078 690.422C333.253 690.433 331.276 687.854 331.287 683.783C331.276 679.723 333.253 677.134 336.078 677.123ZM332.898 683.783C332.909 686.888 334.198 688.929 336.078 688.918C337.947 688.929 339.258 686.888 339.258 683.783C339.258 680.679 337.947 678.638 336.078 678.627C334.198 678.638 332.909 680.679 332.898 683.783ZM366.328 675.641V694.74H364.695V675.641H366.328ZM350.193 683.891C350.204 679.83 351.815 677.263 354.297 677.252C356.617 677.263 358.186 679.497 358.4 683.096H360.871V676.049H362.482V693.773H360.871V684.492H358.411C358.25 688.209 356.649 690.54 354.297 690.529C351.815 690.54 350.204 687.951 350.193 683.891ZM351.783 683.891C351.762 686.984 352.75 688.939 354.297 688.918C355.854 688.939 356.843 686.984 356.832 683.891C356.843 680.786 355.854 678.842 354.297 678.842C352.75 678.842 351.762 680.786 351.783 683.891ZM379.219 687.543V689.627H388.479V687.543H390.133V694.482H377.543V687.543H379.219ZM374.514 684.02C378.145 684.02 382.946 684.02 387.146 683.482L387.254 684.686C385.524 684.976 383.741 685.147 381.99 685.255V688.123H380.314V685.341C378.306 685.416 376.404 685.416 374.75 685.416L374.514 684.02ZM375.373 681.506C378.155 680.861 380.089 679.132 380.1 677.08V676.113H381.818V677.08C381.818 679.035 383.773 680.646 386.523 681.248L385.793 682.537C383.559 682.032 381.808 680.861 380.97 679.261C380.164 680.969 378.413 682.258 376.146 682.838L375.373 681.506ZM379.219 693.107H388.479V690.959H379.219V693.107ZM388.457 686.619V675.662H390.133V686.619H388.457ZM409.855 675.641V694.74H408.244V675.641H409.855ZM393.527 689.391C397.674 686.931 399.758 683.482 400.08 679.486H394.344V678.09H401.756C401.756 679.97 401.455 681.785 400.8 683.482H404.227V676.156H405.838V693.773H404.227V684.857H400.177C399.027 687.081 397.18 689.047 394.516 690.615L393.527 689.391ZM426.484 686.641V691.023H422.123V693.172C424.25 693.172 425.518 693.107 427.107 692.807L427.258 694.096C425.475 694.461 424.089 694.493 421.521 694.482H420.512V689.799H424.873V687.93H420.49V686.641H426.484ZM418.17 683.891C421.038 682.913 423.09 680.453 423.09 677.703V676.242H424.809V677.703C424.787 680.313 426.903 682.559 429.707 683.461L428.891 684.814C426.646 684.073 424.852 682.516 423.981 680.496C423.122 682.688 421.307 684.417 419.008 685.244L418.17 683.891ZM427.107 688.725V687.414H430.266V685.717H431.92V687.414H435.164V688.725H427.107ZM427.773 692.098C427.784 690.508 429.159 689.487 431.061 689.498C432.951 689.487 434.348 690.508 434.348 692.098C434.348 693.73 432.951 694.697 431.061 694.697C429.159 694.697 427.784 693.73 427.773 692.098ZM429.234 692.098C429.245 692.989 429.954 693.505 431.061 693.494C432.146 693.505 432.887 692.989 432.908 692.098C432.887 691.228 432.146 690.701 431.061 690.701C429.954 690.701 429.245 691.228 429.234 692.098ZM432.135 685.287V675.641H433.789V685.287H432.135ZM454.457 684.729V686.125H437.055V684.729H454.457ZM438.043 682.236C441.373 681.85 444.585 680.206 444.66 678.025H438.645V676.629H452.91V678.025H446.852C446.927 680.185 450.106 681.85 453.49 682.236L452.867 683.59C449.741 683.192 446.809 681.785 445.756 679.669C444.703 681.785 441.792 683.192 438.645 683.59L438.043 682.236ZM439.16 691.26C439.149 689.068 441.631 687.801 445.756 687.801C449.849 687.801 452.309 689.068 452.33 691.26C452.309 693.473 449.849 694.697 445.756 694.697C441.631 694.697 439.149 693.473 439.16 691.26ZM440.879 691.26C440.857 692.592 442.694 693.354 445.756 693.344C448.785 693.354 450.622 692.592 450.633 691.26C450.622 689.917 448.785 689.154 445.756 689.133C442.694 689.154 440.857 689.917 440.879 691.26ZM464.77 675.984C469.013 675.984 471.505 677.155 471.516 679.271C471.505 681.441 469.013 682.612 464.77 682.623C460.505 682.612 458.002 681.441 458.002 679.271C458.002 677.155 460.505 675.984 464.77 675.984ZM456.068 685.287V683.912H473.471V685.287H456.068ZM458.174 688.23V686.941H471.236V691.217H459.893V693.193H471.816V694.525H458.217V689.971H469.582V688.23H458.174ZM459.764 679.271C459.742 680.604 461.601 681.334 464.77 681.334C467.938 681.334 469.786 680.604 469.797 679.271C469.786 678.015 467.938 677.263 464.77 677.252C461.601 677.263 459.742 678.015 459.764 679.271ZM496.072 684.299V685.695H482.752V677.316H484.449V684.299H496.072ZM480.604 692.098V690.68H498.092V692.098H480.604ZM515.387 675.641V694.74H513.711V675.641H515.387ZM499.617 689.412C502.475 686.501 503.742 682.945 503.968 679.143H500.326V677.725H505.568C505.547 682.247 504.408 686.77 500.949 690.379L499.617 689.412ZM505.246 690.744C508.2 687.371 509.146 683.128 509.317 679.143H506.191V677.725H510.918C510.907 682.215 510.198 687.532 506.707 691.668L505.246 690.744ZM534.078 681.441V682.795H520.994V676.35H522.67V681.441H534.078ZM518.609 686.77V685.395H536.098V686.77H518.609ZM520.887 694.268V688.725H522.562V692.871H534.186V694.268H520.887ZM295.559 723.641V730.344H298.416V731.762H295.559V738.594H293.861V723.641H295.559ZM280.562 735.006C282.077 735.006 283.871 734.984 285.74 734.92V733.459C283.517 733.255 282.077 732.191 282.088 730.58C282.077 728.743 283.871 727.626 286.557 727.637C289.264 727.626 291.025 728.743 291.047 730.58C291.025 732.181 289.629 733.244 287.416 733.459V734.845C289.199 734.737 291.015 734.576 292.68 734.318L292.83 735.521C288.737 736.295 284.097 736.349 280.756 736.381L280.562 735.006ZM281.035 726.799V725.531H285.74V723.598H287.416V725.531H292.1V726.799H281.035ZM283.42 742.332V737.584H285.117V740.914H296.246V742.332H283.42ZM283.699 730.58C283.688 731.622 284.795 732.299 286.557 732.299C288.318 732.299 289.436 731.622 289.436 730.58C289.436 729.495 288.318 728.829 286.557 728.84C284.795 728.829 283.688 729.495 283.699 730.58ZM315.496 723.662V735.135H313.799V732.557H308.729V731.16H313.799V728.582H308.922C307.665 731.654 304.722 733.878 300.629 735.092L299.92 733.76C304.528 732.396 307.418 729.807 307.751 726.498H300.887V725.08H309.588C309.588 725.832 309.502 726.552 309.341 727.229H313.799V723.662H315.496ZM302.863 738.98C302.853 736.703 305.334 735.328 309.244 735.328C313.111 735.328 315.604 736.703 315.604 738.98C315.604 741.269 313.111 742.654 309.244 742.654C305.334 742.654 302.853 741.269 302.863 738.98ZM304.518 738.98C304.528 740.42 306.365 741.29 309.244 741.279C312.08 741.29 313.917 740.42 313.928 738.98C313.917 737.541 312.08 736.671 309.244 736.682C306.365 736.671 304.528 737.541 304.518 738.98ZM327.377 723.984C331.62 723.984 334.112 725.155 334.123 727.271C334.112 729.441 331.62 730.612 327.377 730.623C323.112 730.612 320.609 729.441 320.609 727.271C320.609 725.155 323.112 723.984 327.377 723.984ZM318.676 733.287V731.912H336.078V733.287H318.676ZM320.781 736.23V734.941H333.844V739.217H322.5V741.193H334.424V742.525H320.824V737.971H332.189V736.23H320.781ZM322.371 727.271C322.35 728.604 324.208 729.334 327.377 729.334C330.546 729.334 332.394 728.604 332.404 727.271C332.394 726.015 330.546 725.263 327.377 725.252C324.208 725.263 322.35 726.015 322.371 727.271ZM349.506 724.586C352.363 724.564 354.415 726.144 354.404 728.475C354.415 730.806 352.363 732.396 349.506 732.385C346.648 732.396 344.607 730.806 344.607 728.475C344.607 726.144 346.648 724.564 349.506 724.586ZM343.168 734.018C346.756 734.028 351.665 733.953 355.908 733.33L356.016 734.598C354.189 734.931 352.299 735.135 350.451 735.253V742.16H348.775V735.35C346.831 735.436 344.994 735.446 343.404 735.457L343.168 734.018ZM346.262 728.475C346.24 729.968 347.604 730.999 349.506 730.988C351.429 730.999 352.804 729.968 352.793 728.475C352.804 726.992 351.429 725.939 349.506 725.961C347.604 725.939 346.24 726.992 346.262 728.475ZM357.305 742.762V723.662H358.959V742.762H357.305ZM377.156 723.662V729.957H380.035V731.375H377.156V737.971H375.48V723.662H377.156ZM362.268 727.379V726.004H367.123V723.662H368.799V726.004H373.654V727.379H362.268ZM363.363 731.998C363.353 729.828 365.2 728.432 367.961 728.432C370.689 728.432 372.537 729.828 372.559 731.998C372.537 734.146 370.689 735.532 367.961 735.521C365.2 735.532 363.353 734.146 363.363 731.998ZM364.975 731.998C364.964 733.341 366.156 734.211 367.961 734.189C369.744 734.211 370.947 733.341 370.969 731.998C370.947 730.634 369.744 729.753 367.961 729.764C366.156 729.753 364.964 730.634 364.975 731.998ZM365.211 742.332V736.832H366.865V740.914H378.037V742.332H365.211ZM404.248 738.852V740.248H386.76V738.852H394.58V734.168H396.234V738.852H404.248ZM387.447 732.986C390.788 732.417 394.505 729.624 394.516 726.412V724.951H396.277V726.412C396.288 729.603 400.059 732.417 403.389 732.986L402.637 734.383C399.726 733.781 396.653 731.815 395.418 729.065C394.161 731.805 391.121 733.781 388.199 734.383L387.447 732.986ZM421.521 723.641V742.783H419.824V723.641H421.521ZM406.891 738.164V725.273H408.566V730.322H414.26V725.273H415.914V738.164H406.891ZM408.566 736.746H414.26V731.676H408.566V736.746ZM442.254 732.514V733.846H424.766V732.514H442.254ZM426.871 736.639V735.371H440.062V739.432H428.59V741.258H440.686V742.482H426.893V738.271H438.387V736.639H426.871ZM426.979 725.445V724.221H439.998V728.174H428.719V729.85H440.342V731.074H427.043V727.014H438.301V725.445H426.979ZM464.104 723.641V731.525H467.305V732.922H464.104V742.74H462.428V723.641H464.104ZM449.215 728.109V726.713H454.135V723.877H455.811V726.713H460.58V728.109H449.215ZM450.311 734.082C450.3 731.504 452.276 729.699 454.994 729.699C457.69 729.699 459.656 731.504 459.678 734.082C459.656 736.671 457.69 738.465 454.994 738.465C452.276 738.465 450.3 736.671 450.311 734.082ZM451.922 734.082C451.911 735.822 453.211 737.047 454.994 737.025C456.756 737.047 458.045 735.822 458.066 734.082C458.045 732.353 456.756 731.106 454.994 731.117C453.211 731.106 451.911 732.353 451.922 734.082ZM483.654 725.574V727.486C483.633 729.828 483.633 732.449 482.945 736.295L481.227 736.102C481.946 732.449 481.946 729.774 481.957 727.486V726.971H470.184V725.574H483.654ZM468.336 740.033V738.637H475.168V731.805H476.822V738.637H485.738V740.033H468.336ZM508.641 723.662V734.275H506.965V723.662H508.641ZM493 732.535C495.879 731.536 497.92 729.012 497.92 726.24V724.371H499.639V726.24C499.617 728.894 501.68 731.257 504.516 732.191L503.699 733.523C501.454 732.761 499.66 731.16 498.801 729.108C497.941 731.311 496.137 733.051 493.859 733.867L493 732.535ZM495.75 742.482V741.107H498.607V736.789H495.922V735.414H508.77V736.789H506.127V741.107H508.963V742.482H495.75ZM500.262 741.107H504.451V736.789H500.262V741.107ZM529.287 733.717V735.092H511.885V733.717H529.287ZM513.818 728.109C513.818 725.714 516.439 724.307 520.586 724.328C524.689 724.307 527.321 725.714 527.332 728.109C527.321 730.483 524.689 731.912 520.586 731.912C516.439 731.912 513.818 730.483 513.818 728.109ZM514.141 742.332V736.768H515.838V740.914H527.354V742.332H514.141ZM515.559 728.109C515.548 729.624 517.503 730.537 520.586 730.537C523.647 730.537 525.603 729.624 525.613 728.109C525.603 726.616 523.647 725.682 520.586 725.682C517.503 725.682 515.548 726.616 515.559 728.109ZM317.204 771.641V779.418H320.298V780.836H317.204V790.74H315.528V771.641H317.204ZM302.552 785.777C307.482 783.328 310.168 779.644 310.555 775.121H303.433V773.703H312.263C312.252 779.106 309.717 784.037 303.497 787.109L302.552 785.777ZM336.54 772.887V774.562C336.54 776.367 336.54 778.354 335.992 781.094H338.839V782.49H330.954V790.783H329.257V782.49H321.437V781.094H334.284C334.864 778.344 334.864 776.346 334.864 774.562V774.283H323.628V772.887H336.54ZM361.72 771.641V790.783H360.022V771.641H361.72ZM347.089 786.164V773.273H348.765V778.322H354.458V773.273H356.112V786.164H347.089ZM348.765 784.746H354.458V779.676H348.765V784.746ZM382.388 781.094V782.49H364.985V781.094H369.304V778.397C367.778 777.807 366.919 776.84 366.919 775.551C366.919 773.306 369.497 772.017 373.687 772.006C377.844 772.017 380.422 773.306 380.433 775.551C380.422 776.829 379.573 777.796 378.069 778.397V781.094H382.388ZM367.091 787.324C367.08 785.144 369.54 783.94 373.687 783.951C377.779 783.94 380.239 785.144 380.261 787.324C380.239 789.505 377.779 790.697 373.687 790.697C369.54 790.697 367.08 789.505 367.091 787.324ZM368.659 775.551C368.648 776.947 370.561 777.753 373.687 777.764C376.78 777.753 378.703 776.947 378.714 775.551C378.703 774.176 376.78 773.338 373.687 773.338C370.561 773.338 368.648 774.176 368.659 775.551ZM368.81 787.324C368.788 788.624 370.625 789.397 373.687 789.387C376.716 789.397 378.553 788.624 378.563 787.324C378.553 786.024 376.716 785.262 373.687 785.24C370.625 785.262 368.788 786.024 368.81 787.324ZM370.979 781.094H376.394V778.849C375.588 778.999 374.686 779.074 373.687 779.074C372.688 779.074 371.785 778.999 370.979 778.859V781.094ZM399.747 771.641V790.783H398.05V771.641H399.747ZM384.708 779.783C384.719 775.723 386.738 773.134 389.585 773.123C392.421 773.134 394.473 775.723 394.462 779.783C394.473 783.854 392.421 786.433 389.585 786.422C386.738 786.433 384.719 783.854 384.708 779.783ZM386.341 779.783C386.341 782.888 387.673 784.929 389.585 784.918C391.508 784.929 392.829 782.888 392.829 779.783C392.829 776.679 391.508 774.638 389.585 774.627C387.673 774.638 386.341 776.679 386.341 779.783ZM426.001 782.984V784.359H418.03V790.74H416.376V784.359H408.513V782.984H426.001ZM410.747 780.664V772.436H412.423V775.078H422.048V772.436H423.745V780.664H410.747ZM412.423 779.289H422.048V776.453H412.423V779.289ZM442.479 771.641V776.324H445.358V777.742H442.479V782.49H440.804V771.641H442.479ZM428.45 781.352V772.951H436.915V774.326H430.126V779.955C433.961 779.977 436.142 779.826 438.698 779.332L438.913 780.707C436.228 781.255 433.95 781.362 429.933 781.352H428.45ZM430.427 790.482V783.479H442.479V790.482H430.427ZM432.081 789.107H440.804V784.854H432.081V789.107ZM462.31 771.641V790.783H460.612V771.641H462.31ZM447.271 779.783C447.281 775.723 449.301 773.134 452.147 773.123C454.983 773.134 457.035 775.723 457.024 779.783C457.035 783.854 454.983 786.433 452.147 786.422C449.301 786.433 447.281 783.854 447.271 779.783ZM448.903 779.783C448.903 782.888 450.235 784.929 452.147 784.918C454.07 784.929 455.392 782.888 455.392 779.783C455.392 776.679 454.07 774.638 452.147 774.627C450.235 774.638 448.903 776.679 448.903 779.783ZM482.483 779.891V781.287H478.294V785.047C480.163 784.972 482.043 784.843 483.815 784.639L483.944 785.906C479.712 786.519 475.093 786.604 471.44 786.594L471.204 785.176C472.869 785.176 474.717 785.165 476.618 785.111V781.287H472.665V773.467H482.397V774.842H474.319V779.891H482.483ZM485.083 790.783V771.641H486.759V790.783H485.083ZM505.558 777.441V778.795H492.474V772.35H494.149V777.441H505.558ZM490.089 782.77V781.395H507.577V782.77H490.089ZM492.366 790.268V784.725H494.042V788.871H505.665V790.268H492.366Z" fill="#303030" fill-opacity="0.8"/>
<path d="M857.179 560.662V574.627H855.503V560.662H857.179ZM841.86 566.678C841.85 563.928 844.009 562.005 846.866 561.994C849.724 562.005 851.861 563.928 851.872 566.678C851.861 569.46 849.724 571.394 846.866 571.383C844.009 571.394 841.85 569.46 841.86 566.678ZM843.515 566.678C843.493 568.579 844.933 569.9 846.866 569.9C848.768 569.9 850.218 568.579 850.218 566.678C850.218 564.809 848.768 563.477 846.866 563.477C844.933 563.477 843.493 564.809 843.515 566.678ZM844.847 579.332V573.209H846.522V577.914H857.78V579.332H844.847ZM868.286 562.982V564.336H862.786V568.117H867.405V569.471H862.786V573.768C865.525 573.735 867.201 573.628 869.274 573.252L869.425 574.627C867.212 575.078 865.407 575.132 862.378 575.143H861.175V562.982H868.286ZM868.437 569.299V567.902H871.251V561.113H872.862V578.752H871.251V569.299H868.437ZM875.14 579.74V560.641H876.772V579.74H875.14ZM895.206 560.641V579.783H893.53V560.641H895.206ZM880.511 563.82V562.424H889.405V569.213H882.272V573.725C885.441 573.735 888.267 573.585 891.683 573.037L891.854 574.455C888.342 575.003 885.441 575.143 882.144 575.143H880.554V567.838H887.708V563.82H880.511ZM903.585 562.123C906.185 562.134 908.064 564.368 908.322 567.945H912.608V560.641H914.284V579.783H912.608V569.342H908.344C908.161 573.091 906.249 575.433 903.585 575.422C900.76 575.433 898.783 572.854 898.794 568.783C898.783 564.723 900.76 562.134 903.585 562.123ZM900.405 568.783C900.416 571.888 901.705 573.929 903.585 573.918C905.454 573.929 906.765 571.888 906.765 568.783C906.765 565.679 905.454 563.638 903.585 563.627C901.705 563.638 900.416 565.679 900.405 568.783ZM933.835 560.641V579.74H932.202V560.641H933.835ZM917.7 568.891C917.711 564.83 919.322 562.263 921.804 562.252C924.124 562.263 925.692 564.497 925.907 568.096H928.378V561.049H929.989V578.773H928.378V569.492H925.918C925.757 573.209 924.156 575.54 921.804 575.529C919.322 575.54 917.711 572.951 917.7 568.891ZM919.29 568.891C919.269 571.984 920.257 573.939 921.804 573.918C923.361 573.939 924.35 571.984 924.339 568.891C924.35 565.786 923.361 563.842 921.804 563.842C920.257 563.842 919.269 565.786 919.29 568.891ZM946.726 572.543V574.627H955.985V572.543H957.64V579.482H945.05V572.543H946.726ZM942.021 569.02C945.651 569.02 950.453 569.02 954.653 568.482L954.761 569.686C953.031 569.976 951.248 570.147 949.497 570.255V573.123H947.821V570.341C945.812 570.416 943.911 570.416 942.257 570.416L942.021 569.02ZM942.88 566.506C945.662 565.861 947.596 564.132 947.606 562.08V561.113H949.325V562.08C949.325 564.035 951.28 565.646 954.03 566.248L953.3 567.537C951.065 567.032 949.314 565.861 948.477 564.261C947.671 565.969 945.92 567.258 943.653 567.838L942.88 566.506ZM946.726 578.107H955.985V575.959H946.726V578.107ZM955.964 571.619V560.662H957.64V571.619H955.964ZM977.362 560.641V579.74H975.751V560.641H977.362ZM961.034 574.391C965.181 571.931 967.265 568.482 967.587 564.486H961.851V563.09H969.263C969.263 564.97 968.962 566.785 968.307 568.482H971.733V561.156H973.345V578.773H971.733V569.857H967.684C966.534 572.081 964.687 574.047 962.022 575.615L961.034 574.391ZM993.991 571.641V576.023H989.63V578.172C991.757 578.172 993.024 578.107 994.614 577.807L994.765 579.096C992.981 579.461 991.596 579.493 989.028 579.482H988.019V574.799H992.38V572.93H987.997V571.641H993.991ZM985.677 568.891C988.545 567.913 990.597 565.453 990.597 562.703V561.242H992.315V562.703C992.294 565.313 994.41 567.559 997.214 568.461L996.397 569.814C994.152 569.073 992.358 567.516 991.488 565.496C990.629 567.688 988.813 569.417 986.515 570.244L985.677 568.891ZM994.614 573.725V572.414H997.772V570.717H999.427V572.414H1002.67V573.725H994.614ZM995.28 577.098C995.291 575.508 996.666 574.487 998.567 574.498C1000.46 574.487 1001.85 575.508 1001.85 577.098C1001.85 578.73 1000.46 579.697 998.567 579.697C996.666 579.697 995.291 578.73 995.28 577.098ZM996.741 577.098C996.752 577.989 997.461 578.505 998.567 578.494C999.652 578.505 1000.39 577.989 1000.42 577.098C1000.39 576.228 999.652 575.701 998.567 575.701C997.461 575.701 996.752 576.228 996.741 577.098ZM999.642 570.287V560.641H1001.3V570.287H999.642ZM1021.96 569.729V571.125H1004.56V569.729H1021.96ZM1005.55 567.236C1008.88 566.85 1012.09 565.206 1012.17 563.025H1006.15V561.629H1020.42V563.025H1014.36C1014.43 565.185 1017.61 566.85 1021 567.236L1020.37 568.59C1017.25 568.192 1014.32 566.785 1013.26 564.669C1012.21 566.785 1009.3 568.192 1006.15 568.59L1005.55 567.236ZM1006.67 576.26C1006.66 574.068 1009.14 572.801 1013.26 572.801C1017.36 572.801 1019.82 574.068 1019.84 576.26C1019.82 578.473 1017.36 579.697 1013.26 579.697C1009.14 579.697 1006.66 578.473 1006.67 576.26ZM1008.39 576.26C1008.36 577.592 1010.2 578.354 1013.26 578.344C1016.29 578.354 1018.13 577.592 1018.14 576.26C1018.13 574.917 1016.29 574.154 1013.26 574.133C1010.2 574.154 1008.36 574.917 1008.39 576.26ZM1032.28 560.984C1036.52 560.984 1039.01 562.155 1039.02 564.271C1039.01 566.441 1036.52 567.612 1032.28 567.623C1028.01 567.612 1025.51 566.441 1025.51 564.271C1025.51 562.155 1028.01 560.984 1032.28 560.984ZM1023.58 570.287V568.912H1040.98V570.287H1023.58ZM1025.68 573.23V571.941H1038.74V576.217H1027.4V578.193H1039.32V579.525H1025.72V574.971H1037.09V573.23H1025.68ZM1027.27 564.271C1027.25 565.604 1029.11 566.334 1032.28 566.334C1035.45 566.334 1037.29 565.604 1037.3 564.271C1037.29 563.015 1035.45 562.263 1032.28 562.252C1029.11 562.263 1027.25 563.015 1027.27 564.271ZM1063.58 569.299V570.695H1050.26V562.316H1051.96V569.299H1063.58ZM1048.11 577.098V575.68H1065.6V577.098H1048.11ZM1082.87 560.641V579.74H1081.22V572.328H1076.39C1075.78 573.854 1074.93 575.325 1073.81 576.668L1072.39 575.744C1075.32 572.371 1076.28 568.128 1076.43 564.143H1073.44V562.725H1078.04C1078.04 563.734 1078 564.787 1077.89 565.861H1081.22V560.641H1082.87ZM1066.95 574.391C1069.78 571.501 1071.01 567.945 1071.24 564.143H1067.62V562.725H1072.86C1072.85 567.247 1071.73 571.737 1068.31 575.357L1066.95 574.391ZM1076.91 570.91H1081.22V567.236H1077.73C1077.55 568.461 1077.3 569.696 1076.91 570.91ZM827.67 610.641V618.203H830.871V619.621H827.67V629.783H825.994V610.641H827.67ZM813.727 624.992V612.51H822.643V613.906H815.402V623.574C818.861 623.563 821.3 623.413 824.146 622.887L824.361 624.348C821.364 624.885 818.861 624.992 815.23 624.992H813.727ZM849.67 613.541V614.938H846.834V617.602H849.67V619.02H846.834V621.984H845.158V610.641H846.834V613.541H849.67ZM832.268 616.291C832.257 613.627 834.384 611.79 837.273 611.801C840.185 611.79 842.279 613.627 842.301 616.291C842.279 618.944 840.185 620.771 837.273 620.781C834.384 620.771 832.257 618.944 832.268 616.291ZM833.922 616.291C833.911 618.096 835.34 619.342 837.273 619.363C839.229 619.342 840.636 618.096 840.646 616.291C840.636 614.497 839.229 613.219 837.273 613.24C835.34 613.219 833.911 614.497 833.922 616.291ZM834.373 626.152C834.384 623.886 836.812 622.575 840.711 622.564C844.61 622.575 847.006 623.886 847.006 626.152C847.006 628.376 844.61 629.697 840.711 629.697C836.812 629.697 834.384 628.376 834.373 626.152ZM836.07 626.152C836.049 627.527 837.832 628.333 840.711 628.344C843.601 628.333 845.362 627.527 845.373 626.152C845.362 624.767 843.601 623.939 840.711 623.939C837.832 623.939 836.049 624.767 836.07 626.152ZM865.848 610.662V616.957H868.727V618.375H865.848V624.971H864.172V610.662H865.848ZM850.959 614.379V613.004H855.814V610.662H857.49V613.004H862.346V614.379H850.959ZM852.055 618.998C852.044 616.828 853.892 615.432 856.652 615.432C859.381 615.432 861.229 616.828 861.25 618.998C861.229 621.146 859.381 622.532 856.652 622.521C853.892 622.532 852.044 621.146 852.055 618.998ZM853.666 618.998C853.655 620.341 854.848 621.211 856.652 621.189C858.436 621.211 859.639 620.341 859.66 618.998C859.639 617.634 858.436 616.753 856.652 616.764C854.848 616.753 853.655 617.634 853.666 618.998ZM853.902 629.332V623.832H855.557V627.914H866.729V629.332H853.902ZM891.221 610.662V624.627H889.545V610.662H891.221ZM875.902 616.678C875.892 613.928 878.051 612.005 880.908 611.994C883.766 612.005 885.903 613.928 885.914 616.678C885.903 619.46 883.766 621.394 880.908 621.383C878.051 621.394 875.892 619.46 875.902 616.678ZM877.557 616.678C877.535 618.579 878.975 619.9 880.908 619.9C882.81 619.9 884.26 618.579 884.26 616.678C884.26 614.809 882.81 613.477 880.908 613.477C878.975 613.477 877.535 614.809 877.557 616.678ZM878.889 629.332V623.209H880.564V627.914H891.822V629.332H878.889ZM902.328 612.982V614.336H896.828V618.117H901.447V619.471H896.828V623.768C899.567 623.735 901.243 623.628 903.316 623.252L903.467 624.627C901.254 625.078 899.449 625.132 896.42 625.143H895.217V612.982H902.328ZM902.479 619.299V617.902H905.293V611.113H906.904V628.752H905.293V619.299H902.479ZM909.182 629.74V610.641H910.814V629.74H909.182ZM929.248 610.641V629.783H927.572V610.641H929.248ZM914.553 613.82V612.424H923.447V619.213H916.314V623.725C919.483 623.735 922.309 623.585 925.725 623.037L925.896 624.455C922.384 625.003 919.483 625.143 916.186 625.143H914.596V617.838H921.75V613.82H914.553ZM937.627 612.123C940.227 612.134 942.106 614.368 942.364 617.945H946.65V610.641H948.326V629.783H946.65V619.342H942.386C942.203 623.091 940.291 625.433 937.627 625.422C934.802 625.433 932.825 622.854 932.836 618.783C932.825 614.723 934.802 612.134 937.627 612.123ZM934.447 618.783C934.458 621.888 935.747 623.929 937.627 623.918C939.496 623.929 940.807 621.888 940.807 618.783C940.807 615.679 939.496 613.638 937.627 613.627C935.747 613.638 934.458 615.679 934.447 618.783ZM968.973 619.514V620.846H951.484V619.514H968.973ZM953.59 623.639V622.371H966.781V626.432H955.309V628.258H967.404V629.482H953.611V625.271H965.105V623.639H953.59ZM953.697 612.445V611.221H966.717V615.174H955.438V616.85H967.061V618.074H953.762V614.014H965.02V612.445H953.697ZM982.83 615.775C982.819 619.267 985.193 622.769 988.008 624.047L986.977 625.379C984.796 624.326 982.916 622.06 982.003 619.342C981.122 622.221 979.242 624.638 977.008 625.766L975.934 624.348C978.78 623.048 981.133 619.396 981.154 615.775V612.295H982.83V615.775ZM990.092 629.783V610.641H991.789V629.783H990.092ZM1010.48 619.6V620.975H1004.57V625.916H1012.54V627.334H995.055V625.916H1002.92V620.975H997.289V612.209H1010.29V613.584H998.986V619.6H1010.48ZM1028.85 610.641V618.525H1032.05V619.922H1028.85V629.74H1027.17V610.641H1028.85ZM1013.96 615.109V613.713H1018.88V610.877H1020.56V613.713H1025.33V615.109H1013.96ZM1015.06 621.082C1015.05 618.504 1017.02 616.699 1019.74 616.699C1022.44 616.699 1024.4 618.504 1024.42 621.082C1024.4 623.671 1022.44 625.465 1019.74 625.465C1017.02 625.465 1015.05 623.671 1015.06 621.082ZM1016.67 621.082C1016.66 622.822 1017.96 624.047 1019.74 624.025C1021.5 624.047 1022.79 622.822 1022.81 621.082C1022.79 619.353 1021.5 618.106 1019.74 618.117C1017.96 618.106 1016.66 619.353 1016.67 621.082ZM1048.4 612.574V614.486C1048.38 616.828 1048.38 619.449 1047.69 623.295L1045.97 623.102C1046.69 619.449 1046.69 616.774 1046.7 614.486V613.971H1034.93V612.574H1048.4ZM1033.08 627.033V625.637H1039.91V618.805H1041.57V625.637H1050.48V627.033H1033.08ZM1073.39 610.662V621.275H1071.71V610.662H1073.39ZM1057.75 619.535C1060.62 618.536 1062.67 616.012 1062.67 613.24V611.371H1064.38V613.24C1064.36 615.894 1066.43 618.257 1069.26 619.191L1068.45 620.523C1066.2 619.761 1064.41 618.16 1063.55 616.108C1062.69 618.311 1060.88 620.051 1058.61 620.867L1057.75 619.535ZM1060.5 629.482V628.107H1063.35V623.789H1060.67V622.414H1073.52V623.789H1070.87V628.107H1073.71V629.482H1060.5ZM1065.01 628.107H1069.2V623.789H1065.01V628.107ZM1085.33 611.887C1089.32 611.897 1092.31 613.981 1092.31 617.129C1092.31 620.309 1089.32 622.393 1085.33 622.371C1081.35 622.393 1078.35 620.309 1078.35 617.129C1078.35 613.981 1081.35 611.897 1085.33 611.887ZM1076.63 627.205V625.787H1094.12V627.205H1076.63ZM1079.96 617.129C1079.94 619.449 1082.25 620.996 1085.33 620.996C1088.39 620.996 1090.68 619.449 1090.68 617.129C1090.68 614.841 1088.39 613.251 1085.33 613.262C1082.25 613.251 1079.94 614.841 1079.96 617.129ZM1113.52 618.268V619.686H1110.43V629.74H1108.75V610.641H1110.43V618.268H1113.52ZM1096.44 624.885V612.531H1098.12V623.467C1100.91 623.467 1103.75 623.252 1106.9 622.586L1107.12 624.025C1103.82 624.691 1100.85 624.885 1097.96 624.885H1096.44ZM853.43 660.641V668.418H856.523V669.836H853.43V679.74H851.754V660.641H853.43ZM838.777 674.777C843.708 672.328 846.394 668.644 846.78 664.121H839.658V662.703H848.488C848.478 668.106 845.942 673.037 839.723 676.109L838.777 674.777ZM872.766 661.887V663.562C872.766 665.367 872.766 667.354 872.218 670.094H875.064V671.49H867.18V679.783H865.482V671.49H857.662V670.094H870.51C871.09 667.344 871.09 665.346 871.09 663.562V663.283H859.854V661.887H872.766ZM897.945 660.641V679.783H896.248V660.641H897.945ZM883.314 675.164V662.273H884.99V667.322H890.684V662.273H892.338V675.164H883.314ZM884.99 673.746H890.684V668.676H884.99V673.746ZM918.613 670.094V671.49H901.211V670.094H905.529V667.397C904.004 666.807 903.145 665.84 903.145 664.551C903.145 662.306 905.723 661.017 909.912 661.006C914.069 661.017 916.647 662.306 916.658 664.551C916.647 665.829 915.799 666.796 914.295 667.397V670.094H918.613ZM903.316 676.324C903.306 674.144 905.766 672.94 909.912 672.951C914.005 672.94 916.465 674.144 916.486 676.324C916.465 678.505 914.005 679.697 909.912 679.697C905.766 679.697 903.306 678.505 903.316 676.324ZM904.885 664.551C904.874 665.947 906.786 666.753 909.912 666.764C913.006 666.753 914.929 665.947 914.939 664.551C914.929 663.176 913.006 662.338 909.912 662.338C906.786 662.338 904.874 663.176 904.885 664.551ZM905.035 676.324C905.014 677.624 906.851 678.397 909.912 678.387C912.941 678.397 914.778 677.624 914.789 676.324C914.778 675.024 912.941 674.262 909.912 674.24C906.851 674.262 905.014 675.024 905.035 676.324ZM907.205 670.094H912.619V667.849C911.813 667.999 910.911 668.074 909.912 668.074C908.913 668.074 908.011 667.999 907.205 667.859V670.094ZM928.926 660.984C933.169 660.984 935.661 662.155 935.672 664.271C935.661 666.441 933.169 667.612 928.926 667.623C924.661 667.612 922.158 666.441 922.158 664.271C922.158 662.155 924.661 660.984 928.926 660.984ZM920.225 670.287V668.912H937.627V670.287H920.225ZM922.33 673.23V671.941H935.393V676.217H924.049V678.193H935.973V679.525H922.373V674.971H933.738V673.23H922.33ZM923.92 664.271C923.898 665.604 925.757 666.334 928.926 666.334C932.095 666.334 933.942 665.604 933.953 664.271C933.942 663.015 932.095 662.263 928.926 662.252C925.757 662.263 923.898 663.015 923.92 664.271ZM962.227 671.984V673.359H954.256V679.74H952.602V673.359H944.738V671.984H962.227ZM946.973 669.664V661.436H948.648V664.078H958.273V661.436H959.971V669.664H946.973ZM948.648 668.289H958.273V665.453H948.648V668.289ZM978.705 660.641V665.324H981.584V666.742H978.705V671.49H977.029V660.641H978.705ZM964.676 670.352V661.951H973.141V663.326H966.352V668.955C970.187 668.977 972.367 668.826 974.924 668.332L975.139 669.707C972.453 670.255 970.176 670.362 966.158 670.352H964.676ZM966.652 679.482V672.479H978.705V679.482H966.652ZM968.307 678.107H977.029V673.854H968.307V678.107ZM992.305 663.455C992.315 666.731 996.054 669.643 999.373 670.266L998.6 671.684C995.71 671.018 992.681 668.966 991.445 666.162C990.199 668.966 987.181 671.007 984.291 671.684L983.518 670.266C986.826 669.632 990.532 666.742 990.543 663.455V661.994H992.305V663.455ZM982.787 677.141V675.744H1000.28V677.141H982.787ZM1017.61 660.641V679.783H1015.94V669.406H1012.22V667.988H1015.94V660.641H1017.61ZM1002.47 663.82V662.424H1011.06V669.105H1004.21V673.746C1007.5 673.746 1009.89 673.639 1012.67 673.123L1012.8 674.541C1009.93 675.057 1007.45 675.175 1003.99 675.186H1002.53V667.709H1009.43V663.82H1002.47ZM1036.63 660.662V679.762H1034.91V675.014H1030.5V673.725H1034.91V660.662H1036.63ZM1020.73 670.717C1024.37 670.706 1029.21 670.695 1033.43 670.094L1033.53 671.361C1031.64 671.684 1029.68 671.866 1027.78 671.984V679.16H1026.08V672.07C1024.25 672.135 1022.5 672.156 1020.96 672.156L1020.73 670.717ZM1022.19 665.367C1022.18 663.122 1024.16 661.607 1027.02 661.607C1029.86 661.607 1031.85 663.122 1031.84 665.367C1031.85 667.634 1029.86 669.095 1027.02 669.105C1024.16 669.095 1022.18 667.634 1022.19 665.367ZM1023.78 665.367C1023.77 666.817 1025.1 667.806 1027.02 667.795C1028.9 667.806 1030.24 666.817 1030.25 665.367C1030.24 663.928 1028.9 662.929 1027.02 662.918C1025.1 662.929 1023.77 663.928 1023.78 665.367ZM1060.13 660.641V668.525H1063.33V669.922H1060.13V679.74H1058.46V660.641H1060.13ZM1045.24 665.109V663.713H1050.16V660.877H1051.84V663.713H1056.61V665.109H1045.24ZM1046.34 671.082C1046.33 668.504 1048.3 666.699 1051.02 666.699C1053.72 666.699 1055.68 668.504 1055.71 671.082C1055.68 673.671 1053.72 675.465 1051.02 675.465C1048.3 675.465 1046.33 673.671 1046.34 671.082ZM1047.95 671.082C1047.94 672.822 1049.24 674.047 1051.02 674.025C1052.78 674.047 1054.07 672.822 1054.09 671.082C1054.07 669.353 1052.78 668.106 1051.02 668.117C1049.24 668.106 1047.94 669.353 1047.95 671.082ZM1079.81 666.441V667.795H1066.73V661.35H1068.4V666.441H1079.81ZM1064.34 671.77V670.395H1081.83V671.77H1064.34ZM1066.62 679.268V673.725H1068.29V677.871H1079.92V679.268H1066.62ZM936.617 712.445V728H934.662V714.465H934.576L930.795 716.979V715.023L934.662 712.445H936.617ZM955.846 710.662V724.627H954.17V710.662H955.846ZM940.527 716.678C940.517 713.928 942.676 712.005 945.533 711.994C948.391 712.005 950.528 713.928 950.539 716.678C950.528 719.46 948.391 721.394 945.533 721.383C942.676 721.394 940.517 719.46 940.527 716.678ZM942.182 716.678C942.16 718.579 943.6 719.9 945.533 719.9C947.435 719.9 948.885 718.579 948.885 716.678C948.885 714.809 947.435 713.477 945.533 713.477C943.6 713.477 942.16 714.809 942.182 716.678ZM943.514 729.332V723.209H945.189V727.914H956.447V729.332H943.514ZM973.871 710.641V718.418H976.965V719.836H973.871V729.74H972.195V710.641H973.871ZM959.219 724.777C964.149 722.328 966.835 718.644 967.222 714.121H960.1V712.703H968.93C968.919 718.106 966.384 723.037 960.164 726.109L959.219 724.777ZM993.207 711.887V713.562C993.207 715.367 993.207 717.354 992.659 720.094H995.506V721.49H987.621V729.783H985.924V721.49H978.104V720.094H990.951C991.531 717.344 991.531 715.346 991.531 713.562V713.283H980.295V711.887H993.207Z" fill="#303030" fill-opacity="0.8"/>
<path d="M906.889 238.385H912.576V254H915.877V238.385H921.539V235.617H906.889V238.385ZM921.463 250.115C921.463 252.845 923.456 254.279 926.084 254.279C928.255 254.279 929.537 253.264 930.146 252.096H930.248V254H933.346V244.783C933.346 241.114 930.324 240.035 927.709 240.035C924.256 240.035 922.148 241.8 921.92 244.148H925.043C925.297 243.158 926.186 242.498 927.633 242.498C929.245 242.498 930.121 243.285 930.121 244.656L930.134 245.761C929.524 245.786 927.557 245.875 926.592 245.951C924.04 246.116 921.463 247.018 921.463 250.115ZM924.586 250.09C924.586 248.884 925.563 248.236 927.1 248.109C927.747 248.059 929.55 247.944 930.134 247.919L930.146 249.049C930.146 250.598 928.89 251.893 926.922 251.893C925.563 251.893 924.586 251.283 924.586 250.09ZM936.393 254H939.643V245.875C939.643 244.136 940.963 242.892 942.766 242.879C943.299 242.892 943.972 242.98 944.264 243.082V240.086C943.959 240.048 943.451 240.01 943.096 240.01C941.509 240.01 940.188 240.911 939.693 242.498H939.541V240.213H936.393V254ZM951.754 259.459C955.474 259.459 958.203 257.758 958.203 254.229V240.213H955.004V242.473H954.852C954.344 241.495 953.315 240.035 950.891 240.035C947.691 240.035 945.178 242.46 945.178 246.992C945.178 251.486 947.679 253.797 950.865 253.797C953.239 253.797 954.344 252.527 954.852 251.512H955.004V254.152C955.004 256.171 953.747 257.009 951.805 257.021C950.142 257.009 949.012 256.45 948.783 255.244H945.559C945.774 257.834 948.098 259.459 951.754 259.459ZM948.479 247.043C948.479 244.529 949.596 242.688 951.754 242.676C953.861 242.688 955.029 244.415 955.029 247.043C955.029 249.684 953.849 251.258 951.754 251.258C949.621 251.258 948.479 249.582 948.479 247.043ZM967.42 254.279C970.619 254.279 972.828 252.705 973.412 250.318H970.238C969.819 251.144 968.867 251.753 967.445 251.74C965.351 251.753 963.967 250.356 963.916 248.008H973.539V246.992C973.539 242.155 970.619 240.035 967.242 240.035C963.307 240.035 960.717 242.93 960.717 247.195C960.717 251.512 963.269 254.279 967.42 254.279ZM963.929 245.799C964.043 244.047 965.351 242.549 967.293 242.549C969.159 242.549 970.429 243.92 970.441 245.799H963.929ZM982.934 240.213H980.217V236.912H976.992V240.213H975.012V242.701H976.992V250.395C976.967 252.984 978.846 254.19 981.283 254.178C982.108 254.19 982.73 254.114 983.111 254.051V251.41C982.705 251.436 982.07 251.474 981.689 251.461C980.877 251.448 980.217 251.182 980.217 249.861V242.701H982.934V240.213ZM985.422 254H988.672V240.213H985.422V254ZM985.193 236.48C985.193 237.458 986.044 238.245 987.072 238.258C988.101 238.245 988.951 237.458 988.951 236.48C988.951 235.516 988.101 234.729 987.072 234.729C986.044 234.729 985.193 235.516 985.193 236.48ZM995.02 245.926C995.02 243.92 996.226 242.765 997.939 242.777C999.628 242.765 1000.63 243.869 1000.63 245.723V254H1003.86V245.215C1003.87 241.914 1001.99 240.035 999.133 240.035C997.076 240.035 995.667 241.013 995.045 242.549H994.867V240.213H991.77V254H995.02V245.926ZM1012.97 259.459C1016.69 259.459 1019.42 257.758 1019.42 254.229V240.213H1016.22V242.473H1016.07C1015.56 241.495 1014.53 240.035 1012.11 240.035C1008.91 240.035 1006.39 242.46 1006.39 246.992C1006.39 251.486 1008.9 253.797 1012.08 253.797C1014.46 253.797 1015.56 252.527 1016.07 251.512H1016.22V254.152C1016.22 256.171 1014.96 257.009 1013.02 257.021C1011.36 257.009 1010.23 256.45 1010 255.244H1006.78C1006.99 257.834 1009.31 259.459 1012.97 259.459ZM1009.7 247.043C1009.7 244.529 1010.81 242.688 1012.97 242.676C1015.08 242.688 1016.25 244.415 1016.25 247.043C1016.25 249.684 1015.07 251.258 1012.97 251.258C1010.84 251.258 1009.7 249.582 1009.7 247.043Z" fill="white"/>
<rect x="176" y="211" width="459" height="69" rx="10" fill="#4ECB69"/>
<path d="M330.705 241.67H333.879C333.828 238.56 331.175 236.363 327.277 236.363C323.405 236.363 320.523 238.521 320.523 241.771C320.523 244.412 322.402 245.936 325.424 246.723L327.506 247.256C329.499 247.764 330.819 248.373 330.832 249.82C330.819 251.395 329.321 252.448 327.15 252.461C325.056 252.448 323.443 251.509 323.291 249.592H320.041C320.181 253.223 322.897 255.279 327.176 255.279C331.581 255.279 334.133 253.07 334.133 249.846C334.133 246.646 331.492 245.199 328.75 244.564L327.023 244.107C325.5 243.752 323.862 243.117 323.875 241.568C323.888 240.185 325.132 239.169 327.227 239.182C329.207 239.169 330.54 240.083 330.705 241.67ZM342.842 255.279C346.041 255.279 348.25 253.705 348.834 251.318H345.66C345.241 252.144 344.289 252.753 342.867 252.74C340.772 252.753 339.389 251.356 339.338 249.008H348.961V247.992C348.961 243.155 346.041 241.035 342.664 241.035C338.729 241.035 336.139 243.93 336.139 248.195C336.139 252.512 338.69 255.279 342.842 255.279ZM339.351 246.799C339.465 245.047 340.772 243.549 342.715 243.549C344.581 243.549 345.851 244.92 345.863 246.799H339.351ZM357.492 260.459C361.212 260.459 363.941 258.758 363.941 255.229V241.213H360.742V243.473H360.59C360.082 242.495 359.054 241.035 356.629 241.035C353.43 241.035 350.916 243.46 350.916 247.992C350.916 252.486 353.417 254.797 356.604 254.797C358.978 254.797 360.082 253.527 360.59 252.512H360.742V255.152C360.742 257.171 359.485 258.009 357.543 258.021C355.88 258.009 354.75 257.45 354.521 256.244H351.297C351.513 258.834 353.836 260.459 357.492 260.459ZM354.217 248.043C354.217 245.529 355.334 243.688 357.492 243.676C359.6 243.688 360.768 245.415 360.768 248.043C360.768 250.684 359.587 252.258 357.492 252.258C355.359 252.258 354.217 250.582 354.217 248.043ZM367.039 255H370.289V246.621C370.289 244.907 371.432 243.752 372.828 243.752C374.212 243.752 375.151 244.679 375.164 246.113V255H378.312V246.393C378.312 244.831 379.239 243.752 380.826 243.752C382.146 243.752 383.188 244.526 383.188 246.24V255H386.412V245.732C386.425 242.66 384.647 241.035 382.121 241.035C380.115 241.035 378.579 242.025 377.982 243.549H377.83C377.31 241.987 375.964 241.035 374.098 241.035C372.27 241.035 370.886 241.975 370.314 243.549H370.137V241.213H367.039V255ZM395.629 255.279C398.828 255.279 401.037 253.705 401.621 251.318H398.447C398.028 252.144 397.076 252.753 395.654 252.74C393.56 252.753 392.176 251.356 392.125 249.008H401.748V247.992C401.748 243.155 398.828 241.035 395.451 241.035C391.516 241.035 388.926 243.93 388.926 248.195C388.926 252.512 391.478 255.279 395.629 255.279ZM392.138 246.799C392.252 245.047 393.56 243.549 395.502 243.549C397.368 243.549 398.638 244.92 398.65 246.799H392.138ZM407.512 246.926C407.512 244.92 408.718 243.765 410.432 243.777C412.12 243.765 413.123 244.869 413.123 246.723V255H416.348V246.215C416.36 242.914 414.481 241.035 411.625 241.035C409.568 241.035 408.159 242.013 407.537 243.549H407.359V241.213H404.262V255H407.512V246.926ZM426.326 241.213H423.609V237.912H420.385V241.213H418.404V243.701H420.385V251.395C420.359 253.984 422.238 255.19 424.676 255.178C425.501 255.19 426.123 255.114 426.504 255.051V252.41C426.098 252.436 425.463 252.474 425.082 252.461C424.27 252.448 423.609 252.182 423.609 250.861V243.701H426.326V241.213ZM428.18 251.115C428.18 253.845 430.173 255.279 432.801 255.279C434.972 255.279 436.254 254.264 436.863 253.096H436.965V255H440.062V245.783C440.062 242.114 437.041 241.035 434.426 241.035C430.973 241.035 428.865 242.8 428.637 245.148H431.76C432.014 244.158 432.902 243.498 434.35 243.498C435.962 243.498 436.838 244.285 436.838 245.656L436.851 246.761C436.241 246.786 434.273 246.875 433.309 246.951C430.757 247.116 428.18 248.018 428.18 251.115ZM431.303 251.09C431.303 249.884 432.28 249.236 433.816 249.109C434.464 249.059 436.267 248.944 436.851 248.919L436.863 250.049C436.863 251.598 435.606 252.893 433.639 252.893C432.28 252.893 431.303 252.283 431.303 251.09ZM449.99 241.213H447.273V237.912H444.049V241.213H442.068V243.701H444.049V251.395C444.023 253.984 445.902 255.19 448.34 255.178C449.165 255.19 449.787 255.114 450.168 255.051V252.41C449.762 252.436 449.127 252.474 448.746 252.461C447.934 252.448 447.273 252.182 447.273 250.861V243.701H449.99V241.213ZM452.479 255H455.729V241.213H452.479V255ZM452.25 237.48C452.25 238.458 453.101 239.245 454.129 239.258C455.157 239.245 456.008 238.458 456.008 237.48C456.008 236.516 455.157 235.729 454.129 235.729C453.101 235.729 452.25 236.516 452.25 237.48ZM464.844 255.279C468.881 255.279 471.458 252.423 471.445 248.17C471.458 243.879 468.881 241.035 464.844 241.035C460.819 241.035 458.242 243.879 458.242 248.17C458.242 252.423 460.819 255.279 464.844 255.279ZM461.518 248.145C461.518 245.618 462.622 243.587 464.869 243.6C467.078 243.587 468.183 245.618 468.17 248.145C468.183 250.671 467.078 252.689 464.869 252.689C462.622 252.689 461.518 250.671 461.518 248.145ZM477.209 246.926C477.209 244.92 478.415 243.765 480.129 243.777C481.817 243.765 482.82 244.869 482.82 246.723V255H486.045V246.215C486.058 242.914 484.179 241.035 481.322 241.035C479.266 241.035 477.856 242.013 477.234 243.549H477.057V241.213H473.959V255H477.209V246.926Z" fill="white"/>
<path d="M1428.74 590.627V598.466H1431.64V600.824H1428.74V611.021H1425.87V590.627H1428.74ZM1412.39 605.294C1417.23 602.868 1419.84 599.611 1420.38 595.052H1413.56V592.716H1423.28C1423.26 598.825 1420.88 604.115 1414.01 607.495L1412.39 605.294ZM1448.96 591.817V593.659C1448.95 595.568 1448.95 597.646 1448.43 600.51H1451.14V602.823H1443.16V611.089H1440.29V602.823H1432.49V600.51H1445.52C1446.05 597.882 1446.09 595.872 1446.1 594.108H1434.63V591.817H1448.96ZM1474.14 591.817V593.659C1474.12 595.568 1474.12 597.646 1473.61 600.51H1476.31V602.823H1468.34V611.089H1465.47V602.823H1457.67V600.51H1470.7C1471.23 597.882 1471.27 595.872 1471.28 594.108H1459.81V591.817H1474.14ZM1496.19 600.532V602.801H1477.55V600.532H1485.43V598.713H1479.82V591.436H1493.99V593.704H1482.67V596.399H1494.19V598.713H1488.31V600.532H1496.19ZM1479.62 606.484V604.216H1493.97V611.134H1491.16V606.484H1479.62ZM1513.76 591.862V600.465H1503.76V591.862H1513.76ZM1504.84 608.865C1508.93 608.528 1511.08 606.911 1511.4 605.474H1505.67V603.34H1511.49V601.655H1514.36V603.34H1520.18V605.474H1514.45C1514.77 606.866 1516.91 608.472 1520.97 608.865L1520 611.021C1516.6 610.707 1514.18 609.472 1512.94 607.877C1511.68 609.494 1509.24 610.696 1505.83 611.021L1504.84 608.865ZM1506.59 598.219H1510.9V594.086H1506.59V598.219ZM1516.97 602.217V590.627H1519.82V602.217H1516.97ZM1545.58 590.627V611.066H1542.87V600.802H1540.89V610.078H1538.26V590.964H1540.89V598.511H1542.87V590.627H1545.58ZM1528.49 606.439V592.985H1536.11V595.299H1531.37V604.036C1533.34 604.002 1535.09 603.89 1537.07 603.542L1537.27 605.878C1534.78 606.35 1532.6 606.428 1529.91 606.439H1528.49ZM1553.42 592.064C1555.26 592.064 1556.79 593.064 1557.72 594.827H1562.21V590.627H1565.04V611.111H1562.21V603.452H1557.94C1557.03 605.474 1555.4 606.642 1553.42 606.642C1550.32 606.642 1548.1 603.834 1548.12 599.342C1548.1 594.883 1550.32 592.064 1553.42 592.064ZM1550.86 599.342C1550.85 602.385 1551.9 604.047 1553.42 604.036C1554.96 604.047 1555.98 602.385 1555.98 599.342C1555.98 596.31 1554.96 594.647 1553.42 594.647C1551.9 594.647 1550.85 596.31 1550.86 599.342ZM1558.52 597.141C1558.66 597.814 1558.72 598.556 1558.72 599.342C1558.72 599.982 1558.68 600.588 1558.59 601.161H1562.21V597.141H1558.52ZM1586.35 599.791V601.925H1567.64V599.791H1586.35ZM1569.77 604.912V602.936H1584.1V607.765H1572.65V608.933H1584.71V610.887H1569.8V605.945H1581.27V604.912H1569.77ZM1569.93 592.94V590.986H1584.08V595.793H1572.83V596.894H1584.44V598.825H1569.98V593.974H1581.21V592.94H1569.93ZM1611.48 601.161V603.407H1592.8V601.161H1600.7V599.903H1595.13V591.121H1609.31V593.322H1598.01V594.468H1608.83V596.534H1598.01V597.702H1609.49V599.903H1603.58V601.161H1611.48ZM1594.98 607.697C1594.98 605.541 1597.56 604.328 1602.14 604.351C1606.64 604.328 1609.24 605.541 1609.26 607.697C1609.24 609.898 1606.64 611.078 1602.14 611.066C1597.56 611.078 1594.98 609.898 1594.98 607.697ZM1597.85 607.697C1597.83 608.573 1599.2 608.955 1602.14 608.955C1605.02 608.955 1606.37 608.573 1606.39 607.697C1606.37 606.844 1605.02 606.451 1602.14 606.462C1599.2 606.451 1597.83 606.844 1597.85 607.697ZM1622.58 593.749V596.018H1612.7V593.749H1616.25V591.188H1619.08V593.749H1622.58ZM1613.17 601.79C1613.17 598.949 1615.08 596.95 1617.68 596.938C1620.3 596.95 1622.16 598.949 1622.18 601.79C1622.16 604.643 1620.3 606.664 1617.68 606.664C1615.08 606.664 1613.17 604.643 1613.17 601.79ZM1615.68 601.79C1615.68 603.351 1616.49 604.238 1617.68 604.238C1618.83 604.238 1619.65 603.351 1619.66 601.79C1619.65 600.251 1618.83 599.319 1617.68 599.319C1616.49 599.319 1615.68 600.251 1615.68 601.79ZM1623.34 610.19V591.031H1626.02V598.938H1627.68V590.627H1630.4V611.066H1627.68V601.229H1626.02V610.19H1623.34ZM1427.21 640.703C1427.2 644.207 1428.17 647.531 1431.06 649.059L1429.37 651.327C1427.6 650.361 1426.46 648.71 1425.79 646.689C1425.06 648.946 1423.82 650.833 1421.98 651.934L1420.18 649.845C1423.25 648.014 1424.42 644.364 1424.43 640.905V637.379H1427.21V640.703ZM1431.08 655.123V635.919H1433.77V643.601H1435.55V635.627H1438.29V656.066H1435.55V645.892H1433.77V655.123H1431.08ZM1459.15 651.439V653.798H1440.44V651.439H1448.33V648.362H1442.6V641.489H1454.17V639.243H1442.58V636.952H1457V643.735H1445.48V646.026H1457.47V648.362H1451.18V651.439H1459.15ZM1479.01 645.577V647.868H1471.26V651.417H1468.36V647.868H1460.3V645.577H1479.01ZM1462.23 640.254C1462.23 637.66 1465.2 636.031 1469.64 636.009C1474.07 636.031 1477.02 637.66 1477.03 640.254C1477.02 642.859 1474.07 644.477 1469.64 644.477C1465.2 644.477 1462.23 642.859 1462.23 640.254ZM1462.52 655.707V649.598H1465.42V653.394H1476.94V655.707H1462.52ZM1465.33 640.254C1465.32 641.5 1467 642.174 1469.64 642.186C1472.28 642.174 1473.96 641.5 1473.96 640.254C1473.96 638.951 1472.28 638.277 1469.64 638.277C1467 638.277 1465.32 638.951 1465.33 640.254ZM1501.63 635.627V643.354H1504.64V645.712H1501.63V656.111H1498.8V635.627H1501.63ZM1486.33 639.647V637.334H1495.79V645.263H1489.21V648.969C1492.18 648.958 1494.64 648.823 1497.36 648.362L1497.61 650.653C1494.49 651.226 1491.68 651.35 1488.08 651.35H1486.35V642.994H1492.94V639.647H1486.33ZM1522.49 635.627V656.111H1519.6V635.627H1522.49ZM1505.99 644.342C1505.97 639.883 1508.25 637.064 1511.4 637.064C1514.48 637.064 1516.77 639.883 1516.77 644.342C1516.77 648.834 1514.48 651.642 1511.4 651.642C1508.25 651.642 1505.97 648.834 1505.99 644.342ZM1508.75 644.342C1508.74 647.385 1509.8 649.047 1511.4 649.036C1512.95 649.047 1513.99 647.385 1514 644.342C1513.99 641.31 1512.95 639.647 1511.4 639.647C1509.8 639.647 1508.74 641.31 1508.75 644.342ZM1543.97 651.305V653.686H1525.26V651.305H1543.97ZM1526.72 639.715V637.424H1542.39V639.715H1539.52V645.914H1542.3V648.16H1526.81V645.914H1529.55V639.715H1526.72ZM1532.42 645.914H1536.69V639.715H1532.42V645.914ZM1555.89 638.322C1555.88 641.321 1558.54 644.521 1563.17 645.308L1561.91 647.688C1558.34 646.981 1555.7 644.971 1554.38 642.354C1553.03 644.948 1550.38 646.97 1546.84 647.688L1545.61 645.308C1550.15 644.499 1552.82 641.287 1552.84 638.322V636.84H1555.89V638.322ZM1545.13 653.551V651.192H1563.84V653.551H1545.13ZM1575.5 637.312V639.647H1568.72V643.017H1575.21V645.263H1568.72V649.126C1571.64 649.092 1574.03 648.969 1576.76 648.542L1577.03 650.855C1573.91 651.327 1571.12 651.417 1567.55 651.417H1565.82V637.312H1575.5ZM1578.26 656.066V635.627H1581.14V643.376H1584.15V645.779H1581.14V656.066H1578.26ZM1590.71 636.233C1593.82 636.222 1596.15 638.176 1596.17 640.905C1596.15 643.612 1593.82 645.543 1590.71 645.555C1587.55 645.543 1585.21 643.612 1585.21 640.905C1585.21 638.176 1587.55 636.222 1590.71 636.233ZM1587.99 640.905C1587.97 642.365 1589.12 643.23 1590.71 643.241C1592.26 643.23 1593.39 642.365 1593.4 640.905C1593.39 639.434 1592.26 638.569 1590.71 638.569C1589.14 638.569 1587.97 639.434 1587.99 640.905ZM1588.28 648.924V646.723H1602.01V652.271H1591.13V653.596H1602.57V655.842H1588.33V650.182H1599.15V648.924H1588.28ZM1599.13 645.869V635.627H1602.01V645.869H1599.13ZM1614.09 635.919C1618.8 635.919 1621.51 637.154 1621.52 639.4C1621.51 641.68 1618.8 642.904 1614.09 642.904C1609.37 642.904 1606.63 641.68 1606.63 639.4C1606.63 637.154 1609.37 635.919 1614.09 635.919ZM1604.77 646.139V643.87H1623.41V646.139H1604.77ZM1606.92 649.418V647.329H1621.14V652.54H1609.75V653.775H1621.68V655.932H1606.95V650.541H1618.31V649.418H1606.92ZM1609.64 639.4C1609.63 640.4 1611.09 640.793 1614.09 640.793C1617.11 640.793 1618.56 640.4 1618.56 639.4C1618.56 638.491 1617.11 638.008 1614.09 638.008C1611.09 638.008 1609.63 638.491 1609.64 639.4ZM1468.06 680.627V701.066H1465.34V680.627H1468.06ZM1449.96 695.092C1452.97 693.239 1454.09 689.578 1454.09 686.107V685.007H1450.74V682.716H1459.95V685.007H1456.85V686.107C1456.84 689.499 1457.91 692.936 1460.9 694.643L1459.21 696.754C1457.38 695.676 1456.19 693.856 1455.49 691.655C1454.8 694.036 1453.56 696.058 1451.69 697.203L1449.96 695.092ZM1458.49 689.948V687.635H1461.19V680.964H1463.88V700.123H1461.19V689.948H1458.49ZM1486.48 680.627V686.489H1489.24V688.87H1486.48V695.519H1483.6V680.627H1486.48ZM1470.4 687.141C1470.38 684.097 1472.87 681.941 1476.01 681.952C1479.14 681.941 1481.58 684.097 1481.58 687.141C1481.58 690.139 1479.14 692.329 1476.01 692.329C1472.87 692.329 1470.38 690.139 1470.4 687.141ZM1473.23 700.707V693.946H1476.08V698.416H1487.22V700.707H1473.23ZM1473.23 687.141C1473.2 688.803 1474.45 689.836 1476.01 689.836C1477.58 689.836 1478.79 688.803 1478.8 687.141C1478.79 685.434 1477.58 684.434 1476.01 684.445C1474.45 684.434 1473.2 685.434 1473.23 687.141ZM1506.27 680.627V688.623H1509.28V690.981H1506.27V701.066H1503.44V680.627H1506.27ZM1490.03 685.973V683.682H1494.65V680.941H1497.53V683.682H1502.04V685.973H1490.03ZM1490.86 691.992C1490.85 689.14 1493.07 687.107 1496.09 687.118C1499.07 687.107 1501.3 689.14 1501.3 691.992C1501.3 694.845 1499.07 696.855 1496.09 696.866C1493.07 696.855 1490.85 694.845 1490.86 691.992ZM1493.6 691.992C1493.6 693.576 1494.64 694.519 1496.09 694.508C1497.52 694.519 1498.56 693.576 1498.56 691.992C1498.56 690.42 1497.52 689.454 1496.09 689.432C1494.64 689.454 1493.6 690.42 1493.6 691.992ZM1526.62 686.197V688.443H1512.33V681.346H1515.18V686.197H1526.62ZM1509.99 692.891V690.645H1528.7V692.891H1509.99ZM1512.15 700.617V694.553H1515.03V698.326H1526.75V700.617H1512.15ZM1542.92 685.254C1542.93 689.095 1544.48 692.834 1547.89 694.306L1546.13 696.597C1543.87 695.496 1542.34 693.452 1541.48 690.925C1540.61 693.609 1539.04 695.811 1536.7 696.956L1534.9 694.62C1538.41 693.037 1540 689.095 1540.02 685.254V682.199H1542.92V685.254ZM1545.6 689.364V687.051H1549.62V680.627H1552.45V701.111H1549.62V689.364H1545.6ZM1572.19 680.627V701.111H1569.29V680.627H1572.19ZM1556.08 696.327V682.244H1558.96V687.23H1563.36V682.244H1566.19V696.327H1556.08ZM1558.96 694.014H1563.36V689.454H1558.96V694.014ZM1585.71 683.322C1585.7 686.321 1588.36 689.521 1592.99 690.308L1591.73 692.688C1588.16 691.981 1585.52 689.971 1584.19 687.354C1582.85 689.948 1580.2 691.97 1576.66 692.688L1575.42 690.308C1579.97 689.499 1582.63 686.287 1582.66 683.322V681.84H1585.71V683.322ZM1574.95 698.551V696.192H1593.66V698.551H1574.95Z" fill="#4ECB69"/>
<path d="M1856.55 1039.18C1855.59 1039.18 1854.77 1038.92 1854.09 1038.39C1853.41 1037.86 1852.89 1037.1 1852.54 1036.1C1852.18 1035.09 1852 1033.88 1852 1032.45C1852 1031.04 1852.18 1029.83 1852.54 1028.83C1852.9 1027.82 1853.42 1027.06 1854.1 1026.53C1854.78 1026 1855.6 1025.73 1856.55 1025.73C1857.51 1025.73 1858.32 1026 1859 1026.53C1859.68 1027.06 1860.2 1027.82 1860.56 1028.83C1860.92 1029.83 1861.1 1031.04 1861.1 1032.45C1861.1 1033.88 1860.92 1035.09 1860.56 1036.1C1860.21 1037.1 1859.69 1037.86 1859.01 1038.39C1858.33 1038.92 1857.51 1039.18 1856.55 1039.18ZM1856.55 1037.77C1857.51 1037.77 1858.25 1037.31 1858.78 1036.39C1859.3 1035.47 1859.57 1034.16 1859.57 1032.45C1859.57 1031.32 1859.45 1030.36 1859.2 1029.56C1858.96 1028.76 1858.62 1028.15 1858.17 1027.74C1857.72 1027.32 1857.18 1027.11 1856.55 1027.11C1855.6 1027.11 1854.87 1027.58 1854.33 1028.51C1853.8 1029.44 1853.53 1030.75 1853.53 1032.45C1853.53 1033.59 1853.65 1034.55 1853.89 1035.34C1854.13 1036.14 1854.47 1036.74 1854.92 1037.15C1855.37 1037.57 1855.92 1037.77 1856.55 1037.77ZM1863.53 1039V1037.85L1867.85 1033.12C1868.36 1032.57 1868.78 1032.08 1869.1 1031.67C1869.43 1031.26 1869.68 1030.87 1869.83 1030.51C1870 1030.14 1870.08 1029.76 1870.08 1029.36C1870.08 1028.9 1869.97 1028.5 1869.74 1028.17C1869.53 1027.83 1869.23 1027.57 1868.85 1027.39C1868.47 1027.2 1868.04 1027.11 1867.57 1027.11C1867.07 1027.11 1866.63 1027.22 1866.25 1027.42C1865.88 1027.63 1865.6 1027.92 1865.39 1028.29C1865.19 1028.66 1865.09 1029.09 1865.09 1029.59H1863.58C1863.58 1028.82 1863.76 1028.15 1864.11 1027.57C1864.47 1026.99 1864.95 1026.54 1865.56 1026.22C1866.17 1025.89 1866.86 1025.73 1867.62 1025.73C1868.39 1025.73 1869.07 1025.89 1869.66 1026.22C1870.25 1026.54 1870.72 1026.98 1871.05 1027.53C1871.39 1028.08 1871.56 1028.69 1871.56 1029.36C1871.56 1029.84 1871.47 1030.31 1871.3 1030.77C1871.13 1031.23 1870.83 1031.74 1870.4 1032.3C1869.98 1032.86 1869.39 1033.54 1868.64 1034.35L1865.7 1037.49V1037.59H1871.79V1039H1863.53Z" fill="#737373" fill-opacity="0.75"/>
<rect x="1295" y="210" width="459" height="69" rx="10" fill="#4ECB69"/>
<path d="M1458.7 254V235.617H1465.61C1469.82 235.617 1472.07 238.182 1472.08 241.711C1472.07 245.228 1469.8 247.779 1465.56 247.779H1462V254H1458.7ZM1462 245.062H1465.1C1467.59 245.05 1468.71 243.653 1468.71 241.711C1468.71 239.743 1467.59 238.385 1465.1 238.385H1462V245.062ZM1480.41 254.279C1476.39 254.279 1473.81 251.423 1473.81 247.17C1473.81 242.879 1476.39 240.035 1480.41 240.035C1484.45 240.035 1487.02 242.879 1487.01 247.17C1487.02 251.423 1484.45 254.279 1480.41 254.279ZM1477.08 247.145C1477.08 249.671 1478.19 251.689 1480.44 251.689C1482.64 251.689 1483.75 249.671 1483.74 247.145C1483.75 244.618 1482.64 242.587 1480.44 242.6C1478.19 242.587 1477.08 244.618 1477.08 247.145ZM1497.35 244.148C1497.14 243.107 1496.28 242.435 1494.91 242.447C1493.52 242.435 1492.51 243.133 1492.52 244.072C1492.51 244.783 1493.08 245.316 1494.48 245.646L1496.81 246.129C1499.42 246.7 1500.68 247.906 1500.7 249.887C1500.68 252.477 1498.41 254.279 1494.81 254.279C1491.3 254.279 1489.23 252.705 1488.89 250.064H1492.19C1492.38 251.245 1493.3 251.829 1494.81 251.816C1496.37 251.829 1497.38 251.194 1497.4 250.166C1497.38 249.366 1496.76 248.858 1495.39 248.566L1493.18 248.084C1490.62 247.563 1489.28 246.218 1489.3 244.25C1489.28 241.698 1491.49 240.035 1494.86 240.035C1498.15 240.035 1500.18 241.647 1500.42 244.148H1497.35ZM1503.16 254V240.213H1506.41V254H1503.16ZM1502.93 236.48C1502.93 235.516 1503.78 234.729 1504.81 234.729C1505.84 234.729 1506.69 235.516 1506.69 236.48C1506.69 237.458 1505.84 238.245 1504.81 238.258C1503.78 238.245 1502.93 237.458 1502.93 236.48ZM1516.39 240.213V242.701H1513.67V249.861C1513.67 251.182 1514.33 251.448 1515.14 251.461C1515.53 251.474 1516.16 251.436 1516.57 251.41V254.051C1516.19 254.114 1515.56 254.19 1514.74 254.178C1512.3 254.19 1510.42 252.984 1510.45 250.395V242.701H1508.47V240.213H1510.45V236.912H1513.67V240.213H1516.39ZM1518.88 254V240.213H1522.13V254H1518.88ZM1518.65 236.48C1518.65 235.516 1519.5 234.729 1520.53 234.729C1521.56 234.729 1522.41 235.516 1522.41 236.48C1522.41 237.458 1521.56 238.245 1520.53 238.258C1519.5 238.245 1518.65 237.458 1518.65 236.48ZM1531.24 254.279C1527.22 254.279 1524.64 251.423 1524.64 247.17C1524.64 242.879 1527.22 240.035 1531.24 240.035C1535.28 240.035 1537.86 242.879 1537.84 247.17C1537.86 251.423 1535.28 254.279 1531.24 254.279ZM1527.92 247.145C1527.92 249.671 1529.02 251.689 1531.27 251.689C1533.48 251.689 1534.58 249.671 1534.57 247.145C1534.58 244.618 1533.48 242.587 1531.27 242.6C1529.02 242.587 1527.92 244.618 1527.92 247.145ZM1543.61 245.926V254H1540.36V240.213H1543.46V242.549H1543.63C1544.25 241.013 1545.66 240.035 1547.72 240.035C1550.58 240.035 1552.46 241.914 1552.44 245.215V254H1549.22V245.723C1549.22 243.869 1548.22 242.765 1546.53 242.777C1544.81 242.765 1543.61 243.92 1543.61 245.926ZM1555.54 254V240.213H1558.79V254H1555.54ZM1555.31 236.48C1555.31 235.516 1556.16 234.729 1557.19 234.729C1558.22 234.729 1559.07 235.516 1559.07 236.48C1559.07 237.458 1558.22 238.245 1557.19 238.258C1556.16 238.245 1555.31 237.458 1555.31 236.48ZM1565.14 245.926V254H1561.89V240.213H1564.99V242.549H1565.16C1565.79 241.013 1567.2 240.035 1569.25 240.035C1572.11 240.035 1573.99 241.914 1573.97 245.215V254H1570.75V245.723C1570.75 243.869 1569.75 242.765 1568.06 242.777C1566.34 242.765 1565.14 243.92 1565.14 245.926ZM1583.09 259.459C1579.43 259.459 1577.11 257.834 1576.89 255.244H1580.12C1580.35 256.45 1581.48 257.009 1583.14 257.021C1585.08 257.009 1586.34 256.171 1586.34 254.152V251.512H1586.19C1585.68 252.527 1584.58 253.797 1582.2 253.797C1579.01 253.797 1576.51 251.486 1576.51 246.992C1576.51 242.46 1579.03 240.035 1582.23 240.035C1584.65 240.035 1585.68 241.495 1586.19 242.473H1586.34V240.213H1589.54V254.229C1589.54 257.758 1586.81 259.459 1583.09 259.459ZM1579.81 247.043C1579.81 249.582 1580.96 251.258 1583.09 251.258C1585.18 251.258 1586.37 249.684 1586.37 247.043C1586.37 244.415 1585.2 242.688 1583.09 242.676C1580.93 242.688 1579.81 244.529 1579.81 247.043Z" fill="white"/>
<defs>
<filter id="filter0_d_35_171" x="161" y="285" width="493" height="724" filterUnits="userSpaceOnUse" color-interpolation-filters="sRGB">
<feFlood flood-opacity="0" result="BackgroundImageFix"/>
<feColorMatrix in="SourceAlpha" type="matrix" values="0 0 0 0 0 0 0 0 0 0 0 0 0 0 0 0 0 0 127 0" result="hardAlpha"/>
<feMorphology radius="7" operator="dilate" in="SourceAlpha" result="effect1_dropShadow_35_171"/>
<feOffset dx="2" dy="2"/>
<feGaussianBlur stdDeviation="5"/>
<feComposite in2="hardAlpha" operator="out"/>
<feColorMatrix type="matrix" values="0 0 0 0 0 0 0 0 0 0 0 0 0 0 0 0 0 0 0.1 0"/>
<feBlend mode="normal" in2="BackgroundImageFix" result="effect1_dropShadow_35_171"/>
<feBlend mode="normal" in="SourceGraphic" in2="effect1_dropShadow_35_171" result="shape"/>
</filter>
<filter id="filter1_d_35_171" x="719" y="285" width="493" height="724" filterUnits="userSpaceOnUse" color-interpolation-filters="sRGB">
<feFlood flood-opacity="0" result="BackgroundImageFix"/>
<feColorMatrix in="SourceAlpha" type="matrix" values="0 0 0 0 0 0 0 0 0 0 0 0 0 0 0 0 0 0 127 0" result="hardAlpha"/>
<feMorphology radius="7" operator="dilate" in="SourceAlpha" result="effect1_dropShadow_35_171"/>
<feOffset dx="2" dy="2"/>
<feGaussianBlur stdDeviation="5"/>
<feComposite in2="hardAlpha" operator="out"/>
<feColorMatrix type="matrix" values="0 0 0 0 0 0 0 0 0 0 0 0 0 0 0 0 0 0 0.1 0"/>
<feBlend mode="normal" in2="BackgroundImageFix" result="effect1_dropShadow_35_171"/>
<feBlend mode="normal" in="SourceGraphic" in2="effect1_dropShadow_35_171" result="shape"/>
</filter>
<filter id="filter2_d_35_171" x="1277" y="285" width="493" height="724" filterUnits="userSpaceOnUse" color-interpolation-filters="sRGB">
<feFlood flood-opacity="0" result="BackgroundImageFix"/>
<feColorMatrix in="SourceAlpha" type="matrix" values="0 0 0 0 0 0 0 0 0 0 0 0 0 0 0 0 0 0 127 0" result="hardAlpha"/>
<feMorphology radius="7" operator="dilate" in="SourceAlpha" result="effect1_dropShadow_35_171"/>
<feOffset dx="2" dy="2"/>
<feGaussianBlur stdDeviation="5"/>
<feComposite in2="hardAlpha" operator="out"/>
<feColorMatrix type="matrix" values="0 0 0 0 0 0 0 0 0 0 0 0 0 0 0 0 0 0 0.1 0"/>
<feBlend mode="normal" in2="BackgroundImageFix" result="effect1_dropShadow_35_171"/>
<feBlend mode="normal" in="SourceGraphic" in2="effect1_dropShadow_35_171" result="shape"/>
</filter>
</defs>
</svg>
